<svg width="16" height="17" viewBox="0 0 16 17" fill="none" xmlns="http://www.w3.org/2000/svg">
<path d="M14.4 5.1H1.6V3.4H14.4V5.1ZM12.8 0H3.2V1.7H12.8V0ZM16 8.5V15.3C16 15.7509 15.8314 16.1833 15.5314 16.5021C15.2313 16.8209 14.8243 17 14.4 17H1.6C1.17604 16.9987 0.769812 16.8191 0.470028 16.5006C0.170244 16.1821 0.00126618 15.7505 0 15.3V8.5C0.00126618 8.04955 0.170244 7.61793 0.470028 7.29941C0.769812 6.98088 1.17604 6.80135 1.6 6.8H14.4C14.824 6.80135 15.2302 6.98088 15.53 7.29941C15.8298 7.61793 15.9987 8.04955 16 8.5ZM9.5416 12.7857L11.4 11.0976L8.9528 10.88L8 8.5L7.0472 10.88L4.6 11.0976L6.4584 12.7857L5.8984 15.3L8 13.9638L10.1016 15.3L9.5416 12.7857Z" fill="#781A1A"/>
</svg>
