<svg xmlns="http://www.w3.org/2000/svg" width="14.48" height="12.419" viewBox="0 0 14.48 12.419">
    <g id="back_2_" data-name="back (2)" transform="translate(0 -31.842)">
        <g id="Group_48" data-name="Group 48" transform="translate(0 31.842)">
            <path id="Path_33" data-name="Path 33" d="M13.61,37.034a1.035,1.035,0,0,0-.179-.013H3.215l.223-.1a2.072,2.072,0,0,0,.585-.414l2.865-2.865a1.072,1.072,0,0,0,.15-1.373,1.036,1.036,0,0,0-1.554-.135L.3,37.311a1.036,1.036,0,0,0,0,1.465h0l5.18,5.18a1.036,1.036,0,0,0,1.554-.1,1.072,1.072,0,0,0-.15-1.373l-2.86-2.87a2.072,2.072,0,0,0-.518-.378l-.311-.14H13.374a1.072,1.072,0,0,0,1.093-.87A1.036,1.036,0,0,0,13.61,37.034Z" transform="translate(0 -31.842)"/>
        </g>
    </g>
</svg>