<svg width="20" height="28" viewBox="0 0 20 28" fill="none" xmlns="http://www.w3.org/2000/svg">
<path fill-rule="evenodd" clip-rule="evenodd" d="M10.0073 6.29964C10.8591 6.29964 11.6761 5.96778 12.2785 5.37708C12.8808 4.78637 13.2192 3.9852 13.2192 3.14982C13.2192 2.31443 12.8808 1.51327 12.2785 0.92256C11.6761 0.331855 10.8591 0 10.0073 0C9.1554 0 8.33843 0.331855 7.73607 0.92256C7.13371 1.51327 6.79531 2.31443 6.79531 3.14982C6.79531 3.9852 7.13371 4.78637 7.73607 5.37708C8.33843 5.96778 9.1554 6.29964 10.0073 6.29964ZM19.9429 8.00754C20.0489 8.36397 20.0062 8.7471 19.8241 9.07264C19.6421 9.39819 19.3356 9.63948 18.9722 9.74344C17.2763 10.2278 15.7445 10.5932 14.2899 10.8361V26.5985C14.2903 26.959 14.1488 27.3059 13.8949 27.5667C13.641 27.8275 13.2943 27.9822 12.927 27.9986C12.5597 28.0149 12.2001 27.8916 11.9232 27.6544C11.6463 27.4172 11.4734 27.0843 11.4405 26.7252L10.7267 19.0256C10.7229 18.9835 10.721 18.9412 10.721 18.8989H9.2935C9.29354 18.9412 9.29164 18.9835 9.28779 19.0256L8.57402 26.7252C8.54117 27.0843 8.36827 27.4172 8.09135 27.6544C7.81443 27.8916 7.45485 28.0149 7.08753 27.9986C6.72022 27.9822 6.37349 27.8275 6.1196 27.5667C5.86571 27.3059 5.72424 26.959 5.72466 26.5985V10.8102C4.27357 10.5652 2.74754 10.2075 1.06019 9.74834C0.877814 9.70071 0.706876 9.61809 0.557268 9.50526C0.407661 9.39242 0.282354 9.25162 0.188597 9.09099C0.0948406 8.93036 0.0344956 8.75309 0.0110539 8.56944C-0.0123878 8.38579 0.00153928 8.1994 0.0520287 8.02106C0.102518 7.84272 0.188568 7.67597 0.305199 7.53046C0.421831 7.38494 0.566729 7.26356 0.73151 7.17331C0.896291 7.08307 1.07768 7.02577 1.2652 7.00472C1.45271 6.98368 1.64261 6.9993 1.82392 7.05069C5.11296 7.94524 7.58402 8.38902 10.0137 8.39952C12.4376 8.41001 14.903 7.99004 18.1728 7.05559C18.5362 6.95163 18.9269 6.99352 19.2589 7.17205C19.5908 7.35057 19.8369 7.65111 19.9429 8.00754Z" fill="white"/>
</svg>
