<svg xmlns="http://www.w3.org/2000/svg" width="32.13" height="24" viewBox="0 0 32.13 24">
    <g id="Group_519" data-name="Group 519" transform="translate(-913.51 -391.005)">
        <path id="Path_1460" data-name="Path 1460" d="M942.525,418.551h-25.9a3.119,3.119,0,0,1-3.116-3.116v-13.45a3.119,3.119,0,0,1,3.116-3.115h25.9a3.119,3.119,0,0,1,3.115,3.115v13.45A3.119,3.119,0,0,1,942.525,418.551Zm-25.9-18.583a2.02,2.02,0,0,0-2.018,2.017v13.45a2.02,2.02,0,0,0,2.018,2.018h25.9a2.02,2.02,0,0,0,2.017-2.018v-13.45a2.02,2.02,0,0,0-2.017-2.017Z" transform="translate(0 -3.546)" fill="#fff"/>
        <path id="Path_1461" data-name="Path 1461" d="M944.736,396.422H925.115l2.991-5.417h13.639Zm-17.76-1.1h15.9L941.1,392.1H928.753Z" transform="translate(-5.232)" fill="#fff"/>
        <path id="Path_1462" data-name="Path 1462" d="M938.6,417.246a5.772,5.772,0,1,1,5.771-5.772A5.778,5.778,0,0,1,938.6,417.246Zm0-9.347a3.575,3.575,0,1,0,3.575,3.575A3.58,3.58,0,0,0,938.6,407.9Z" transform="translate(-8.711 -6.626)" fill="#fff"/>
    </g>
</svg>