<svg width="20" height="25" viewBox="0 0 20 25" fill="none" xmlns="http://www.w3.org/2000/svg">
<path d="M19.1505 11.3138C18.599 10.0929 17.7973 8.99707 16.7954 8.09487L15.9687 7.34881C15.9407 7.32417 15.9069 7.30669 15.8703 7.29789C15.8338 7.2891 15.7956 7.28926 15.7592 7.29836C15.7227 7.30747 15.6891 7.32523 15.6612 7.35011C15.6334 7.37498 15.6121 7.4062 15.5994 7.44102L15.2301 8.48327C15 9.13712 14.5767 9.80494 13.9773 10.4616C13.9375 10.5035 13.892 10.5147 13.8608 10.5175C13.8295 10.5203 13.7812 10.5147 13.7386 10.4756C13.6988 10.442 13.679 10.3917 13.6818 10.3414C13.7869 8.65931 13.2756 6.76202 12.1562 4.69708C11.2301 2.98142 9.94317 1.64298 8.33522 0.709703L7.16192 0.0307035C7.00852 -0.0587121 6.81249 0.0586457 6.82102 0.234683L6.88352 1.57592C6.92613 2.49243 6.81817 3.30275 6.56249 3.97617C6.24999 4.80047 5.80113 5.56609 5.22727 6.25347C4.8279 6.73118 4.37525 7.16327 3.87784 7.54161C2.67984 8.44741 1.70572 9.60804 1.02841 10.9366C0.352766 12.2768 0.00082432 13.7522 0 15.2481C0 16.567 0.264204 17.844 0.786931 19.0483C1.29166 20.2078 2.02005 21.2601 2.93182 22.1471C3.85227 23.0412 4.92045 23.7454 6.11079 24.2344C7.34374 24.7429 8.65056 25 9.99999 25C11.3494 25 12.6562 24.7429 13.8892 24.2372C15.0766 23.751 16.1564 23.0421 17.0682 22.1499C17.9886 21.2557 18.7102 20.2107 19.213 19.0511C19.735 17.85 20.0027 16.557 20 15.2509C20 13.8873 19.7159 12.5629 19.1505 11.3138Z" fill="white"/>
</svg>
