<svg width="21" height="21" viewBox="0 0 21 21" fill="none" xmlns="http://www.w3.org/2000/svg">
<path d="M5.90226 3.28125C5.50877 3.28125 5.24645 3.675 5.24645 3.9375V7.21875H3.93484V3.9375C3.93484 3.54375 3.67251 3.28125 3.27903 3.28125C2.88555 3.28125 2.62322 3.675 2.62322 3.9375V7.21875H1.31161V3.9375C1.31161 3.54375 1.04929 3.28125 0.655806 3.28125C0.262322 3.28125 0 3.675 0 3.9375V8.26875C0 9.45 0.918129 10.3687 1.96742 10.5V19.6875C1.96742 20.475 2.49206 21 3.27903 21C4.066 21 4.59064 20.475 4.59064 19.6875V10.5C5.63993 10.3687 6.55806 9.45 6.55806 8.26875V3.9375C6.55806 3.675 6.29574 3.28125 5.90226 3.28125ZM8.52548 3.9375V11.8125H9.83709V19.6875C9.83709 20.475 10.3617 21 11.1487 21C11.9357 21 12.4603 20.475 12.4603 19.6875V0C10.2306 0 8.52548 1.70625 8.52548 3.9375ZM17.7068 2.625C15.8705 2.625 14.4277 4.59375 14.4277 6.95625C14.2966 8.53125 15.0835 9.975 16.3952 10.8938V19.6875C16.3952 20.475 16.9198 21 17.7068 21C18.4937 21 19.0184 20.475 19.0184 19.6875V10.8938C20.33 9.975 21.117 8.53125 20.9858 6.95625C20.9858 4.59375 19.543 2.625 17.7068 2.625Z" fill="white"/>
</svg>
