<svg xmlns="http://www.w3.org/2000/svg" width="23.18" height="23.18" viewBox="0 0 23.18 23.18">
    <g id="Group_99" data-name="Group 99" transform="translate(0 0)">
        <g id="Group_97" data-name="Group 97" transform="translate(0 3.022)">
            <path id="Path_192" data-name="Path 192" d="M-71.491,107.672H-83.985a4.568,4.568,0,0,0-4.545,4.6v9.371a4.568,4.568,0,0,0,4.545,4.6h12.494a4.568,4.568,0,0,0,4.545-4.6v-9.371A4.568,4.568,0,0,0-71.491,107.672Zm3.71,13.967a3.734,3.734,0,0,1-3.71,3.752H-83.985a3.734,3.734,0,0,1-3.71-3.752v-9.371a3.734,3.734,0,0,1,3.71-3.752h.545v1.766a.842.842,0,0,0,.834.844.838.838,0,0,0,.834-.844v-1.766h8.061v1.766a.842.842,0,0,0,.834.844.838.838,0,0,0,.834-.844v-1.766h.551a3.734,3.734,0,0,1,3.71,3.752Z" transform="translate(89.328 -106.874)" fill="#fff"/>
            <path id="Path_193" data-name="Path 193" d="M-72.212,106.172H-84.668a5.393,5.393,0,0,0-5.362,5.415v9.329a5.393,5.393,0,0,0,5.362,5.415h12.455a5.393,5.393,0,0,0,5.362-5.415v-9.329A5.393,5.393,0,0,0-72.212,106.172Zm3.7,14.744a3.72,3.72,0,0,1-3.7,3.735H-84.668a3.72,3.72,0,0,1-3.7-3.735v-9.329a3.72,3.72,0,0,1,3.7-3.735h12.455a3.72,3.72,0,0,1,3.7,3.735Z" transform="translate(90.03 -106.172)" fill="#1a1818"/>
        </g>
        <g id="Group_98" data-name="Group 98" transform="translate(6.137 0)">
            <path id="Path_194" data-name="Path 194" d="M-77.784,101.29v5.49a.8.8,0,0,1-.8.8.8.8,0,0,1-.8-.8v-5.49a.8.8,0,0,1,.8-.8A.8.8,0,0,1-77.784,101.29Z" transform="translate(79.38 -100.492)" fill="#1a1818"/>
            <path id="Path_195" data-name="Path 195" d="M-60.294,101.29v5.49a.8.8,0,0,1-.8.8.8.8,0,0,1-.8-.8v-5.49a.8.8,0,0,1,.8-.8A.8.8,0,0,1-60.294,101.29Z" transform="translate(71.194 -100.492)" fill="#1a1818"/>
        </g>
    </g>
</svg>