<svg width="36" height="38" viewBox="0 0 36 38" fill="none" xmlns="http://www.w3.org/2000/svg">
<path d="M25 8C25 13.4444 18 18.1111 18 18.1111C18 18.1111 11 13.4444 11 8C11 6.14348 11.7375 4.36301 13.0503 3.05025C14.363 1.7375 16.1435 1 18 1C19.8565 1 21.637 1.7375 22.9497 3.05025C24.2625 4.36301 25 6.14348 25 8Z" stroke="#FDFDFD" stroke-linecap="round" stroke-linejoin="round"/>
<path d="M18.0013 10.3327C19.29 10.3327 20.3346 9.28801 20.3346 7.99935C20.3346 6.71068 19.29 5.66602 18.0013 5.66602C16.7126 5.66602 15.668 6.71068 15.668 7.99935C15.668 9.28801 16.7126 10.3327 18.0013 10.3327Z" stroke="#FDFDFD" stroke-linecap="round" stroke-linejoin="round"/>
<path d="M3.97294 36.054C4.89994 36.054 5.72794 35.739 6.28594 35.127L5.86294 34.704C5.34994 35.235 4.71994 35.46 3.99994 35.46C2.47894 35.46 1.33594 34.344 1.33594 32.85C1.33594 31.356 2.47894 30.24 3.99994 30.24C4.71994 30.24 5.34994 30.465 5.86294 30.987L6.28594 30.564C5.72794 29.952 4.89994 29.646 3.98194 29.646C2.08294 29.646 0.678938 31.005 0.678938 32.85C0.678938 34.695 2.08294 36.054 3.97294 36.054ZM9.98269 31.23C9.18169 31.23 8.56069 31.545 8.20969 32.094V29.322H7.57069V36H8.20969V33.516C8.20969 32.436 8.84869 31.806 9.86569 31.806C10.7657 31.806 11.2877 32.319 11.2877 33.318V36H11.9267V33.255C11.9267 31.896 11.1347 31.23 9.98269 31.23ZM15.3175 31.23C14.5705 31.23 13.8685 31.464 13.3915 31.869L13.6795 32.346C14.0665 32.004 14.6425 31.788 15.2545 31.788C16.1365 31.788 16.5955 32.229 16.5955 33.039V33.327H15.0925C13.7335 33.327 13.2655 33.939 13.2655 34.668C13.2655 35.487 13.9225 36.045 14.9935 36.045C15.7765 36.045 16.3345 35.748 16.6225 35.262V36H17.2345V33.066C17.2345 31.842 16.5415 31.23 15.3175 31.23ZM15.0925 35.541C14.3365 35.541 13.8955 35.199 13.8955 34.65C13.8955 34.164 14.1925 33.804 15.1105 33.804H16.5955V34.578C16.3435 35.199 15.8125 35.541 15.0925 35.541ZM21.3821 31.23C20.5631 31.23 19.9241 31.563 19.5821 32.139V31.266H18.9701V36H19.6091V33.516C19.6091 32.436 20.2481 31.806 21.2651 31.806C22.1651 31.806 22.6871 32.319 22.6871 33.318V36H23.3261V33.255C23.3261 31.896 22.5341 31.23 21.3821 31.23ZM28.8495 31.266V32.175C28.4535 31.554 27.7695 31.23 26.9775 31.23C25.6275 31.23 24.6015 32.157 24.6015 33.516C24.6015 34.875 25.6275 35.82 26.9775 35.82C27.7515 35.82 28.4265 35.505 28.8225 34.902V35.505C28.8225 36.675 28.2735 37.224 27.0765 37.224C26.3475 37.224 25.6635 36.981 25.2135 36.576L24.8895 37.062C25.3845 37.53 26.2305 37.791 27.0945 37.791C28.6605 37.791 29.4615 37.053 29.4615 35.424V31.266H28.8495ZM27.0405 35.253C25.9965 35.253 25.2495 34.542 25.2495 33.516C25.2495 32.49 25.9965 31.788 27.0405 31.788C28.0845 31.788 28.8405 32.49 28.8405 33.516C28.8405 34.542 28.0845 35.253 27.0405 35.253ZM35.3794 33.633C35.3794 32.211 34.4164 31.23 33.0844 31.23C31.7524 31.23 30.7714 32.229 30.7714 33.633C30.7714 35.037 31.7794 36.045 33.2554 36.045C34.0024 36.045 34.6594 35.775 35.0824 35.271L34.7224 34.857C34.3624 35.271 33.8494 35.478 33.2734 35.478C32.2384 35.478 31.4824 34.821 31.4104 33.831H35.3704C35.3704 33.759 35.3794 33.687 35.3794 33.633ZM33.0844 31.779C34.0114 31.779 34.6864 32.427 34.7674 33.354H31.4104C31.4914 32.427 32.1664 31.779 33.0844 31.779Z" fill="white"/>
</svg>
