<svg xmlns="http://www.w3.org/2000/svg" width="19.771" height="19.771" viewBox="0 0 19.771 19.771">
    <g id="Icon_feather-copy" data-name="Icon feather-copy" transform="translate(-2 -2)">
        <path id="Path_835" data-name="Path 835" d="M15.277,13.5h8a1.777,1.777,0,0,1,1.777,1.777v8a1.777,1.777,0,0,1-1.777,1.777h-8A1.777,1.777,0,0,1,13.5,23.274v-8A1.777,1.777,0,0,1,15.277,13.5Z" transform="translate(-4.28 -4.28)" fill="none" stroke="#9b9b9b" stroke-linecap="round" stroke-linejoin="round" stroke-width="2"/>
        <path id="Path_836" data-name="Path 836" d="M5.666,14.551H4.777A1.777,1.777,0,0,1,3,12.774v-8A1.777,1.777,0,0,1,4.777,3h8a1.777,1.777,0,0,1,1.777,1.777v.889" fill="none" stroke="#9b9b9b" stroke-linecap="round" stroke-linejoin="round" stroke-width="2"/>
    </g>
</svg>