<svg width="83" height="83" viewBox="0 0 83 83" fill="none" xmlns="http://www.w3.org/2000/svg">
<rect width="83" height="83" rx="8" fill="#897422"/>
<path d="M52.3704 70.1094C33.3649 76.6304 36.5996 64.8671 20.4903 56.3006C4.42428 47.7564 12.8653 30.8515 31.5691 20.059C54.1969 7.00264 76.3141 9.2665 71.2782 30.8515C66.2422 52.4353 68.3105 64.1639 52.3704 70.1094Z" fill="#F3F3F3"/>
<path d="M41.9999 51.6007C48.2962 51.6007 53.4003 46.4966 53.4003 40.2004C53.4003 33.9041 48.2962 28.8 41.9999 28.8C35.7037 28.8 30.5996 33.9041 30.5996 40.2004C30.5996 46.4966 35.7037 51.6007 41.9999 51.6007Z" fill="#F0C419"/>
<path d="M43.7998 33.2269C46.0541 33.8756 47.8259 35.606 48.6149 37.8003M59.4003 16.2183C63.0832 16.2183 67.6847 19.9696 68.4467 25.1999L59.4003 16.2183Z" stroke="white" stroke-width="4" stroke-miterlimit="10" stroke-linecap="round" stroke-linejoin="round"/>
</svg>
