<svg width="33" height="52" viewBox="0 0 33 52" fill="none" xmlns="http://www.w3.org/2000/svg">
<path d="M16.5 0C7.38819 0 0 7.47925 0 16.7034C0 24.8392 5.74925 31.6179 13.3578 33.1041V38.4809H6.28132V44.8396H13.3577V52H19.639V44.8396H26.7154V38.4809H19.6391V33.1041C27.2491 31.6191 33 24.8403 33 16.7033C33 7.47925 25.6118 0 16.5 0ZM16.5 6.64205C21.989 6.64205 26.4388 11.1467 26.4388 16.7034C26.4388 22.26 21.9891 26.7647 16.5 26.7647C11.0109 26.7647 6.56118 22.26 6.56118 16.7034C6.56118 11.1467 11.011 6.64205 16.5 6.64205Z" fill="#FFEAEA"/>
</svg>
