<svg width="13" height="14" viewBox="0 0 13 14" fill="none" xmlns="http://www.w3.org/2000/svg">
<path fill-rule="evenodd" clip-rule="evenodd" d="M5.27672 11.255C5.27672 12.5501 4.22842 13.6037 2.94012 13.6037C1.65182 13.6037 0.603515 12.5501 0.603515 11.255C0.603515 9.95918 1.65182 8.90484 2.94012 8.90484C4.22842 8.90484 5.27672 9.95918 5.27672 11.255ZM4.14465 11.255C4.14465 10.5833 3.60427 10.0369 2.94012 10.0369C2.27521 10.0369 1.73559 10.5833 1.73559 11.255C1.73559 11.926 2.27521 12.4716 2.94012 12.4716C3.60427 12.4716 4.14465 11.926 4.14465 11.255ZM3.47687 5.73986C3.47687 6.05231 3.22329 6.3059 2.91084 6.3059C2.59838 6.3059 2.3448 6.05231 2.3448 5.73986L2.3448 0.984391C2.3448 0.671938 2.59838 0.418353 2.91084 0.418353C3.22329 0.418353 3.47687 0.671938 3.47687 0.984391L3.47687 5.73986ZM12.6035 2.74567C12.6035 4.04152 11.5545 5.09511 10.2662 5.09511C8.97786 5.09511 7.93031 4.04152 7.93031 2.74567C7.93031 1.45058 8.97786 0.39624 10.2662 0.39624C11.5545 0.39624 12.6035 1.45058 12.6035 2.74567ZM11.4714 2.74567C11.4714 2.07473 10.9311 1.52832 10.2662 1.52832C9.60201 1.52832 9.06238 2.07473 9.06238 2.74567C9.06238 3.41737 9.60201 3.96303 10.2662 3.96303C10.9311 3.96303 11.4714 3.41737 11.4714 2.74567ZM10.7919 12.6159C10.7919 12.9284 10.5383 13.182 10.2259 13.182C9.9134 13.182 9.65982 12.9284 9.65982 12.6159L9.65982 7.86122C9.65982 7.54877 9.9134 7.29518 10.2259 7.29518C10.5383 7.29518 10.7919 7.54877 10.7919 7.86122L10.7919 12.6159Z" fill="white"/>
</svg>
