<svg width="337" height="217" viewBox="0 0 337 217" fill="none" xmlns="http://www.w3.org/2000/svg">
<path d="M18.412 77L26.8421 57.3298C25.8076 57.3577 24.6612 57.4137 23.403 57.4975C22.1447 57.5535 20.9005 57.6373 19.6702 57.7492C18.4679 57.861 17.3495 58.0008 16.315 58.1686C15.3084 58.3363 14.5115 58.5461 13.9243 58.7977L13.6727 57.6234C14.8191 56.9523 16.0493 56.3791 17.3635 55.9038C18.7056 55.4005 20.0337 54.9951 21.3479 54.6875C22.662 54.352 23.9342 54.0863 25.1645 53.8906C26.4227 53.6949 27.5411 53.5551 28.5197 53.4712L36.5304 34.8076C37.3133 32.9342 38.1661 31.2286 39.0888 29.6908C37.2993 29.2993 35.5099 28.852 33.7204 28.3487C31.9589 27.8454 30.2253 27.3281 28.5197 26.7969C26.8421 26.2656 25.2064 25.7484 23.6127 25.2451C22.0469 24.7138 20.5789 24.2385 19.2089 23.8191C17.3635 23.2878 15.6998 23.0222 14.2179 23.0222C12.4564 23.0222 11.0304 23.2738 9.93997 23.7771C8.84951 24.2804 7.99671 24.8816 7.38158 25.5806C6.79441 26.2796 6.38898 27.0066 6.1653 27.7615C5.96957 28.4885 5.87171 29.1036 5.87171 29.6069C5.87171 30.3618 6.02549 31.0888 6.33306 31.7878C6.64063 32.4589 7.07401 33.0461 7.63322 33.5493C8.22039 34.0526 8.91941 34.4581 9.73026 34.7656C10.5691 35.0732 11.5197 35.227 12.5822 35.227C13.3092 35.227 14.2179 35.1571 15.3084 35.0173C16.3988 34.8495 17.5732 34.528 18.8314 34.0526L17.1118 38.0789C16.5806 38.2747 15.9515 38.4424 15.2245 38.5822C14.4975 38.722 13.6867 38.7919 12.7919 38.7919C11.5896 38.7919 10.4433 38.6242 9.3528 38.2887C8.26234 37.9531 7.2977 37.4498 6.45888 36.7788C5.64803 36.1077 4.99095 35.2689 4.48766 34.2623C4.01234 33.2558 3.77467 32.0814 3.77467 30.7393C3.77467 28.81 4.25 27.1464 5.20066 25.7484C6.15132 24.3224 7.38158 23.148 8.89145 22.2253C10.4293 21.2747 12.1628 20.5757 14.0921 20.1283C16.0214 19.653 17.9786 19.4153 19.9638 19.4153C21.3618 19.4153 22.8717 19.6809 24.4934 20.2122C26.1151 20.7434 27.8207 21.4005 29.6102 22.1834C31.3997 22.9383 33.2451 23.7492 35.1464 24.616C37.0477 25.4827 38.977 26.2516 40.9342 26.9227C42.3043 25.0214 43.7442 23.4276 45.2541 22.1414C46.764 20.8553 48.2459 19.8207 49.6998 19.0378C51.1538 18.2549 52.5378 17.6957 53.852 17.3602C55.1941 17.0247 56.3824 16.8569 57.4169 16.8569C58.4515 16.8569 59.3462 16.9967 60.1012 17.2763C60.8561 17.528 61.4712 17.8914 61.9465 18.3668C62.4219 18.8141 62.7714 19.3454 62.9951 19.9605C63.2467 20.5477 63.3725 21.1768 63.3725 21.8479C63.3725 23.2459 62.9531 24.5041 62.1143 25.6225C61.3035 26.741 60.241 27.7056 58.9268 28.5164C57.6127 29.2993 56.1168 29.9005 54.4391 30.3199C52.7895 30.7393 51.1258 30.949 49.4482 30.949C48.4696 30.949 47.477 30.9071 46.4704 30.8232C45.4918 30.7393 44.4992 30.6275 43.4926 30.4877C43.1571 31.1308 42.8215 31.7878 42.486 32.4589C42.1785 33.102 41.8709 33.787 41.5633 34.514L33.7204 53.2196H46.9317L45.2122 57.2459H32.0008L23.7385 77H18.412ZM57.2072 18.2829C56.2845 18.2829 55.3059 18.5066 54.2714 18.9539C53.2368 19.3734 52.1883 20.0025 51.1258 20.8413C50.0633 21.6801 49.0008 22.7007 47.9383 23.903C46.9038 25.1053 45.8972 26.4753 44.9186 28.0132C46.6521 28.4046 48.3438 28.6003 49.9934 28.6003C51.8388 28.6003 53.4046 28.3487 54.6908 27.8454C56.0049 27.3421 57.0674 26.713 57.8783 25.9581C58.7171 25.2031 59.3322 24.3923 59.7237 23.5255C60.1151 22.6587 60.3109 21.8758 60.3109 21.1768C60.3109 20.366 60.0452 19.6809 59.514 19.1217C59.0107 18.5625 58.2418 18.2829 57.2072 18.2829ZM77.0167 30.236C77.8555 30.236 78.5126 30.5436 78.9879 31.1587C79.4633 31.7459 79.7009 32.4449 79.7009 33.2558C79.7009 33.7031 79.617 34.1645 79.4493 34.6398C79.3095 35.0872 79.0858 35.4926 78.7782 35.8561C78.4986 36.2196 78.1491 36.5271 77.7297 36.7788C77.3383 37.0025 76.8769 37.1143 76.3457 37.1143C75.5348 37.1143 74.8777 36.8067 74.3744 36.1916C73.8712 35.5485 73.6195 34.8355 73.6195 34.0526C73.6195 33.4655 73.7174 32.9482 73.9131 32.5008C74.1368 32.0255 74.4024 31.6201 74.71 31.2845C75.0455 30.949 75.409 30.6974 75.8004 30.5296C76.2198 30.3339 76.6253 30.236 77.0167 30.236ZM67.0767 52.9679C67.1606 52.7722 67.2026 52.6184 67.2026 52.5066C67.2026 52.3388 67.1466 52.227 67.0348 52.1711C66.9509 52.0872 66.8391 52.0452 66.6993 52.0452C66.4197 52.0452 66.168 52.199 65.9443 52.5066L57.6401 62.7821L56.5915 61.9433L66.0282 50.2837C66.7552 49.389 67.5101 48.6061 68.293 47.935C69.1039 47.236 69.9427 46.8865 70.8095 46.8865C71.6203 46.8865 72.2075 47.1102 72.571 47.5576C72.9345 47.977 73.1162 48.4523 73.1162 48.9836C73.1162 49.5148 73.0184 50.116 72.8226 50.787C72.6269 51.4581 72.3753 52.1571 72.0677 52.884L65.0216 69.8701C64.9098 70.1497 64.8119 70.4293 64.7281 70.7089C64.6442 70.9605 64.6022 71.1842 64.6022 71.3799C64.6022 71.7155 64.6721 71.9391 64.8119 72.051C64.9797 72.1628 65.1894 72.2187 65.4411 72.2187C65.8325 72.2187 66.3078 72.023 66.867 71.6316C67.4263 71.2401 68.0134 70.6669 68.6286 69.912L76.3037 60.4334L77.3522 61.2722L68.0833 72.722C67.4123 73.5609 66.7832 74.2599 66.196 74.8191C65.6088 75.3783 65.0496 75.8257 64.5184 76.1612C64.0151 76.4687 63.4978 76.6924 62.9665 76.8322C62.4633 76.972 61.946 77.0419 61.4147 77.0419C60.5759 77.0419 59.8769 76.8043 59.3177 76.3289C58.7585 75.8257 58.4789 75.1965 58.4789 74.4416C58.4789 73.7426 58.6466 72.9178 58.9822 71.9671C59.3177 71.0164 59.779 69.8561 60.3662 68.486L67.0767 52.9679ZM103.872 37.4498H115.741L114.945 39.1694H103.159L90.1995 69.8701C90.0877 70.1497 89.9759 70.4712 89.864 70.8347C89.7522 71.1702 89.6963 71.4918 89.6963 71.7993C89.6963 72.1349 89.7941 72.4145 89.9898 72.6382C90.1856 72.8339 90.4652 72.9317 90.8287 72.9317C91.4717 72.9317 92.1847 72.6242 92.9676 72.009C93.7505 71.366 94.4495 70.6669 95.0647 69.912L102.74 60.4334L103.788 61.2722L94.9389 72.2187C93.5688 73.8964 92.2686 75.1266 91.0384 75.9095C89.8081 76.6645 88.6477 77.0419 87.5573 77.0419C87.1379 77.0419 86.7185 76.986 86.299 76.8742C85.8796 76.7344 85.5022 76.5526 85.1666 76.3289C84.8311 76.0773 84.5655 75.7697 84.3698 75.4062C84.1461 75.0148 84.0342 74.5674 84.0342 74.0641C84.0342 73.3651 84.202 72.6102 84.5375 71.7993C84.8451 70.9605 85.2785 69.8561 85.8377 68.486L93.7645 49.5707C93.3171 50.2697 92.7999 51.0526 92.2127 51.9194C91.6255 52.7862 90.9265 53.7648 90.1157 54.8553C89.3048 55.9457 88.3681 57.176 87.3056 58.5461C86.2431 59.8882 85.0268 61.398 83.6568 63.0757L82.6083 62.2368C85.2086 59.0493 87.3476 56.3092 89.0252 54.0164C90.7028 51.6957 92.0869 49.6686 93.1773 47.935C94.2958 46.1735 95.2045 44.6077 95.9035 43.2377C96.6305 41.8676 97.3155 40.5115 97.9586 39.1694H87.767L88.5639 37.4498H98.8393L102.153 29.6069H107.186L103.872 37.4498ZM119.781 52.9679C119.865 52.7722 119.907 52.6184 119.907 52.5066C119.907 52.3388 119.851 52.227 119.739 52.1711C119.655 52.0872 119.544 52.0452 119.404 52.0452C119.124 52.0452 118.873 52.199 118.649 52.5066L110.345 62.7821L109.296 61.9433L118.733 50.2837C119.46 49.389 120.215 48.6061 120.998 47.935C121.808 47.236 122.647 46.8865 123.514 46.8865C124.325 46.8865 124.912 47.1102 125.275 47.5576C125.639 47.977 125.821 48.4523 125.821 48.9836C125.821 49.5148 125.723 50.116 125.527 50.787C125.331 51.4581 125.08 52.1571 124.772 52.884L118.942 66.5987C118.775 66.9901 118.691 67.2977 118.691 67.5214C118.691 67.801 118.803 67.9408 119.026 67.9408C119.334 67.9408 119.669 67.6612 120.033 67.102L128.798 54.0584C129.693 52.7163 130.49 51.5839 131.189 50.6612C131.916 49.7105 132.587 48.9416 133.202 48.3544C133.845 47.7673 134.447 47.3479 135.006 47.0962C135.593 46.8166 136.194 46.6768 136.809 46.6768C137.872 46.6768 138.683 46.8865 139.242 47.3059C139.801 47.7253 140.081 48.3405 140.081 49.1513C140.081 49.6266 140.011 50.1299 139.871 50.6612C139.731 51.1645 139.591 51.6118 139.451 52.0033L132.154 69.8701C132.042 70.1497 131.944 70.4293 131.86 70.7089C131.776 70.9605 131.734 71.1842 131.734 71.3799C131.734 71.7155 131.804 71.9391 131.944 72.051C132.112 72.1628 132.322 72.2187 132.573 72.2187C132.965 72.2187 133.44 72.023 133.999 71.6316C134.558 71.2401 135.146 70.6669 135.761 69.912L143.436 60.4334L144.484 61.2722L135.215 72.722C134.544 73.5609 133.915 74.2599 133.328 74.8191C132.741 75.3783 132.182 75.8257 131.65 76.1612C131.147 76.4687 130.63 76.6924 130.099 76.8322C129.595 76.972 129.078 77.0419 128.547 77.0419C127.708 77.0419 127.009 76.8043 126.45 76.3289C125.891 75.8257 125.611 75.1965 125.611 74.4416C125.611 73.7426 125.779 72.9178 126.114 71.9671C126.45 71.0164 126.911 69.8561 127.498 68.486L134.293 52.4227C134.377 52.227 134.419 52.0173 134.419 51.7936C134.419 51.2344 134.153 50.9548 133.622 50.9548C133.398 50.9548 133.146 51.0247 132.867 51.1645C132.615 51.3043 132.349 51.5839 132.07 52.0033L118.229 72.5543C117.139 74.176 116.174 75.3363 115.335 76.0354C114.525 76.7064 113.728 77.0419 112.945 77.0419C111.659 77.0419 111.016 76.4268 111.016 75.1965C111.016 74.5535 111.183 73.7566 111.519 72.8059C111.826 71.8553 112.26 70.7089 112.819 69.3668L119.781 52.9679ZM156.535 75.3224C157.541 75.3224 158.632 75.0987 159.806 74.6513C161.008 74.2039 162.351 73.435 163.832 72.3446C165.342 71.2541 167.006 69.7862 168.823 67.9408C170.641 66.0674 172.682 63.7187 174.947 60.8947L175.995 61.7336C174.066 64.1941 172.291 66.2911 170.669 68.0247C169.047 69.7303 167.565 71.1562 166.223 72.3026C164.881 73.4211 163.665 74.3018 162.574 74.9449C161.512 75.56 160.561 76.0214 159.722 76.3289C158.883 76.6365 158.143 76.8322 157.499 76.9161C156.856 76.972 156.311 77 155.864 77C155.193 77 154.438 76.9021 153.599 76.7064C152.76 76.5107 151.977 76.1612 151.25 75.6579C150.523 75.1266 149.922 74.4137 149.447 73.5189C148.943 72.6242 148.692 71.4638 148.692 70.0378C148.692 67.9408 149.041 65.9137 149.74 63.9564C150.411 61.9992 151.306 60.1678 152.425 58.4622C153.543 56.7286 154.801 55.1488 156.199 53.7229C157.625 52.2969 159.065 51.0806 160.519 50.074C162.001 49.0395 163.427 48.2426 164.797 47.6834C166.167 47.1242 167.369 46.8446 168.404 46.8446C169.886 46.8446 170.948 47.2919 171.592 48.1867C172.263 49.0535 172.598 50.1719 172.598 51.5419C172.598 52.8002 172.318 54.0164 171.759 55.1908C171.2 56.3651 170.459 57.4836 169.536 58.5461C168.614 59.5806 167.537 60.5452 166.307 61.44C165.105 62.3067 163.832 63.0617 162.49 63.7048C161.176 64.3199 159.834 64.8092 158.464 65.1727C157.122 65.5362 155.864 65.7179 154.689 65.7179C154.326 66.7804 154.046 67.787 153.851 68.7377C153.627 69.6883 153.515 70.5691 153.515 71.3799C153.515 72.8898 153.809 73.9243 154.396 74.4836C154.983 75.0428 155.696 75.3224 156.535 75.3224ZM167.02 48.5641C166.265 48.5641 165.356 49.0535 164.294 50.0321C163.231 50.9827 162.127 52.227 160.981 53.7648C159.862 55.3026 158.772 57.0222 157.709 58.9235C156.675 60.7969 155.808 62.6702 155.109 64.5436C157.094 64.2081 158.897 63.537 160.519 62.5304C162.169 61.4959 163.567 60.3076 164.713 58.9655C165.888 57.5954 166.782 56.1554 167.397 54.6456C168.041 53.1357 168.362 51.7516 168.362 50.4934C168.362 49.7385 168.236 49.2352 167.985 48.9836C167.733 48.7039 167.411 48.5641 167.02 48.5641ZM178.987 75.1546C178.987 74.7352 179.154 74.2319 179.49 73.6447C179.825 73.0576 180.245 72.5123 180.748 72.009C181.251 71.4778 181.783 71.0304 182.342 70.6669C182.901 70.2755 183.404 70.0798 183.852 70.0798C184.411 70.0798 184.746 70.2615 184.858 70.625C184.942 70.9605 184.97 71.338 184.942 71.7574C184.886 72.1768 184.858 72.5683 184.858 72.9317C184.858 73.2673 185.068 73.435 185.487 73.435C186.662 73.435 187.752 72.9317 188.759 71.9252C189.765 70.9186 190.632 69.6324 191.359 68.0666C192.114 66.5008 192.701 64.7533 193.121 62.824C193.54 60.8668 193.75 58.9655 193.75 57.1201C193.75 55.5263 193.582 54.2262 193.246 53.2196C192.939 52.185 192.589 51.3043 192.198 50.5773C191.247 51.9474 190.003 53.625 188.465 55.6102C186.955 57.5954 185.026 60.0839 182.677 63.0757L181.629 62.2368C183.866 59.3849 185.781 56.9243 187.375 54.8553C188.968 52.7582 190.338 50.8849 191.485 49.2352C191.345 48.9276 191.219 48.648 191.107 48.3964C191.024 48.1168 190.982 47.8372 190.982 47.5576C190.982 46.9145 191.163 46.2574 191.527 45.5863C191.89 44.8873 192.352 44.2582 192.911 43.699C193.47 43.1398 194.085 42.6924 194.756 42.3569C195.455 41.9934 196.126 41.8117 196.769 41.8117C197.105 41.8117 197.468 41.9095 197.86 42.1053C198.251 42.273 198.447 42.6505 198.447 43.2377C198.447 43.4334 198.349 43.699 198.153 44.0345C197.958 44.3701 197.734 44.7196 197.482 45.0831C197.259 45.4465 197.049 45.7961 196.853 46.1316C196.658 46.4671 196.56 46.7327 196.56 46.9285C196.56 47.1521 196.644 47.5156 196.811 48.0189C197.007 48.5222 197.203 49.1653 197.399 49.9482C197.622 50.7311 197.818 51.6398 197.986 52.6743C198.181 53.6809 198.279 54.8133 198.279 56.0715C198.279 57.6373 198.084 59.2031 197.692 60.7689C197.301 62.3067 196.769 63.8026 196.098 65.2566C195.427 66.6826 194.63 68.0387 193.708 69.3248C192.785 70.611 191.792 71.7574 190.73 72.764C192.827 71.6176 195.036 70.0658 197.357 68.1086C199.677 66.1513 202.04 63.6488 204.445 60.6012L205.493 61.44C203.815 63.5929 202.082 65.5082 200.292 67.1859C198.503 68.8635 196.713 70.3314 194.924 71.5896C193.135 72.8479 191.359 73.8964 189.598 74.7352C187.864 75.5461 186.2 76.1612 184.607 76.5806C184.131 76.7204 183.67 76.8322 183.223 76.9161C182.747 76.972 182.272 77 181.797 77C181.489 77 181.167 76.986 180.832 76.9581C180.496 76.9021 180.189 76.8043 179.909 76.6645C179.63 76.5247 179.406 76.3429 179.238 76.1192C179.07 75.8676 178.987 75.5461 178.987 75.1546ZM208.191 75.1546C208.191 74.7352 208.358 74.2319 208.694 73.6447C209.03 73.0576 209.449 72.5123 209.952 72.009C210.456 71.4778 210.987 71.0304 211.546 70.6669C212.105 70.2755 212.608 70.0798 213.056 70.0798C213.615 70.0798 213.951 70.2615 214.062 70.625C214.146 70.9605 214.174 71.338 214.146 71.7574C214.09 72.1768 214.062 72.5683 214.062 72.9317C214.062 73.2673 214.272 73.435 214.692 73.435C215.866 73.435 216.956 72.9317 217.963 71.9252C218.97 70.9186 219.836 69.6324 220.563 68.0666C221.318 66.5008 221.905 64.7533 222.325 62.824C222.744 60.8668 222.954 58.9655 222.954 57.1201C222.954 55.5263 222.786 54.2262 222.451 53.2196C222.143 52.185 221.794 51.3043 221.402 50.5773C220.451 51.9474 219.207 53.625 217.669 55.6102C216.159 57.5954 214.23 60.0839 211.882 63.0757L210.833 62.2368C213.07 59.3849 214.985 56.9243 216.579 54.8553C218.173 52.7582 219.543 50.8849 220.689 49.2352C220.549 48.9276 220.423 48.648 220.312 48.3964C220.228 48.1168 220.186 47.8372 220.186 47.5576C220.186 46.9145 220.368 46.2574 220.731 45.5863C221.095 44.8873 221.556 44.2582 222.115 43.699C222.674 43.1398 223.289 42.6924 223.96 42.3569C224.659 41.9934 225.331 41.8117 225.974 41.8117C226.309 41.8117 226.673 41.9095 227.064 42.1053C227.456 42.273 227.651 42.6505 227.651 43.2377C227.651 43.4334 227.553 43.699 227.358 44.0345C227.162 44.3701 226.938 44.7196 226.687 45.0831C226.463 45.4465 226.253 45.7961 226.058 46.1316C225.862 46.4671 225.764 46.7327 225.764 46.9285C225.764 47.1521 225.848 47.5156 226.016 48.0189C226.211 48.5222 226.407 49.1653 226.603 49.9482C226.826 50.7311 227.022 51.6398 227.19 52.6743C227.386 53.6809 227.483 54.8133 227.483 56.0715C227.483 57.6373 227.288 59.2031 226.896 60.7689C226.505 62.3067 225.974 63.8026 225.303 65.2566C224.632 66.6826 223.835 68.0387 222.912 69.3248C221.989 70.611 220.997 71.7574 219.934 72.764C222.031 71.6176 224.24 70.0658 226.561 68.1086C228.882 66.1513 231.244 63.6488 233.649 60.6012L234.697 61.44C233.02 63.5929 231.286 65.5082 229.497 67.1859C227.707 68.8635 225.918 70.3314 224.128 71.5896C222.339 72.8479 220.563 73.8964 218.802 74.7352C217.068 75.5461 215.405 76.1612 213.811 76.5806C213.335 76.7204 212.874 76.8322 212.427 76.9161C211.951 76.972 211.476 77 211.001 77C210.693 77 210.372 76.986 210.036 76.9581C209.701 76.9021 209.393 76.8043 209.113 76.6645C208.834 76.5247 208.61 76.3429 208.442 76.1192C208.275 75.8676 208.191 75.5461 208.191 75.1546Z" fill="white"/>
<path d="M35.9359 116.21H11.2145V125.751H29.864V135.727H11.2145V155.244H1.23917V106.235H35.9359V116.21ZM79.2826 135.789C79.2826 136.119 79.2413 136.532 79.1587 137.028C79.1174 137.524 79.0554 138.019 78.9728 138.515C78.8902 138.969 78.787 139.382 78.663 139.754C78.5804 140.126 78.5185 140.374 78.4772 140.498C77.6511 143.141 76.5151 145.392 75.0695 147.251C73.6238 149.11 71.9922 150.617 70.1747 151.774C68.3986 152.972 66.5192 153.839 64.5365 154.376C62.5951 154.955 60.6951 155.244 58.8363 155.244C56.895 155.244 54.8916 154.934 52.8264 154.314C50.8024 153.736 48.8817 152.807 47.0642 151.526C45.2468 150.246 43.6152 148.635 42.1695 146.693C40.7651 144.711 39.7118 142.377 39.0096 139.692C38.927 139.527 38.8444 139.258 38.7618 138.887C38.7205 138.515 38.6585 138.143 38.5759 137.771C38.5346 137.358 38.4933 136.966 38.452 136.594C38.4107 136.222 38.39 135.913 38.39 135.665V106.235H48.3654V135.479C48.3654 135.603 48.386 135.789 48.4273 136.037C48.4686 136.284 48.5099 136.532 48.5512 136.78C48.5925 137.028 48.6338 137.255 48.6751 137.462C48.7578 137.627 48.7991 137.73 48.7991 137.771C49.2121 139.093 49.7904 140.229 50.5339 141.179C51.2774 142.129 52.0829 142.914 52.9503 143.534C53.859 144.153 54.809 144.607 55.8004 144.897C56.833 145.186 57.845 145.33 58.8363 145.33C59.7864 145.33 60.757 145.186 61.7484 144.897C62.781 144.607 63.7517 144.174 64.6604 143.595C65.5692 142.976 66.3746 142.191 67.0768 141.241C67.8203 140.291 68.4192 139.134 68.8736 137.771C68.8736 137.73 68.8943 137.627 68.9356 137.462C69.0182 137.255 69.0801 137.028 69.1214 136.78C69.204 136.532 69.266 136.305 69.3073 136.099C69.3486 135.851 69.3693 135.644 69.3693 135.479V106.235H79.2826V135.789ZM116.47 155.244H81.7731V106.235H91.7484V145.268H116.47V155.244ZM153.621 155.244H118.924V106.235H128.899V145.268H153.621V155.244ZM187.488 140.683C187.488 141.964 187.302 143.265 186.93 144.587C186.6 145.909 186.063 147.189 185.319 148.428C184.576 149.667 183.584 150.803 182.345 151.836C181.147 152.869 179.681 153.715 177.946 154.376C177.74 154.459 177.492 154.541 177.203 154.624C176.913 154.707 176.645 154.789 176.397 154.872C176.025 154.955 175.571 155.037 175.034 155.12C174.538 155.202 174.249 155.244 174.167 155.244H161.093V145.33H173.547C173.63 145.33 173.795 145.289 174.043 145.206C174.291 145.124 174.518 145.041 174.724 144.959C175.798 144.504 176.542 143.864 176.955 143.038C177.368 142.17 177.574 141.386 177.574 140.683C177.574 139.857 177.347 139.011 176.893 138.143C176.438 137.276 175.612 136.677 174.415 136.346C174.208 136.305 173.878 136.243 173.423 136.16C173.01 136.037 172.535 135.933 171.998 135.851C171.502 135.768 171.007 135.685 170.511 135.603C170.015 135.52 169.623 135.458 169.334 135.417C169.127 135.376 168.88 135.355 168.59 135.355C168.343 135.314 168.074 135.252 167.785 135.169C167.496 135.128 167.124 135.025 166.67 134.859C166.215 134.694 165.74 134.508 165.245 134.302C164.749 134.095 164.253 133.889 163.758 133.682C163.303 133.434 162.932 133.207 162.642 133.001C161.403 132.174 160.371 131.266 159.544 130.274C158.718 129.242 158.037 128.209 157.5 127.177C157.004 126.103 156.632 125.029 156.385 123.955C156.178 122.839 156.075 121.786 156.075 120.795C156.075 118.275 156.529 116.169 157.438 114.475C158.388 112.781 159.544 111.274 160.908 109.952C160.949 109.911 161.031 109.828 161.155 109.704C161.321 109.58 161.486 109.456 161.651 109.332C161.858 109.167 162.043 109.023 162.209 108.899C162.415 108.734 162.56 108.63 162.642 108.589C162.89 108.424 163.159 108.259 163.448 108.093C163.737 107.928 164.047 107.763 164.377 107.598C164.584 107.515 164.79 107.432 164.997 107.35C165.203 107.267 165.41 107.185 165.616 107.102C166.071 106.937 166.69 106.751 167.475 106.544C168.26 106.338 168.942 106.235 169.52 106.235H182.469V116.21H170.015C169.974 116.21 169.809 116.251 169.52 116.334C169.272 116.375 169.045 116.437 168.838 116.52C167.764 117.015 167.021 117.656 166.608 118.44C166.236 119.225 166.05 120.01 166.05 120.795C166.05 121.745 166.319 122.654 166.856 123.521C167.393 124.388 168.281 124.987 169.52 125.318C170.098 125.483 170.986 125.648 172.184 125.813C173.382 125.979 174.476 126.144 175.468 126.309C176.129 126.433 176.872 126.64 177.698 126.929C178.524 127.218 179.227 127.528 179.805 127.858C181.251 128.643 182.448 129.552 183.398 130.584C184.39 131.617 185.175 132.711 185.753 133.868C186.372 134.983 186.806 136.14 187.054 137.338C187.343 138.494 187.488 139.61 187.488 140.683ZM234.445 116.21H217.22V155.244H207.245V116.21H189.958V106.235H234.445V116.21ZM285.92 130.77C285.92 134.198 285.28 137.4 284 140.374C282.719 143.348 280.964 145.929 278.733 148.118C276.544 150.308 273.962 152.043 270.988 153.323C268.014 154.603 264.834 155.244 261.447 155.244C258.06 155.244 254.879 154.603 251.905 153.323C248.931 152.043 246.329 150.308 244.098 148.118C241.868 145.929 240.112 143.348 238.832 140.374C237.551 137.4 236.911 134.198 236.911 130.77C236.911 127.383 237.551 124.202 238.832 121.228C240.112 118.254 241.868 115.652 244.098 113.422C246.329 111.191 248.931 109.436 251.905 108.155C254.879 106.875 258.06 106.235 261.447 106.235C264.834 106.235 268.014 106.895 270.988 108.217C274.004 109.498 276.606 111.253 278.795 113.484C280.984 115.714 282.719 118.316 284 121.29C285.28 124.264 285.92 127.424 285.92 130.77ZM276.007 130.77C276.007 129.531 275.821 128.25 275.449 126.929C275.078 125.607 274.499 124.326 273.715 123.087C272.971 121.848 272 120.712 270.803 119.68C269.605 118.647 268.18 117.8 266.527 117.139C266.28 117.015 265.928 116.912 265.474 116.829C265.02 116.706 264.545 116.602 264.049 116.52C263.553 116.437 263.058 116.375 262.562 116.334C262.108 116.251 261.736 116.21 261.447 116.21C260.208 116.21 258.906 116.396 257.543 116.767C256.18 117.139 254.859 117.738 253.578 118.564C252.339 119.349 251.203 120.361 250.17 121.6C249.138 122.839 248.312 124.326 247.692 126.061C247.485 126.681 247.3 127.445 247.134 128.354C246.969 129.221 246.887 130.027 246.887 130.77C246.887 132.711 247.258 134.57 248.002 136.346C248.787 138.123 249.819 139.671 251.1 140.993C252.421 142.315 253.97 143.368 255.747 144.153C257.523 144.938 259.423 145.33 261.447 145.33C263.429 145.33 265.288 144.959 267.023 144.215C268.799 143.43 270.348 142.377 271.67 141.055C273.033 139.733 274.086 138.205 274.83 136.47C275.615 134.694 276.007 132.794 276.007 130.77ZM322.231 120.795C322.231 122.034 322.046 123.335 321.674 124.698C321.343 126.02 320.806 127.3 320.063 128.54C319.319 129.737 318.328 130.873 317.089 131.947C315.891 132.98 314.425 133.827 312.69 134.488C312.483 134.57 312.235 134.653 311.946 134.735C311.657 134.818 311.389 134.901 311.141 134.983C310.769 135.066 310.315 135.148 309.778 135.231C309.282 135.314 308.993 135.355 308.91 135.355H298.377V155.244H288.402V106.235H308.786C308.869 106.235 309.158 106.276 309.654 106.358C310.15 106.441 310.583 106.524 310.955 106.606C312.029 106.813 313.124 107.185 314.239 107.722C315.354 108.259 316.449 109.002 317.523 109.952C318.514 110.902 319.319 111.893 319.939 112.926C320.6 113.959 321.075 114.909 321.364 115.776C321.447 116.024 321.529 116.313 321.612 116.644C321.736 116.974 321.839 117.284 321.922 117.573C322.046 118.193 322.128 118.647 322.169 118.936C322.211 119.184 322.231 119.39 322.231 119.556C322.231 119.68 322.231 119.824 322.231 119.989C322.231 120.155 322.231 120.423 322.231 120.795ZM312.318 120.795C312.318 120.093 312.112 119.328 311.698 118.502C311.285 117.635 310.542 116.974 309.468 116.52C309.261 116.437 309.014 116.375 308.724 116.334C308.435 116.251 308.249 116.21 308.167 116.21H298.377V125.38H308.167C308.249 125.38 308.435 125.338 308.724 125.256C309.014 125.173 309.261 125.091 309.468 125.008C310.542 124.554 311.285 123.934 311.698 123.149C312.112 122.323 312.318 121.538 312.318 120.795Z" fill="white"/>
</svg>
