<svg width="331" height="315" viewBox="0 0 331 315" fill="none" xmlns="http://www.w3.org/2000/svg">
<path fill-rule="evenodd" clip-rule="evenodd" d="M165.018 12.445C196.548 11.6716 229.406 -9.03529 257.452 5.39287C285.614 19.8808 293.309 55.8253 305.862 84.9017C318.161 113.389 335.819 142.477 329.775 172.912C323.804 202.981 297.205 223.545 274.285 243.904C253.828 262.077 229.667 273.077 204.619 284.091C175.842 296.744 147.057 321.972 116.897 313.108C86.7367 304.244 78.4484 265.799 58.8223 241.242C40.1659 217.899 12.5174 201.073 4.37711 172.32C-4.2304 141.917 0.467877 108.808 13.1326 79.8596C25.9132 50.6458 46.3074 22.7931 75.4526 9.8569C103.316 -2.51044 134.542 13.1925 165.018 12.445Z" fill="#800003"/>
<path d="M247.803 129.943C247.803 130.928 247.511 131.891 246.963 132.711C246.416 133.53 245.638 134.169 244.727 134.546C243.817 134.923 242.815 135.022 241.848 134.829C240.882 134.637 239.994 134.163 239.297 133.466C238.6 132.769 238.126 131.881 237.934 130.915C237.741 129.948 237.84 128.946 238.217 128.036C238.594 127.125 239.233 126.347 240.052 125.8C240.872 125.252 241.835 124.96 242.82 124.96C244.142 124.96 245.409 125.485 246.344 126.419C247.278 127.354 247.803 128.621 247.803 129.943Z" fill="#EBEBEB"/>
<path d="M231.779 133.695C233.853 131.621 233.853 128.259 231.779 126.186C229.706 124.112 226.344 124.112 224.27 126.186C222.197 128.259 222.197 131.621 224.27 133.695C226.344 135.769 229.706 135.769 231.779 133.695Z" fill="#EBEBEB"/>
<path d="M216.655 126.184C219.766 126.184 222.287 123.663 222.287 120.553C222.287 117.442 219.766 114.921 216.655 114.921C213.545 114.921 211.023 117.442 211.023 120.553C211.023 123.663 213.545 126.184 216.655 126.184Z" fill="#EBEBEB"/>
<path d="M220.152 107.166C220.727 103.967 218.599 100.908 215.4 100.333C212.201 99.7586 209.142 101.886 208.567 105.085C207.993 108.285 210.121 111.344 213.32 111.918C216.519 112.493 219.578 110.365 220.152 107.166Z" fill="#EBEBEB"/>
<path d="M221.553 99.5554C224.911 99.5554 227.634 96.8331 227.634 93.475C227.634 90.1168 224.911 87.3945 221.553 87.3945C218.195 87.3945 215.473 90.1168 215.473 93.475C215.473 96.8331 218.195 99.5554 221.553 99.5554Z" fill="#EBEBEB"/>
<path d="M237.956 94.6128C241.334 93.2011 242.928 89.3181 241.516 85.9399C240.104 82.5617 236.221 80.9676 232.843 82.3794C229.465 83.7911 227.871 87.6741 229.283 91.0523C230.694 94.4305 234.577 96.0246 237.956 94.6128Z" fill="#EBEBEB"/>
<path d="M258.501 121.536C259.109 118.948 257.505 116.357 254.917 115.748C252.329 115.14 249.737 116.745 249.129 119.333C248.521 121.921 250.125 124.512 252.713 125.12C255.301 125.729 257.892 124.124 258.501 121.536Z" fill="#EBEBEB"/>
<path d="M257.986 110.106C260.289 109.223 261.44 106.641 260.558 104.339C259.676 102.036 257.094 100.884 254.791 101.766C252.488 102.648 251.336 105.23 252.218 107.533C253.101 109.836 255.683 110.988 257.986 110.106Z" fill="#EBEBEB"/>
<path d="M253.006 93.9773C253.366 91.7529 251.855 89.6577 249.631 89.2974C247.407 88.9372 245.311 90.4483 244.951 92.6727C244.591 94.897 246.102 96.9922 248.326 97.3525C250.551 97.7128 252.646 96.2016 253.006 93.9773Z" fill="#EBEBEB"/>
<path fill-rule="evenodd" clip-rule="evenodd" d="M104.786 69.3386C106 70.6371 107.037 72.0907 107.869 73.6614H112.788L114.62 81.5786L110.186 83.7163C110.127 85.4927 109.833 87.2534 109.31 88.9522L112.804 92.42L108.481 99.3238L103.836 97.7034C102.541 98.9196 101.087 99.9548 99.5135 100.781V105.705L91.5963 107.531L89.485 103.098C87.7081 103.043 85.9468 102.748 84.2491 102.222L80.7866 105.716L73.8827 101.398L75.5031 96.7533C74.2893 95.4548 73.2528 94.0012 72.4207 92.4305H67.5014L65.6699 84.5133L70.1036 82.3756C70.1628 80.5992 70.4575 78.8386 70.9798 77.1397L67.4909 73.6719L71.8084 66.7681L76.4532 68.3885C77.7509 67.1751 79.2047 66.1403 80.776 65.3113V60.3868L88.6933 58.5605L90.8045 62.9942C92.5812 63.0509 94.3422 63.3456 96.0405 63.8704L99.5029 60.3762L106.412 64.6938L104.786 69.3386ZM95.0746 75.836C93.6096 74.9203 91.906 74.4596 90.1792 74.5121C88.4524 74.5647 86.78 75.128 85.3734 76.131C83.9667 77.1339 82.8891 78.5314 82.2767 80.1468C81.6642 81.7622 81.5446 83.5229 81.9328 85.2063C82.3209 86.8897 83.1996 88.4202 84.4576 89.6043C85.7155 90.7884 87.2964 91.5729 89.0002 91.8586C90.704 92.1442 92.4542 91.9183 94.0296 91.2093C95.605 90.5004 96.9348 89.3402 97.8509 87.8755C98.46 86.9029 98.8713 85.8198 99.0614 84.6881C99.2516 83.5564 99.2167 82.3983 98.9588 81.2801C98.701 80.1619 98.2252 79.1055 97.5587 78.1713C96.8922 77.2372 96.048 76.4436 95.0746 75.836Z" fill="white"/>
<path fill-rule="evenodd" clip-rule="evenodd" d="M109.584 35.9643C110.255 36.6851 110.828 37.4907 111.289 38.3606H114.013L115.026 42.752L112.567 43.9238C112.536 44.9088 112.372 45.8853 112.081 46.8268L114.013 48.7428L111.622 52.5641L109.051 51.6669C108.332 52.3391 107.526 52.9124 106.655 53.3717V56.1005L102.264 57.1086L101.081 54.6543C100.098 54.6233 99.1233 54.4599 98.1836 54.1687L96.2624 56.1058L92.441 53.7148L93.3383 51.1443C92.6661 50.4248 92.0927 49.619 91.6334 48.748H88.9099L87.8965 44.3566L90.3667 43.1954C90.3982 42.2121 90.5615 41.2375 90.8523 40.2977L88.9204 38.3817L91.3062 34.5551L93.8819 35.4576C94.5985 34.7843 95.4028 34.2108 96.2729 33.7528V31.024L100.654 30L101.841 32.4596C102.824 32.4915 103.799 32.653 104.739 32.9399L106.66 31.0081L110.482 33.3991L109.584 35.9696V35.9643ZM104.206 39.564C103.395 39.0568 102.452 38.8015 101.496 38.8303C100.54 38.8591 99.6146 39.1707 98.8358 39.7257C98.0571 40.2808 97.4604 41.0543 97.1213 41.9485C96.7822 42.8427 96.7158 43.8173 96.9307 44.7492C97.1456 45.6811 97.632 46.5283 98.3284 47.1837C99.0249 47.8391 99.9 48.2733 100.843 48.4313C101.786 48.5892 102.755 48.464 103.627 48.0713C104.499 47.6785 105.235 47.0361 105.742 46.2251C106.421 45.138 106.641 43.8257 106.353 42.5766C106.065 41.3275 105.293 40.2439 104.206 39.564Z" fill="white"/>
<path d="M71.3577 44.0877C71.3577 44.0877 71.4369 44.1194 71.5794 44.2091C71.7825 44.3386 71.9702 44.4909 72.1389 44.663C72.6772 45.207 73.0469 45.8949 73.2032 46.6441C73.3596 47.3933 73.2961 48.1717 73.0203 48.8855C72.7608 49.554 72.327 50.1409 71.7641 50.5851C71.1358 51.0791 70.3756 51.3765 69.5789 51.4402C68.7214 51.5093 67.8645 51.3001 67.1353 50.8437C66.406 50.3873 65.8433 49.7081 65.5306 48.9067C65.3751 48.532 65.2824 48.1344 65.2561 47.7296C65.2254 47.3405 65.2539 46.949 65.3406 46.5684C65.4949 45.8659 65.8338 45.2173 66.3223 44.6894C66.7492 44.2338 67.2771 43.8849 67.8635 43.6707C68.7167 43.365 69.6495 43.365 70.5026 43.6707C70.7321 43.7443 70.9518 43.8454 71.1571 43.9716C71.2943 44.0613 71.3682 44.1088 71.363 44.1194C71.3577 44.1299 71.0621 43.9452 70.471 43.7605C69.6373 43.5092 68.7434 43.5445 67.9322 43.8607C67.3458 44.0914 66.8252 44.463 66.4165 44.9426C66.0078 45.4222 65.7235 45.9951 65.5887 46.6107C65.4333 47.3474 65.5013 48.1138 65.7839 48.8117C66.0828 49.5611 66.6113 50.1966 67.2935 50.6273C67.981 51.0509 68.784 51.2484 69.5895 51.1921C69.9701 51.1674 70.3443 51.0818 70.6979 50.9388C71.0406 50.8143 71.3613 50.6362 71.648 50.4109C72.1529 50.0215 72.5518 49.5115 72.8082 48.9277C73.0646 48.344 73.1702 47.7051 73.1153 47.0699C73.0455 46.2019 72.6868 45.3824 72.0966 44.7422C71.648 44.283 71.3419 44.1088 71.3577 44.0877Z" fill="white"/>
<path d="M75.7135 41.174C75.7135 41.174 75.7135 41.1265 75.7505 41.042C75.7874 40.9576 75.8244 40.8098 75.8824 40.6409L76.4102 39.0574V39.1049L73.3014 37.189H73.3806L71.8341 38.7724L71.8024 38.8041H71.7602C71.0031 38.5731 70.2184 38.4453 69.4272 38.424H69.3903V38.3818L68.4244 36.3972L68.5247 36.4447L64.9672 37.2734L65.0411 37.1784C65.0411 37.8593 65.0411 38.6141 65.0411 39.3847V39.448H64.983C64.2883 39.819 63.6458 40.2804 63.0723 40.8203L63.0248 40.8626H62.9615L60.8766 40.1394L61.0086 40.0919L59.0715 43.1955V43.053L60.6549 44.6364L60.7077 44.6839V44.7526C60.4783 45.5047 60.3487 46.2838 60.3224 47.0697V47.1436L60.2538 47.1752L58.2006 48.0884L58.2692 47.9511C58.5278 49.0754 58.797 50.2841 59.0926 51.5086L58.9712 51.4136H61.1775H61.2513L61.2883 51.4822C61.6544 52.1774 62.1124 52.82 62.6501 53.3929C62.6501 53.451 62.6501 53.2715 62.6765 53.5196V53.5513V53.6199L62.6289 53.7518L62.5392 54.0105L62.3545 54.5383L61.9903 55.5939L61.9428 55.4461L65.0358 57.3832H64.8827L66.4662 55.7998L66.519 55.747H66.5876C67.3389 55.9806 68.1183 56.1119 68.9047 56.1376H68.9786L69.0102 56.2009C69.3322 56.8712 69.6542 57.5363 69.9656 58.1908L69.8336 58.1274L73.3964 57.3093L73.3067 57.4202C73.3067 56.6707 73.3067 55.937 73.3067 55.2139V55.1453L73.3647 55.1136C74.0631 54.7475 74.7093 54.2895 75.286 53.7518L75.3335 53.7096H75.3915L77.5028 54.438L77.3814 54.4855C78.0623 53.3929 78.7115 52.3742 79.3238 51.3925V51.5086L77.7403 49.9252L77.6981 49.8829V49.8354C77.9346 49.081 78.0678 48.298 78.094 47.5078V47.4603H78.1362L80.1313 46.5049L80.0891 46.5894C79.7777 45.2118 79.5138 44.0347 79.2868 43.0266L79.3396 43.0688H77.07C76.7892 42.5535 76.4605 42.0658 76.0883 41.6121C75.9669 41.4695 75.8771 41.3534 75.8085 41.269C75.7748 41.2338 75.7431 41.1968 75.7135 41.1581C75.7135 41.1581 75.7557 41.1898 75.8244 41.2584C75.893 41.327 75.9933 41.4379 76.1199 41.5857C76.5075 42.0479 76.8471 42.5484 77.1333 43.0794H77.0964H79.3027H79.3502V43.1216C79.5824 44.1297 79.878 45.3015 80.1841 46.6791V46.7372H80.1313L78.1467 47.7083L78.189 47.6344C78.1664 48.4397 78.0368 49.2385 77.8037 50.0096V49.9199L79.3871 51.4664L79.4399 51.5244L79.4029 51.5878L77.4711 54.6861L77.4289 54.76L77.3497 54.7283L75.2385 54.0052H75.344C74.7571 54.5572 74.0984 55.0277 73.3858 55.4039L73.4439 55.3089C73.4439 56.032 73.4439 56.7657 73.4439 57.5152V57.6049H73.3542L69.8125 58.4177H69.7228L69.6806 58.328C69.3639 57.6788 69.0472 57.0137 68.7199 56.3434L68.8255 56.412C68.0177 56.3854 67.217 56.2505 66.4451 56.0109H66.5665L65.0147 57.5943L64.9408 57.663L64.8616 57.6102L61.7633 55.6731L61.6789 55.6203L61.7105 55.5253L62.0747 54.4697L62.2542 53.9418L62.3492 53.6779L62.3914 53.546V53.4826V53.451C62.4442 53.699 62.3914 53.5196 62.4178 53.5724C61.8633 52.9855 61.3926 52.3247 61.0191 51.6089L61.1247 51.6722H58.9184H58.8181V51.5772C58.5384 50.3527 58.2586 49.144 58 48.0145V47.9195L58.0845 47.8772L60.0902 46.8902L60.0268 46.9958C60.0537 46.1884 60.1868 45.388 60.4227 44.6153L60.4543 44.7315L58.8709 43.148L58.8023 43.0847L58.8498 43.0055L60.8397 39.96L60.8872 39.8861H60.9716L63.0512 40.6198H62.9456C63.5357 40.0706 64.1959 39.602 64.9091 39.2263L64.8563 39.3161C64.8563 38.5454 64.8563 37.7907 64.8563 37.1098V37.0306H64.9302L68.493 36.2178H68.5616L68.5933 36.2811C68.9258 36.9831 69.2478 37.6534 69.5486 38.271L69.4747 38.2288C70.2793 38.2581 71.0763 38.3948 71.8446 38.6352H71.7707L73.3542 37.0517L73.3911 37.0148H73.4333L76.5158 38.9677H76.5422L75.9827 40.5089C75.9194 40.6725 75.8719 40.8045 75.8349 40.9048C75.798 41.0051 75.7188 41.1687 75.7135 41.174Z" fill="white"/>
<path d="M187.723 83.052L186.525 81.6321L190.093 79.7162L173.514 74.1055L179.125 90.1722L181.167 87.4962C181.167 87.4962 191.892 106.371 181.167 117.846C170.516 129.241 157.943 126.771 157.943 126.771L160.366 134.688C160.366 134.688 180.127 136.092 190.731 118.231C201.335 100.37 187.723 83.052 187.723 83.052Z" fill="#D63844"/>
<path d="M138.013 122.658L139.211 124.078L135.638 125.994L152.216 131.605L146.606 115.538L144.568 118.214C144.568 118.214 133.838 99.3394 144.568 87.8647C155.22 76.4691 167.792 78.9393 167.792 78.9393L165.37 71.022C165.37 71.022 145.603 69.618 135.02 87.4688C124.437 105.32 138.013 122.658 138.013 122.658Z" fill="#D63844"/>
<path d="M187.723 83.052L186.525 81.6321L190.093 79.7162L173.514 74.1055L179.125 90.1722L181.167 87.4962C181.167 87.4962 191.892 106.371 181.167 117.846C170.516 129.241 157.943 126.771 157.943 126.771L160.366 134.688C160.366 134.688 180.127 136.092 190.731 118.231C201.335 100.37 187.723 83.052 187.723 83.052Z" fill="#D63844"/>
<path d="M138.013 122.658L139.211 124.078L135.638 125.994L152.216 131.605L146.606 115.538L144.568 118.214C144.568 118.214 133.838 99.3394 144.568 87.8647C155.22 76.4691 167.792 78.9393 167.792 78.9393L165.37 71.022C165.37 71.022 145.603 69.618 135.02 87.4688C124.437 105.32 138.013 122.658 138.013 122.658Z" fill="#D63844"/>
<g opacity="0.8">
<path opacity="0.8" d="M187.723 83.052L186.525 81.6321L190.093 79.7162L173.514 74.1055L179.125 90.1722L181.167 87.4962C181.167 87.4962 191.892 106.371 181.167 117.846C170.516 129.241 157.943 126.771 157.943 126.771L160.366 134.688C160.366 134.688 180.127 136.092 190.731 118.231C201.335 100.37 187.723 83.052 187.723 83.052Z" fill="white"/>
</g>
<g opacity="0.8">
<path opacity="0.8" d="M138.013 122.658L139.211 124.078L135.638 125.994L152.216 131.605L146.606 115.538L144.568 118.214C144.568 118.214 133.838 99.3394 144.568 87.8647C155.22 76.4691 167.792 78.9393 167.792 78.9393L165.37 71.022C165.37 71.022 145.603 69.618 135.02 87.4688C124.437 105.32 138.013 122.658 138.013 122.658Z" fill="white"/>
</g>
<path fill-rule="evenodd" clip-rule="evenodd" d="M172.321 93.4808C173.107 94.3221 173.776 95.2647 174.311 96.2835H177.478L178.66 101.419L175.794 102.807C175.756 103.957 175.564 105.097 175.224 106.196L177.488 108.439L174.691 112.904L171.682 111.849C170.845 112.637 169.903 113.309 168.885 113.844V117.011L163.765 118.204L162.382 115.332C161.24 115.294 160.107 115.104 159.015 114.768L156.772 117.027L152.301 114.235L153.357 111.226C152.571 110.387 151.902 109.446 151.367 108.429H148.2L147.018 103.293L149.884 101.91C149.922 100.76 150.114 99.6206 150.454 98.5215L148.195 96.2783L150.987 91.8077L153.995 92.8633C154.835 92.0763 155.775 91.4053 156.793 90.8682V87.7013L161.928 86.5137L163.311 89.385C164.461 89.421 165.601 89.6128 166.7 89.955L168.943 87.6907L173.414 90.4881L172.358 93.4914L172.321 93.4808ZM166.035 97.7034C165.087 97.1086 163.984 96.8084 162.866 96.8409C161.747 96.8735 160.663 97.2372 159.752 97.8861C158.84 98.5349 158.142 99.4398 157.745 100.486C157.348 101.532 157.27 102.673 157.522 103.763C157.773 104.853 158.343 105.844 159.158 106.611C159.974 107.377 160.998 107.884 162.102 108.068C163.206 108.251 164.339 108.103 165.359 107.642C166.378 107.181 167.238 106.428 167.829 105.478C168.223 104.849 168.489 104.148 168.612 103.416C168.735 102.684 168.712 101.935 168.546 101.211C168.379 100.488 168.071 99.8042 167.641 99.1996C167.21 98.595 166.664 98.0812 166.035 97.6875V97.7034Z" fill="#D63844"/>
<g opacity="0.6">
<path opacity="0.6" fill-rule="evenodd" clip-rule="evenodd" d="M166.036 97.6885C165.088 97.0956 163.985 96.7971 162.868 96.8307C161.75 96.8643 160.668 97.2285 159.757 97.8773C158.847 98.5261 158.149 99.4304 157.752 100.476C157.356 101.521 157.278 102.66 157.529 103.75C157.78 104.839 158.348 105.83 159.162 106.597C159.976 107.363 160.999 107.871 162.102 108.056C163.204 108.241 164.337 108.095 165.357 107.636C166.376 107.178 167.237 106.427 167.83 105.479C168.224 104.85 168.49 104.149 168.613 103.417C168.735 102.685 168.713 101.936 168.546 101.212C168.38 100.489 168.072 99.8052 167.641 99.2006C167.211 98.596 166.665 98.0822 166.036 97.6885Z" fill="white"/>
</g>
<path d="M84.4337 241.255L81.2246 253.11L91.649 254.065L93.8394 242.775L84.4337 241.255Z" fill="#D63844"/>
<path d="M91.9485 253.098C91.4395 253.13 90.9286 253.113 90.4231 253.045C89.4836 252.971 88.1905 252.829 86.7653 252.644L83.1234 252.153C82.6149 252.115 82.1113 252.028 81.6191 251.895C82.1283 251.863 82.6393 251.882 83.1445 251.953C84.084 252.027 85.3772 252.174 86.8023 252.354L90.4442 252.839C90.9522 252.882 91.4555 252.968 91.9485 253.098Z" fill="#263238"/>
<g opacity="0.6">
<path opacity="0.6" d="M81.2227 253.109L91.647 254.065L91.8159 253.194L81.5235 251.885L81.2332 252.993" fill="white"/>
</g>
<path d="M86.4023 252.587C86.6552 251.056 86.9864 249.539 87.3946 248.042C87.7238 246.526 88.1343 245.028 88.6244 243.556C88.3716 245.086 88.0404 246.603 87.6322 248.1C87.3001 249.616 86.8896 251.113 86.4023 252.587Z" fill="#263238"/>
<path d="M91.3746 253.019C91.5396 252.294 91.5396 251.542 91.3746 250.818C91.1924 250.038 90.7978 249.323 90.2345 248.754C89.5332 248.071 88.6181 247.649 87.643 247.561C86.6678 247.457 85.6857 247.68 84.8508 248.194C84.1757 248.626 83.6188 249.219 83.2304 249.92C82.8835 250.578 82.6599 251.294 82.5706 252.032C82.5706 252.032 82.5706 251.974 82.5706 251.873C82.5598 251.722 82.5598 251.571 82.5706 251.419C82.6405 250.866 82.8085 250.33 83.0668 249.836C83.4568 249.084 84.0374 248.447 84.7505 247.989C85.6237 247.436 86.6576 247.195 87.6852 247.302C88.6217 247.375 89.5083 247.754 90.2091 248.379C90.9099 249.005 91.3861 249.843 91.5646 250.765C91.6771 251.313 91.6771 251.879 91.5646 252.428C91.5331 252.575 91.4907 252.719 91.438 252.86C91.4063 252.971 91.3799 253.024 91.3746 253.019Z" fill="#263238"/>
<path d="M127.461 238.071L126.764 248.628C126.764 248.628 137.247 252.106 137.32 254.069L116.836 254.217L117.248 237.76L127.461 238.071Z" fill="#D63844"/>
<g opacity="0.6">
<path opacity="0.6" d="M120.482 247.53C120.284 247.583 120.112 247.708 120 247.881C119.888 248.053 119.843 248.261 119.875 248.464C119.921 248.665 120.042 248.841 120.214 248.955C120.386 249.069 120.596 249.113 120.799 249.076C121.01 249.019 121.192 248.885 121.309 248.7C121.426 248.516 121.47 248.294 121.432 248.079C121.362 247.875 121.216 247.706 121.024 247.608C120.832 247.509 120.61 247.489 120.403 247.551" fill="white"/>
</g>
<path d="M127.101 248.517C127.101 248.617 126.573 248.649 126.088 248.955C125.602 249.261 125.312 249.673 125.222 249.63C125.132 249.588 125.296 249.018 125.913 248.654C126.531 248.29 127.122 248.422 127.101 248.517Z" fill="#263238"/>
<path d="M129.217 249.468C129.217 249.563 128.8 249.721 128.447 250.133C128.093 250.544 127.982 250.993 127.887 250.982C127.792 250.972 127.739 250.407 128.188 249.927C128.637 249.446 129.217 249.373 129.217 249.468Z" fill="#263238"/>
<path d="M130.364 252.074C130.269 252.074 130.148 251.589 130.422 251.05C130.697 250.512 131.167 250.306 131.209 250.39C131.251 250.475 130.95 250.76 130.734 251.203C130.517 251.647 130.465 252.069 130.364 252.074Z" fill="#263238"/>
<path d="M126.99 246.095C126.948 246.185 126.494 246.037 125.934 246.058C125.375 246.079 124.926 246.243 124.879 246.153C124.831 246.063 125.264 245.725 125.934 245.71C126.605 245.694 127.043 246.021 126.99 246.095Z" fill="#263238"/>
<path d="M127.091 243.966C126.753 244.047 126.399 244.034 126.067 243.929C125.702 243.853 125.347 243.733 125.011 243.57C124.812 243.47 124.618 243.359 124.431 243.238C124.319 243.17 124.218 243.087 124.13 242.99C124.067 242.918 124.03 242.827 124.024 242.731C124.018 242.636 124.045 242.541 124.098 242.462C124.15 242.392 124.217 242.335 124.296 242.298C124.374 242.26 124.46 242.242 124.547 242.246C124.676 242.248 124.804 242.269 124.927 242.309C125.145 242.369 125.357 242.448 125.56 242.546C125.9 242.713 126.212 242.932 126.484 243.196C126.949 243.65 127.096 244.03 127.065 244.045C127.033 244.061 126.795 243.76 126.32 243.38C126.045 243.168 125.743 242.99 125.423 242.853C125.236 242.769 125.042 242.704 124.843 242.657C124.626 242.594 124.441 242.583 124.383 242.657C124.325 242.731 124.383 242.71 124.383 242.773C124.45 242.845 124.527 242.907 124.61 242.958C124.779 243.077 124.955 243.184 125.138 243.28C125.451 243.449 125.78 243.586 126.12 243.692C126.45 243.759 126.775 243.851 127.091 243.966Z" fill="#263238"/>
<path d="M126.96 244.109C126.776 243.809 126.691 243.458 126.717 243.106C126.707 242.498 126.864 241.899 127.171 241.375C127.231 241.242 127.324 241.126 127.442 241.039C127.559 240.952 127.697 240.897 127.842 240.879C127.933 240.882 128.022 240.911 128.097 240.964C128.172 241.016 128.23 241.089 128.264 241.174C128.312 241.296 128.344 241.424 128.359 241.555C128.391 241.784 128.391 242.017 128.359 242.246C128.291 242.631 128.13 242.993 127.889 243.302C127.472 243.829 127.05 243.93 127.045 243.893C127.039 243.856 127.367 243.661 127.689 243.159C127.873 242.87 127.994 242.544 128.042 242.204C128.069 242.008 128.069 241.809 128.042 241.613C128.016 241.396 127.937 241.217 127.858 241.238C127.778 241.259 127.578 241.391 127.488 241.56C127.382 241.727 127.292 241.903 127.219 242.088C127.094 242.414 127.015 242.757 126.987 243.106C126.918 243.713 127.013 244.093 126.96 244.109Z" fill="#263238"/>
<path d="M127.467 146.559L96.2516 146.321L81.1719 245.382L94.1245 247.029L110.724 165.576L115.691 247.319L115.707 247.562L129.715 247.319L127.467 146.559Z" fill="black"/>
<path d="M113.267 154.566C113.481 154.539 113.696 154.525 113.911 154.523L115.79 154.455L122.536 154.265H122.662V154.397C122.662 156.355 122.662 158.54 122.662 160.868V160.926L122.615 160.968L121.443 162.024L117.981 165.19L117.886 165.275L117.796 165.196L113.178 161.079L113.141 161.047V160.994C113.141 159.031 113.183 157.41 113.199 156.244C113.199 155.716 113.199 155.289 113.225 154.967C113.222 154.822 113.231 154.677 113.251 154.534C113.26 154.692 113.26 154.851 113.251 155.009C113.251 155.336 113.251 155.774 113.283 156.313C113.283 157.458 113.315 159.052 113.341 160.989L113.304 160.91L117.954 164.985H117.77L121.227 161.818L122.404 160.762L122.356 160.868C122.356 158.54 122.356 156.355 122.356 154.397L122.488 154.523L115.817 154.587H113.399C113.355 154.583 113.311 154.576 113.267 154.566Z" fill="#455A64"/>
<path d="M98.5773 154.159C98.7689 154.146 98.9611 154.146 99.1527 154.159L100.831 154.296L106.901 154.824H107.028V154.95C106.801 156.866 106.537 159.046 106.262 161.374V161.432L106.22 161.469L104.874 162.525L101.554 165.164L101.443 165.248L101.359 165.143L97.7328 160.551L97.7012 160.514V160.466C97.9651 158.524 98.1815 156.924 98.3345 155.769C98.4137 155.241 98.4718 154.824 98.5193 154.496C98.5299 154.353 98.5565 154.212 98.5985 154.074C98.5952 154.233 98.5829 154.392 98.5615 154.549C98.5298 154.88 98.4876 155.313 98.4348 155.848L97.907 160.498V160.413C98.9627 161.738 100.219 163.285 101.575 164.968H101.38L104.695 162.329L106.041 161.274L105.988 161.363C106.278 159.041 106.553 156.861 106.79 154.945L106.901 155.082L100.921 154.417L99.2213 154.211C99.0057 154.207 98.7907 154.19 98.5773 154.159Z" fill="#455A64"/>
<path d="M117.674 169.191C117.183 169.004 116.71 168.775 116.259 168.505C115.399 168.056 114.211 167.449 112.887 166.779C111.562 166.109 110.358 165.544 109.482 165.127C108.995 164.926 108.526 164.686 108.078 164.409C108.589 164.534 109.086 164.711 109.561 164.937C110.464 165.306 111.673 165.855 113.018 166.52C114.364 167.185 115.52 167.835 116.354 168.331C116.82 168.576 117.262 168.864 117.674 169.191Z" fill="#455A64"/>
<path d="M117.273 171.598C116.9 171.529 116.542 171.393 116.218 171.197C114.569 170.351 113.219 169.021 112.349 167.386C112.146 167.062 112.005 166.704 111.932 166.33C112.56 167.437 113.318 168.465 114.191 169.391C115.129 170.243 116.164 170.984 117.273 171.598Z" fill="#455A64"/>
<path d="M126.082 200.221C126.063 200.404 126.015 200.582 125.939 200.749C125.77 201.209 125.552 201.649 125.29 202.063C124.426 203.451 123.153 204.537 121.646 205.172C120.14 205.807 118.474 205.96 116.877 205.61C116.398 205.509 115.931 205.359 115.483 205.161C115.315 205.099 115.156 205.012 115.014 204.903C115.638 205.111 116.272 205.287 116.914 205.431C118.47 205.718 120.076 205.544 121.535 204.93C122.993 204.316 124.24 203.288 125.121 201.973C125.802 200.939 126.029 200.2 126.082 200.221Z" fill="#455A64"/>
<path d="M124.03 199.377C123.666 199.622 123.263 199.8 122.837 199.905C121.831 200.222 120.787 200.399 119.733 200.433C118.685 200.472 117.635 200.41 116.598 200.248C116.164 200.205 115.736 200.107 115.326 199.958C115.326 199.857 117.3 200.237 119.723 200.148C120.755 200.116 121.782 199.974 122.784 199.726C123.55 199.52 124.014 199.335 124.03 199.377Z" fill="#455A64"/>
<path d="M100.828 199.957C100.514 200.335 100.148 200.666 99.7404 200.939C98.7889 201.646 97.7423 202.214 96.6316 202.628C95.5202 203.041 94.3565 203.297 93.1744 203.388C92.6861 203.447 92.1917 203.435 91.707 203.351C91.707 203.303 92.2665 203.298 93.1532 203.187C95.4687 202.898 97.6846 202.072 99.6243 200.775C100.011 200.482 100.413 200.208 100.828 199.957Z" fill="#455A64"/>
<path d="M98.0885 199.847C97.1621 200.126 96.1874 200.207 95.2277 200.084C94.2598 200.049 93.3094 199.816 92.4355 199.398C92.4355 199.314 93.6918 199.678 95.2488 199.799C96.8059 199.921 98.0779 199.763 98.0885 199.847Z" fill="#455A64"/>
<path d="M110.538 166.262C110.097 166.528 109.625 166.741 109.134 166.895C107.966 167.32 106.761 167.633 105.534 167.829C104.313 168.027 103.076 168.106 101.839 168.067C101.324 168.073 100.81 168.018 100.309 167.903C100.817 167.857 101.329 167.844 101.839 167.866C104.3 167.833 106.743 167.442 109.091 166.705C109.563 166.526 110.046 166.378 110.538 166.262Z" fill="#455A64"/>
<path d="M109.683 163.063C109.762 163.063 109.831 163.306 109.836 163.591C109.841 163.876 109.778 164.119 109.699 164.119C109.62 164.119 109.556 163.876 109.551 163.591C109.546 163.306 109.604 163.063 109.683 163.063Z" fill="#455A64"/>
<path d="M109.689 160.867C109.768 160.867 109.831 161.115 109.826 161.395C109.821 161.675 109.763 161.923 109.684 161.923C109.604 161.923 109.541 161.675 109.541 161.395C109.541 161.115 109.61 160.867 109.689 160.867Z" fill="#455A64"/>
<path d="M109.732 158.677C109.812 158.677 109.87 158.925 109.864 159.205C109.859 159.484 109.785 159.732 109.706 159.732C109.627 159.732 109.569 159.484 109.579 159.205C109.59 158.925 109.659 158.672 109.732 158.677Z" fill="#455A64"/>
<path d="M109.821 156.481C109.9 156.481 109.953 156.734 109.937 157.035C109.921 157.336 109.852 157.563 109.773 157.563C109.694 157.563 109.641 157.309 109.652 157.035C109.662 156.76 109.741 156.475 109.821 156.481Z" fill="#455A64"/>
<path d="M109.954 154.291C110.033 154.291 110.081 154.544 110.06 154.851C110.038 155.157 109.959 155.378 109.88 155.378C109.801 155.378 109.753 155.12 109.775 154.819C109.796 154.518 109.875 154.286 109.954 154.291Z" fill="#455A64"/>
<path d="M110.12 152.106C110.199 152.106 110.242 152.359 110.221 152.66C110.199 152.961 110.11 153.188 110.031 153.188C109.951 153.188 109.909 152.929 109.936 152.628C109.962 152.327 110.046 152.095 110.12 152.106Z" fill="#455A64"/>
<path d="M110.294 150.311C110.374 150.311 110.421 150.485 110.4 150.675C110.379 150.865 110.305 151.018 110.226 151.013C110.147 151.007 110.099 150.838 110.12 150.648C110.141 150.458 110.215 150.305 110.294 150.311Z" fill="#455A64"/>
<path d="M92.6521 244.854C92.7313 244.854 92.7471 245.123 92.6838 245.424C92.6204 245.725 92.5149 245.952 92.4357 245.952C92.3565 245.952 92.346 245.683 92.404 245.387C92.4621 245.092 92.5782 244.822 92.6521 244.854Z" fill="#455A64"/>
<path d="M93.0837 242.71C93.1576 242.71 93.1735 242.979 93.1154 243.275C93.0574 243.57 92.9465 243.803 92.8673 243.803C92.7882 243.803 92.7776 243.533 92.8357 243.232C92.8937 242.932 93.0046 242.71 93.0837 242.71Z" fill="#455A64"/>
<path d="M93.5119 240.551C93.5911 240.551 93.6069 240.821 93.5436 241.116C93.4802 241.412 93.3747 241.644 93.3008 241.644C93.2269 241.644 93.2058 241.375 93.2638 241.079C93.3219 240.784 93.438 240.536 93.5119 240.551Z" fill="#455A64"/>
<path d="M93.9451 238.399C94.0242 238.399 94.0348 238.668 93.9767 238.969C93.9187 239.27 93.8078 239.497 93.7287 239.497C93.6495 239.497 93.6389 239.227 93.697 238.932C93.7551 238.636 93.8659 238.388 93.9451 238.399Z" fill="#455A64"/>
<path d="M94.3721 236.25C94.4513 236.25 94.4671 236.519 94.409 236.815C94.351 237.11 94.2349 237.342 94.161 237.342C94.0871 237.342 94.066 237.073 94.1293 236.772C94.1926 236.471 94.2982 236.234 94.3721 236.25Z" fill="#455A64"/>
<path d="M94.8045 234.096C94.8836 234.096 94.8942 234.366 94.8361 234.661C94.7781 234.957 94.6672 235.189 94.588 235.189C94.5089 235.189 94.4983 234.92 94.5564 234.624C94.6144 234.329 94.7253 234.081 94.8045 234.096Z" fill="#455A64"/>
<path d="M95.2387 231.949C95.3126 231.949 95.3284 232.213 95.2704 232.514C95.2123 232.815 95.0962 233.042 95.0223 233.042C94.9484 233.042 94.9273 232.772 94.9906 232.477C95.054 232.181 95.149 231.933 95.2387 231.949Z" fill="#455A64"/>
<path d="M95.6755 229.795C95.7547 229.795 95.7653 230.064 95.7072 230.359C95.6492 230.655 95.5383 230.887 95.4591 230.887C95.38 230.887 95.3694 230.618 95.4275 230.317C95.4855 230.016 95.5858 229.779 95.6755 229.795Z" fill="#455A64"/>
<path d="M96.0997 227.641C96.1736 227.641 96.1894 227.911 96.1313 228.206C96.0733 228.502 95.9624 228.734 95.8833 228.734C95.8041 228.734 95.7882 228.465 95.8516 228.169C95.9149 227.874 96.0205 227.626 96.0997 227.641Z" fill="#455A64"/>
<path d="M96.5252 225.493C96.6043 225.493 96.6202 225.757 96.5568 226.058C96.4935 226.359 96.3879 226.585 96.3087 226.585C96.2296 226.585 96.219 226.316 96.2771 226.021C96.3351 225.725 96.4513 225.477 96.5252 225.493Z" fill="#455A64"/>
<path d="M96.9568 223.34C97.0307 223.34 97.0465 223.609 96.9885 223.904C96.9304 224.2 96.8196 224.432 96.7404 224.432C96.6612 224.432 96.6507 224.163 96.7087 223.862C96.7668 223.561 96.8776 223.324 96.9568 223.34Z" fill="#455A64"/>
<path d="M97.3869 221.186C97.4661 221.186 97.4819 221.455 97.4186 221.751C97.3552 222.047 97.2497 222.279 97.1758 222.279C97.1019 222.279 97.0808 222.01 97.1388 221.714C97.1969 221.419 97.313 221.17 97.3869 221.186Z" fill="#455A64"/>
<path d="M97.8181 219.039C97.892 219.039 97.9079 219.308 97.8498 219.604C97.7917 219.899 97.6809 220.131 97.6017 220.131C97.5225 220.131 97.512 219.862 97.57 219.567C97.6281 219.271 97.739 219.023 97.8181 219.039Z" fill="#455A64"/>
<path d="M98.2463 216.884C98.3255 216.884 98.3413 217.153 98.2832 217.449C98.2252 217.745 98.1091 217.977 98.0352 217.977C97.9613 217.977 97.9402 217.708 97.9982 217.412C98.0563 217.117 98.1724 216.847 98.2463 216.884Z" fill="#455A64"/>
<path d="M98.6795 214.736C98.7586 214.736 98.7692 215.006 98.7111 215.306C98.6531 215.607 98.5422 215.834 98.463 215.834C98.3839 215.834 98.3733 215.565 98.4314 215.269C98.4894 214.974 98.6003 214.736 98.6795 214.736Z" fill="#455A64"/>
<path d="M99.1045 212.583C99.1837 212.583 99.1995 212.852 99.1415 213.148C99.0834 213.443 98.9673 213.675 98.8934 213.675C98.8195 213.675 98.7984 213.411 98.8617 213.111C98.9251 212.81 99.0306 212.567 99.1045 212.583Z" fill="#455A64"/>
<path d="M99.5388 210.429C99.618 210.429 99.6286 210.699 99.5705 210.994C99.5124 211.29 99.4016 211.522 99.3224 211.522C99.2432 211.522 99.2327 211.253 99.2908 210.957C99.3488 210.662 99.4597 210.414 99.5388 210.429Z" fill="#455A64"/>
<path d="M99.9711 208.276C100.045 208.276 100.061 208.545 100.003 208.846C99.9447 209.147 99.8286 209.374 99.7547 209.374C99.6808 209.374 99.6597 209.105 99.7231 208.809C99.7864 208.514 99.8972 208.26 99.9711 208.276Z" fill="#455A64"/>
<path d="M100.424 206.128C100.503 206.128 100.519 206.397 100.455 206.692C100.392 206.988 100.286 207.22 100.207 207.22C100.128 207.22 100.117 206.951 100.176 206.65C100.234 206.349 100.318 206.112 100.424 206.128Z" fill="#455A64"/>
<path d="M100.832 203.974C100.906 203.974 100.922 204.244 100.864 204.539C100.806 204.835 100.695 205.067 100.616 205.067C100.536 205.067 100.521 204.798 100.584 204.502C100.647 204.207 100.753 203.959 100.832 203.974Z" fill="#455A64"/>
<path d="M101.26 201.821C101.339 201.821 101.355 202.09 101.291 202.391C101.228 202.692 101.122 202.919 101.043 202.919C100.964 202.919 100.953 202.65 101.011 202.354C101.07 202.059 101.186 201.805 101.26 201.821Z" fill="#455A64"/>
<path d="M101.693 199.673C101.767 199.673 101.783 199.942 101.725 200.237C101.667 200.533 101.556 200.765 101.477 200.765C101.398 200.765 101.387 200.496 101.445 200.195C101.503 199.894 101.614 199.657 101.693 199.673Z" fill="#455A64"/>
<path d="M102.119 197.519C102.199 197.519 102.214 197.788 102.151 198.084C102.088 198.38 101.982 198.612 101.908 198.612C101.834 198.612 101.813 198.343 101.871 198.047C101.929 197.752 102.045 197.503 102.119 197.519Z" fill="#455A64"/>
<path d="M102.535 195.366C102.614 195.366 102.625 195.635 102.567 195.936C102.509 196.237 102.398 196.464 102.319 196.464C102.239 196.464 102.229 196.195 102.287 195.899C102.345 195.603 102.472 195.35 102.535 195.366Z" fill="#455A64"/>
<path d="M102.981 193.218C103.06 193.218 103.076 193.487 103.018 193.782C102.96 194.078 102.843 194.31 102.77 194.31C102.696 194.31 102.675 194.041 102.733 193.74C102.791 193.439 102.907 193.202 102.981 193.218Z" fill="#455A64"/>
<path d="M103.412 191.064C103.491 191.064 103.502 191.333 103.444 191.629C103.385 191.925 103.275 192.157 103.195 192.157C103.116 192.157 103.106 191.888 103.164 191.592C103.222 191.296 103.333 191.048 103.412 191.064Z" fill="#455A64"/>
<path d="M103.848 188.91C103.922 188.91 103.938 189.18 103.88 189.481C103.822 189.781 103.706 190.008 103.632 190.008C103.558 190.008 103.537 189.739 103.6 189.444C103.663 189.148 103.769 188.9 103.848 188.91Z" fill="#455A64"/>
<path d="M104.273 186.763C104.352 186.763 104.363 187.032 104.305 187.327C104.247 187.623 104.136 187.855 104.057 187.855C103.978 187.855 103.967 187.586 104.025 187.285C104.083 186.984 104.194 186.763 104.273 186.763Z" fill="#455A64"/>
<path d="M104.707 184.609C104.781 184.609 104.797 184.878 104.739 185.174C104.681 185.469 104.565 185.702 104.491 185.702C104.417 185.702 104.396 185.433 104.459 185.137C104.523 184.841 104.649 184.593 104.707 184.609Z" fill="#455A64"/>
<path d="M105.135 182.46C105.214 182.46 105.23 182.724 105.166 183.024C105.103 183.325 104.997 183.552 104.918 183.552C104.839 183.552 104.828 183.283 104.886 182.988C104.945 182.692 105.061 182.444 105.135 182.46Z" fill="#455A64"/>
<path d="M105.564 180.306C105.638 180.306 105.654 180.576 105.596 180.871C105.538 181.167 105.427 181.399 105.348 181.399C105.269 181.399 105.258 181.13 105.316 180.829C105.374 180.528 105.485 180.291 105.564 180.306Z" fill="#455A64"/>
<path d="M105.996 178.153C106.075 178.153 106.091 178.422 106.028 178.718C105.964 179.013 105.859 179.246 105.779 179.246C105.7 179.246 105.69 178.976 105.748 178.681C105.806 178.385 105.922 178.137 105.996 178.153Z" fill="#455A64"/>
<path d="M106.427 176.006C106.501 176.006 106.517 176.275 106.459 176.57C106.401 176.866 106.29 177.098 106.211 177.098C106.132 177.098 106.121 176.829 106.179 176.533C106.237 176.238 106.348 175.99 106.427 176.006Z" fill="#455A64"/>
<path d="M106.854 173.852C106.933 173.852 106.949 174.121 106.891 174.417C106.833 174.713 106.716 174.945 106.643 174.945C106.569 174.945 106.548 174.676 106.606 174.38C106.664 174.085 106.759 173.836 106.854 173.852Z" fill="#455A64"/>
<path d="M107.287 171.699C107.366 171.699 107.377 171.968 107.319 172.264C107.26 172.559 107.15 172.792 107.07 172.792C106.991 172.792 106.981 172.522 107.039 172.227C107.097 171.931 107.208 171.683 107.287 171.699Z" fill="#455A64"/>
<path d="M107.716 169.55C107.795 169.55 107.811 169.819 107.753 170.114C107.695 170.41 107.579 170.642 107.505 170.642C107.431 170.642 107.41 170.378 107.473 170.077C107.536 169.777 107.642 169.534 107.716 169.55Z" fill="#455A64"/>
<path d="M108.148 167.396C108.227 167.396 108.238 167.665 108.18 167.961C108.122 168.257 108.011 168.489 107.932 168.489C107.853 168.489 107.842 168.22 107.9 167.924C107.958 167.628 108.069 167.38 108.148 167.396Z" fill="#455A64"/>
<path d="M151.17 101.039C151.17 101.039 154.822 95.566 154.923 95.5184C154.923 95.5184 158.216 89.9658 159.314 89.9658C160.412 89.9658 160.016 91.0901 158.881 93.0799C158.338 93.9453 157.967 94.9079 157.789 95.9143L160.496 97.5453C160.496 97.5453 162.307 96.8485 162.381 98.5323C162.354 99.3044 162.25 100.072 162.069 100.823C161.958 101.425 161.689 102.063 161.119 101.836C160.978 101.789 160.855 101.699 160.769 101.577C160.682 101.456 160.637 101.31 160.639 101.161C160.602 100.163 160.787 99.7938 160.639 99.7938C160.491 99.7938 158.691 105.024 158.691 105.024L151.17 101.039Z" fill="white"/>
<path d="M158.543 96.7429C158.815 96.5389 159.107 96.3621 159.414 96.2151C159.721 96.0709 160.064 96.0178 160.401 96.0621C160.528 96.0734 160.65 96.115 160.758 96.1833C160.865 96.2517 160.955 96.3448 161.019 96.4549C161.083 96.565 161.12 96.6889 161.126 96.8162C161.132 96.9434 161.108 97.0703 161.055 97.1863C160.947 97.457 160.796 97.7084 160.607 97.9305" fill="white"/>
<path d="M157.309 95.6393C157.567 95.4508 157.843 95.2864 158.132 95.1484C158.423 95.013 158.748 94.9636 159.066 95.0059C159.27 95.028 159.459 95.1259 159.594 95.2804C159.674 95.3923 159.725 95.5221 159.742 95.6584C159.76 95.7947 159.743 95.9332 159.694 96.0616C159.448 96.4503 159.166 96.8144 158.85 97.1489" fill="white"/>
<path d="M152.446 97.9512L147.168 109.236L152.974 115.184L156.004 106.771C156.004 106.771 157.629 107.093 158.294 106.016C159.033 104.813 160.004 101.34 160.004 101.34L152.446 97.9512Z" fill="white"/>
<path d="M156.215 97.6402C156.257 97.0616 156.475 96.5094 156.838 96.0568C157.078 95.7263 157.388 95.4524 157.746 95.2545C158.015 95.112 158.199 95.0592 158.215 95.0909C158.231 95.1226 157.582 95.5132 157.07 96.2257C156.558 96.9383 156.305 97.6772 156.215 97.6402Z" fill="#FFF2F2"/>
<path d="M162.069 97.6881C162.069 97.7251 161.863 97.6248 161.541 97.572C161.148 97.5002 160.742 97.5634 160.39 97.7515C160.047 97.9746 159.757 98.2701 159.54 98.6171C159.356 98.881 159.229 99.0446 159.192 99.0235C159.155 99.0024 159.218 98.8124 159.371 98.4957C159.565 98.083 159.875 97.7361 160.263 97.4981C160.467 97.3882 160.691 97.3208 160.921 97.2999C161.152 97.2791 161.384 97.3052 161.604 97.3767C161.942 97.4928 162.09 97.6617 162.069 97.6881Z" fill="#FFF2F2"/>
<path d="M160.105 96.0938C159.67 96.2966 159.254 96.5405 158.865 96.8222C158.274 97.35 157.983 97.957 157.904 97.92C157.98 97.3995 158.256 96.9295 158.675 96.611C158.949 96.3565 159.283 96.175 159.646 96.0832C159.926 96.041 160.1 96.0621 160.105 96.0938Z" fill="#FFF2F2"/>
<path d="M161.404 98.5324C161.478 98.506 161.615 98.9441 161.335 99.3769C161.056 99.8097 160.607 99.9047 160.602 99.8044C160.596 99.7041 160.887 99.5722 161.098 99.2291C161.309 98.886 161.319 98.5429 161.404 98.5324Z" fill="#FFF2F2"/>
<path d="M151.184 100.823C151.184 100.823 150.999 97.4559 151.812 96.6905C152.625 95.9252 154.979 96.7222 154.979 96.7222" fill="white"/>
<path d="M155.32 95.1172C154.999 95.8036 154.592 96.4473 154.111 97.0332C153.707 97.6739 153.224 98.2624 152.676 98.7855C153.396 97.4556 154.283 96.2229 155.315 95.1172H155.32Z" fill="#FFF2F2"/>
<path d="M108.571 69.5869L108.492 95.8669L119.766 96.3947L120.094 90.0028C120.094 90.0028 124.1 90.7998 125.129 87.0787C125.794 84.7035 125.625 66.3408 125.625 66.3408L108.571 69.5869Z" fill="white"/>
<path d="M127.106 68.1934C125.332 68.7213 124.947 71.6084 124.947 71.6084L122.16 77.7575C120.74 76.6491 118.835 76.7018 118.466 79.209C118.202 81.0088 120.445 81.373 120.445 81.373C119.141 83.5951 118.254 85.3897 116.354 87.501C114.301 89.7864 113.15 90.0134 110.918 90.0503H108.463C108.463 90.0503 107.26 86.1445 105.033 76.3799C102.557 65.5438 115.373 66.9372 117.748 64.1715C121.627 59.6692 132.706 66.5942 127.106 68.1934Z" fill="#263238"/>
<path d="M105.276 77.3982C103.196 76.0048 103.012 72.12 104.22 69.7607C104.842 68.5927 105.76 67.6095 106.884 66.9107C108.007 66.2119 109.295 65.8221 110.617 65.781C110.973 65.8046 111.331 65.7653 111.673 65.6648C112.135 65.4206 112.521 65.0558 112.792 64.6092C114.65 62.1971 116.487 59.8272 119.933 59.8272C120.694 59.7891 121.449 59.9725 122.108 60.355C122.722 60.7733 123.182 61.3814 123.417 62.0862C124.051 61.7436 124.732 61.4981 125.439 61.3579C125.793 61.2883 126.158 61.2961 126.508 61.3809C126.859 61.4656 127.187 61.6252 127.471 61.8487C127.745 62.0839 127.927 62.4083 127.985 62.7647C128.043 63.1211 127.973 63.4865 127.787 63.7964C128.373 63.7881 128.942 63.9894 129.392 64.364C129.842 64.7386 130.143 65.2617 130.242 65.839C130.426 66.9949 128.774 67.8078 128.6 67.8975C128.6 67.8975 129.508 69.7976 127.344 70.9377C126.473 71.3916 125.338 70.8427 125.233 70.7741" fill="#263238"/>
<path d="M113.51 79.9268C113.662 80.586 113.641 81.2736 113.447 81.9219C113.341 82.5902 113.067 83.2206 112.65 83.7534C112.571 83.7165 112.935 82.9089 113.178 81.8586C113.42 80.8082 113.426 79.9268 113.51 79.9268Z" fill="#455A64"/>
<path d="M114.871 78.6387C114.969 79.2795 114.933 79.9338 114.765 80.5599C114.689 81.2031 114.488 81.8253 114.174 82.3914C114.217 81.7548 114.321 81.1238 114.485 80.5071C114.558 79.8741 114.686 79.2487 114.871 78.6387Z" fill="#455A64"/>
<path d="M118.778 74.3008C118.778 74.3377 118.487 74.57 118.081 75.045C117.558 75.6737 117.147 76.3879 116.867 77.1563C116.586 77.9256 116.36 78.7141 116.191 79.5156C116.143 79.8591 116.049 80.1946 115.912 80.5132C115.886 80.1593 115.913 79.8037 115.991 79.4575C116.105 78.6286 116.308 77.8146 116.598 77.0296C116.894 76.2419 117.348 75.5233 117.933 74.9183C118.158 74.6449 118.449 74.4325 118.778 74.3008Z" fill="#455A64"/>
<path d="M120.356 71.3447C120.486 71.5612 120.562 71.8055 120.578 72.0573C120.742 73.2673 120.434 74.494 119.717 75.4828C119.443 75.8523 119.189 76.0106 119.189 76.0106C119.618 75.315 119.959 74.5685 120.203 73.7885C120.356 72.9836 120.408 72.1625 120.356 71.3447Z" fill="#455A64"/>
<path d="M106.902 77.9117C106.86 77.9803 106.517 77.8589 106.126 77.6425C105.736 77.4261 105.456 77.1991 105.498 77.1147C105.541 77.0302 105.878 77.1622 106.269 77.3786C106.66 77.595 106.939 77.8431 106.902 77.9117Z" fill="#455A64"/>
<path d="M112.35 75.1019C112.396 75.5111 112.28 75.9219 112.028 76.2473C111.68 76.8279 111.21 77.1235 111.163 77.0654C111.115 77.0074 111.463 76.6326 111.78 76.0995C112.097 75.5664 112.266 75.0861 112.35 75.1019Z" fill="#455A64"/>
<path d="M114.022 74.2051C114.01 74.7035 113.834 75.1841 113.52 75.5721C113.067 76.2583 112.502 76.6278 112.465 76.5644C112.719 76.1652 112.995 75.781 113.294 75.4138C113.511 74.9962 113.754 74.5925 114.022 74.2051Z" fill="#455A64"/>
<path d="M122.351 63.2C122.351 63.2 122.134 63.0364 121.728 62.8042C121.144 62.497 120.497 62.3307 119.838 62.3186C118.862 62.2936 117.899 62.5521 117.067 63.0628C116.063 63.721 115.25 64.631 114.708 65.7019C114.298 66.4858 113.976 67.3124 113.747 68.1668L113.705 68.3304L113.552 68.2512C112.776 67.8437 111.916 67.6232 111.039 67.6073C110.344 67.5905 109.651 67.6959 108.992 67.9187C108.406 68.1358 107.845 68.4154 107.318 68.7526C107.427 68.6244 107.553 68.5124 107.693 68.4201C108.075 68.1441 108.492 67.9204 108.933 67.7551C109.608 67.4997 110.324 67.3708 111.045 67.375C111.962 67.3735 112.867 67.5906 113.684 68.0084L113.483 68.0982C113.709 67.2193 114.035 66.3692 114.454 65.5646C115.025 64.4541 115.881 63.5157 116.935 62.8464C117.813 62.3215 118.827 62.0697 119.849 62.1233C120.534 62.1555 121.201 62.3607 121.786 62.7197C121.941 62.8197 122.086 62.9346 122.219 63.0628C122.314 63.142 122.356 63.1895 122.351 63.2Z" fill="#455A64"/>
<path d="M128.279 64.63C128.279 64.63 128.59 64.5455 128.928 64.9203C129.118 65.1508 129.211 65.4461 129.187 65.7437C129.157 65.9393 129.083 66.1255 128.969 66.2876C128.856 66.4496 128.706 66.5832 128.532 66.6779C128.116 66.9153 127.625 66.9833 127.16 66.8679C126.647 66.7375 126.165 66.504 125.745 66.1818C125.304 65.8392 124.842 65.5237 124.362 65.237C123.843 64.9552 123.282 64.7575 122.7 64.6511C121.565 64.4495 120.398 64.5293 119.301 64.8833C118.403 65.179 117.556 65.6097 116.788 66.1607C116.088 66.6907 115.417 67.258 114.777 67.8602C114.903 67.6557 115.054 67.4677 115.226 67.3007C115.667 66.8245 116.149 66.3882 116.667 65.997C117.437 65.4079 118.298 64.9479 119.216 64.6353C120.354 64.2489 121.571 64.1581 122.753 64.3714C123.364 64.4836 123.954 64.692 124.5 64.9889C124.987 65.2851 125.454 65.6131 125.898 65.9706C126.289 66.2755 126.736 66.5013 127.213 66.6357C127.621 66.7503 128.058 66.7031 128.432 66.5037C128.584 66.4275 128.717 66.3175 128.821 66.1821C128.924 66.0468 128.995 65.8896 129.028 65.7226C129.062 65.4627 128.994 65.1999 128.838 64.9889C128.699 64.8079 128.501 64.6809 128.279 64.63Z" fill="#455A64"/>
<path d="M96.5678 98.6162L86.4971 115.506C85.3676 117.48 84.3278 119.581 83.3302 121.761C82.9506 122.855 82.8483 124.026 83.0325 125.169C83.2168 126.312 83.6817 127.392 84.3858 128.311L84.1008 127.899C84.6527 128.581 85.35 129.132 86.1417 129.51C86.9334 129.888 87.7996 130.084 88.677 130.085H88.9409C90.0859 130.084 91.2058 129.749 92.1631 129.121C93.1204 128.492 93.8735 127.598 94.3299 126.548L97.5654 121.64L96.5678 98.6162Z" fill="#D63844"/>
<path d="M126.955 95.3867C124.252 94.0038 121.582 93.6924 118.668 93.608C115.28 93.5077 110.497 93.0326 106.84 93.4232C106.84 93.4232 96.4312 94.1938 95.7081 101.34L97.1279 134.857L94.7422 149.055L128.116 150.063L127.873 133.3C128.285 124.585 127.409 112.24 127.409 112.24C127.937 107.553 130.486 105.447 130.85 102.396C131.172 99.7042 129.367 96.6165 126.955 95.3867Z" fill="#D63844"/>
<path d="M117.547 135.327C117.404 135.502 117.239 135.658 117.056 135.792C116.581 136.186 116.072 136.539 115.536 136.847C113.759 137.869 111.751 138.423 109.701 138.459C107.651 138.495 105.626 138.011 103.813 137.053C103.267 136.769 102.747 136.438 102.256 136.066C102.063 135.938 101.886 135.788 101.729 135.617C101.76 135.57 102.499 136.198 103.882 136.874C105.681 137.763 107.667 138.208 109.673 138.172C111.68 138.136 113.649 137.62 115.415 136.668C116.787 135.934 117.51 135.285 117.547 135.327Z" fill="#263238"/>
<path d="M95.6753 101.71C95.6995 101.817 95.7119 101.927 95.7122 102.037C95.7122 102.285 95.7492 102.591 95.7703 102.977C95.8073 103.827 95.8653 104.993 95.9287 106.418C96.0553 109.363 96.2189 113.369 96.4037 117.793C96.5884 122.216 96.789 126.238 96.9315 129.162C97.0054 130.587 97.0635 131.753 97.1057 132.603C97.1057 132.988 97.1373 133.294 97.1479 133.543C97.1604 133.651 97.1604 133.761 97.1479 133.87C97.1184 133.765 97.1007 133.657 97.0951 133.548C97.0687 133.3 97.0371 132.994 97.0001 132.614C96.9209 131.801 96.8365 130.624 96.7362 129.172C96.5356 126.264 96.3245 122.247 96.1345 117.803C95.9445 113.359 95.8178 109.358 95.7439 106.429C95.7439 104.998 95.6911 103.832 95.6753 102.977C95.6753 102.597 95.6753 102.285 95.6753 102.042C95.6629 101.932 95.6629 101.82 95.6753 101.71Z" fill="#263238"/>
<path d="M93.5632 103.489C93.5377 103.58 93.4986 103.668 93.4471 103.748L93.0723 104.471C92.7345 105.093 92.2331 105.985 91.5892 107.073C90.3224 109.263 88.4223 112.198 86.4957 115.518C85.5298 117.186 84.717 118.833 84.0097 120.337C83.3424 121.643 83.0088 123.093 83.0385 124.559C83.0892 125.547 83.3539 126.513 83.8144 127.388C84.1417 128.006 84.4161 128.291 84.3898 128.312C84.3161 128.252 84.2489 128.185 84.1892 128.112C84.0132 127.901 83.8543 127.677 83.7141 127.441C83.2041 126.565 82.9042 125.582 82.838 124.57C82.7745 123.065 83.0942 121.568 83.7669 120.221C84.4689 118.695 85.2765 117.054 86.2477 115.365C88.1795 112.018 90.106 109.11 91.415 106.92C92.0589 105.864 92.5867 105.009 92.972 104.365C93.1462 104.091 93.2835 103.837 93.3996 103.674C93.5157 103.51 93.5632 103.484 93.5632 103.489Z" fill="#263238"/>
<path d="M154.949 112.688L147.227 107.637L142.35 116.082C142.35 116.082 135.594 106.692 132.528 101.192C129.699 96.1254 126.046 94.7636 124.283 94.3941C124.162 94.3691 124.037 94.3731 123.918 94.4059C123.798 94.4387 123.689 94.4994 123.598 94.5829C123.506 94.6663 123.436 94.7703 123.393 94.8861C123.35 95.0019 123.335 95.1264 123.349 95.2492L125.988 113.512C126.326 114.462 131.9 122.543 135.014 126.607C140.213 133.394 147.871 129.051 149.972 124.3C151.666 120.526 154.263 114.8 154.949 112.688Z" fill="#D63844"/>
<path d="M144.572 123.699C144.476 123.305 144.426 122.901 144.424 122.496C144.36 121.53 144.235 120.569 144.049 119.619C143.859 118.675 143.526 117.766 143.062 116.922C142.703 116.283 142.392 115.935 142.429 115.903C142.76 116.146 143.036 116.458 143.236 116.816C143.765 117.657 144.135 118.587 144.329 119.561C144.522 120.524 144.621 121.503 144.624 122.485C144.658 122.89 144.64 123.298 144.572 123.699Z" fill="#263238"/>
<path d="M146.832 119.924C146.785 119.924 146.748 119.533 146.558 118.937C146.306 118.163 145.884 117.456 145.323 116.868C144.804 116.249 144.071 115.847 143.27 115.744C142.937 115.746 142.607 115.803 142.293 115.912C142.261 115.912 142.583 115.564 143.275 115.543C143.707 115.566 144.131 115.678 144.518 115.871C144.906 116.065 145.25 116.336 145.529 116.667C146.124 117.284 146.546 118.047 146.753 118.879C146.862 119.216 146.889 119.574 146.832 119.924Z" fill="#263238"/>
<path d="M123.781 96.6477C123.726 96.7254 123.662 96.7963 123.591 96.8588L123.353 97.1016C123.269 97.2125 123.168 97.3286 123.058 97.4605C122.448 98.2311 121.994 99.1132 121.722 100.057C121.316 101.455 121.217 102.925 121.432 104.364C121.54 105.214 121.762 106.045 122.092 106.835C122.466 107.682 122.884 108.51 123.343 109.315C125.232 112.635 127.18 115.507 128.584 117.581C129.281 118.584 129.856 119.407 130.283 120.014C130.502 120.305 130.707 120.606 130.896 120.917C130.896 120.917 130.822 120.853 130.7 120.711C130.579 120.568 130.405 120.362 130.173 120.083C129.734 119.555 129.117 118.716 128.399 117.697C126.503 115.039 124.742 112.287 123.121 109.453C122.655 108.64 122.234 107.803 121.859 106.945C121.517 106.139 121.285 105.291 121.168 104.422C120.963 102.944 121.088 101.439 121.532 100.015C121.826 99.0554 122.317 98.1674 122.973 97.4078L123.295 97.0647L123.554 96.8377C123.696 96.6952 123.77 96.6371 123.781 96.6477Z" fill="#263238"/>
<path d="M123.798 145.165C123.726 145.21 123.648 145.244 123.566 145.265L122.869 145.508C122.569 145.614 122.199 145.73 121.761 145.846C121.323 145.962 120.827 146.12 120.273 146.237C118.972 146.548 117.656 146.789 116.33 146.96C113.077 147.385 109.784 147.396 106.528 146.991C105.203 146.824 103.887 146.59 102.585 146.289C102.026 146.173 101.53 146.025 101.092 145.904C100.654 145.783 100.284 145.677 99.978 145.571L99.2866 145.334C99.1282 145.281 99.0438 145.244 99.0491 145.234C99.1348 145.242 99.2196 145.258 99.3024 145.281L100.01 145.466C100.316 145.55 100.691 145.651 101.134 145.751C101.577 145.851 102.068 145.988 102.628 146.089C103.736 146.332 105.071 146.548 106.56 146.727C108.178 146.905 109.804 146.995 111.432 146.997C113.058 146.984 114.682 146.886 116.298 146.701C117.787 146.516 119.117 146.289 120.225 146.041C120.785 145.936 121.281 145.798 121.719 145.693C122.157 145.587 122.532 145.487 122.838 145.403L123.545 145.213C123.626 145.183 123.712 145.167 123.798 145.165Z" fill="#263238"/>
<g opacity="0.3">
<path opacity="0.3" d="M95.0547 125.489L96.5642 123.15L95.7778 104.729L95.0547 125.489Z" fill="black"/>
</g>
<g opacity="0.3">
<path opacity="0.3" d="M121.08 103.488C121.08 103.488 121.128 110.197 122.664 112.857C124.199 115.517 127.873 121.26 127.873 120.917C127.873 120.574 127.667 116.166 127.667 116.166C127.667 116.166 121.112 107.241 121.08 103.488Z" fill="black"/>
</g>
<path d="M93.7165 126.064C93.5691 126.147 93.4049 126.195 93.2361 126.206C92.7744 126.256 92.3074 126.195 91.8744 126.027C91.2346 125.783 90.6587 125.397 90.1907 124.897C89.6365 124.282 89.163 123.6 88.7814 122.865C88.4092 122.137 87.9932 121.432 87.5357 120.754C87.1566 120.22 86.691 119.752 86.1581 119.371C85.654 119.038 85.086 118.813 84.4902 118.711C84.6644 118.676 84.8439 118.676 85.0181 118.711C85.473 118.786 85.9077 118.953 86.2954 119.202C86.8629 119.578 87.3612 120.05 87.768 120.596C88.2405 121.27 88.6673 121.975 89.0453 122.707C89.4166 123.422 89.8701 124.092 90.3965 124.702C90.8387 125.185 91.3784 125.568 91.9799 125.826C92.5283 126.055 93.1268 126.137 93.7165 126.064Z" fill="white"/>
<path d="M95.7601 114.484C95.7126 114.484 95.5965 114.082 95.2745 113.491C94.853 112.721 94.2727 112.049 93.5721 111.519C92.8715 110.99 92.0665 110.615 91.2103 110.419C90.5506 110.272 90.123 110.272 90.123 110.224C90.4917 110.144 90.8733 110.144 91.242 110.224C92.1488 110.373 93.0063 110.739 93.7415 111.29C94.4767 111.841 95.0678 112.562 95.4645 113.391C95.6409 113.729 95.7418 114.102 95.7601 114.484Z" fill="white"/>
<path d="M121.202 104.598C121.202 104.598 120.837 104.529 120.183 104.476C119.257 104.412 118.327 104.496 117.428 104.724C116.092 105.074 114.805 105.588 113.596 106.255C112.213 106.978 110.751 107.896 109.093 108.656C107.535 109.384 105.854 109.812 104.137 109.918C102.738 109.999 101.334 109.869 99.9727 109.533C99.0588 109.311 98.1734 108.985 97.3337 108.561C97.0328 108.419 96.8058 108.276 96.6633 108.192C96.5208 108.108 96.4364 108.05 96.4416 108.039C96.4469 108.028 96.7794 108.197 97.3812 108.461C98.2291 108.843 99.1132 109.138 100.02 109.343C101.365 109.647 102.746 109.756 104.121 109.665C105.804 109.544 107.452 109.118 108.983 108.408C110.614 107.659 112.081 106.751 113.48 106.033C114.707 105.363 116.019 104.86 117.38 104.54C118.301 104.32 119.253 104.262 120.193 104.371C120.448 104.4 120.7 104.448 120.948 104.513C121.036 104.529 121.122 104.557 121.202 104.598Z" fill="white"/>
<path d="M127.686 122.86C127.591 122.906 127.49 122.939 127.386 122.96C127.091 123.052 126.792 123.126 126.488 123.182C125.379 123.404 124.247 123.495 123.116 123.451C121.44 123.381 119.774 123.148 118.144 122.754C116.296 122.332 114.312 121.725 112.227 121.113C110.275 120.522 108.281 120.079 106.262 119.788C104.618 119.552 102.949 119.54 101.301 119.751C100.19 119.895 99.1043 120.193 98.076 120.638C97.3529 120.954 96.9676 121.166 96.957 121.166C97.0369 121.095 97.1256 121.034 97.2209 120.986C97.411 120.891 97.6643 120.706 98.0338 120.548C99.0599 120.063 100.152 119.732 101.275 119.566C102.94 119.335 104.629 119.335 106.294 119.566C108.328 119.844 110.337 120.283 112.301 120.881C114.412 121.493 116.37 122.105 118.202 122.538C119.814 122.943 121.461 123.194 123.121 123.287C124.241 123.347 125.365 123.287 126.473 123.108C127.254 122.944 127.681 122.833 127.686 122.86Z" fill="white"/>
<path d="M127.874 133.3C126.482 132.676 124.999 132.277 123.482 132.118C121.835 131.986 120.177 132.042 118.542 132.287C116.689 132.54 114.673 132.962 112.546 133.342C110.419 133.722 108.382 134.092 106.503 134.255C104.842 134.424 103.168 134.413 101.509 134.224C100.39 134.091 99.2897 133.827 98.2317 133.437C97.8569 133.311 97.5825 133.158 97.3924 133.078C97.2918 133.041 97.1961 132.991 97.1074 132.931C97.1074 132.904 97.5191 133.084 98.2686 133.337C99.3287 133.681 100.422 133.913 101.531 134.028C103.176 134.2 104.836 134.2 106.481 134.028C108.339 133.854 110.371 133.501 112.499 133.099C114.626 132.698 116.642 132.281 118.51 132.044C120.164 131.804 121.841 131.765 123.504 131.928C124.626 132.049 125.725 132.326 126.771 132.751C127.055 132.866 127.332 132.998 127.599 133.147C127.696 133.188 127.788 133.239 127.874 133.3Z" fill="white"/>
<path d="M110.719 146.759C110.531 146.669 110.354 146.558 110.192 146.427C109.864 146.195 109.389 145.867 108.793 145.477C107.246 144.453 105.635 143.531 103.969 142.716C102.297 141.903 100.574 141.198 98.8119 140.605C98.1363 140.378 97.5874 140.209 97.2285 140.077C97.0249 140.032 96.828 139.961 96.6426 139.866C96.8498 139.88 97.055 139.915 97.2548 139.972C97.6507 140.056 98.2102 140.204 98.8964 140.405C102.482 141.477 105.869 143.126 108.925 145.287C109.511 145.699 109.98 146.052 110.276 146.311C110.441 146.442 110.59 146.593 110.719 146.759Z" fill="white"/>
<path d="M126.965 146.579C126.632 146.83 126.256 147.017 125.856 147.133C123.94 147.815 121.837 147.75 119.966 146.954C119.581 146.808 119.224 146.598 118.91 146.331C119.299 146.459 119.681 146.607 120.056 146.774C120.979 147.093 121.945 147.271 122.922 147.302C123.899 147.328 124.875 147.202 125.814 146.927C126.516 146.737 126.944 146.537 126.965 146.579Z" fill="white"/>
<path d="M138.519 111.733C138.53 111.893 138.508 112.052 138.455 112.203C138.33 112.62 138.12 113.006 137.838 113.338C137.42 113.825 136.918 114.233 136.355 114.541C135.673 114.905 134.968 115.223 134.244 115.491C133.533 115.758 132.86 116.113 132.238 116.547C131.743 116.91 131.335 117.379 131.045 117.919C130.785 118.424 130.668 118.99 130.707 119.556C130.632 119.415 130.595 119.256 130.602 119.096C130.585 118.658 130.677 118.223 130.871 117.83C131.152 117.247 131.566 116.739 132.079 116.347C132.712 115.887 133.405 115.515 134.138 115.243C134.858 114.976 135.563 114.669 136.249 114.325C136.792 114.037 137.284 113.663 137.706 113.217C138.076 112.783 138.353 112.278 138.519 111.733Z" fill="white"/>
<path d="M132.032 100.533C132.026 100.696 131.996 100.858 131.942 101.013C131.901 101.193 131.847 101.369 131.778 101.541C131.703 101.781 131.613 102.018 131.509 102.248C131.247 102.853 130.929 103.433 130.559 103.979C130.095 104.643 129.564 105.259 128.976 105.816C128.384 106.367 127.736 106.855 127.044 107.273C126.477 107.61 125.88 107.893 125.26 108.117C125.023 108.206 124.782 108.282 124.537 108.344C124.364 108.399 124.188 108.441 124.009 108.471C123.851 108.514 123.687 108.535 123.523 108.534C123.523 108.481 124.194 108.349 125.218 107.932C125.809 107.689 126.379 107.398 126.923 107.062C128.268 106.226 129.433 105.129 130.348 103.837C130.723 103.312 131.051 102.755 131.33 102.174C131.81 101.187 131.979 100.517 132.032 100.533Z" fill="white"/>
<path d="M121.871 93.6084C121.626 93.7427 121.37 93.8575 121.106 93.9515C120.61 94.1626 119.871 94.4265 118.947 94.7168C118.024 95.0071 116.91 95.2921 115.654 95.5508C112.927 96.0933 110.144 96.2972 107.367 96.1578C106.234 96.1017 105.105 95.9872 103.984 95.8147C103.028 95.6616 102.263 95.5085 101.735 95.3713C101.46 95.3205 101.189 95.2445 100.928 95.1443C101.209 95.1637 101.488 95.2061 101.762 95.271C102.29 95.3713 103.06 95.498 104.01 95.6194C104.96 95.7408 106.121 95.8516 107.378 95.9044C108.756 95.9539 110.135 95.9309 111.51 95.8358C112.884 95.7306 114.251 95.5545 115.606 95.308C116.852 95.0652 117.971 94.7802 118.895 94.5321C119.818 94.284 120.562 94.0359 121.069 93.8565C121.329 93.752 121.598 93.669 121.871 93.6084Z" fill="white"/>
<path d="M142.609 116.562C142.699 116.727 142.763 116.906 142.799 117.09C142.925 117.59 143.001 118.101 143.026 118.616C143.045 120.314 142.868 122.009 142.498 123.667C142.354 124.594 142.113 125.503 141.78 126.38C141.5 127.102 141.085 127.763 140.556 128.328C140.2 128.71 139.773 129.02 139.299 129.241C139.136 129.33 138.957 129.388 138.771 129.41C139.394 129.114 139.955 128.702 140.424 128.196C140.914 127.633 141.299 126.985 141.558 126.285C141.869 125.418 142.097 124.524 142.239 123.614C142.599 121.975 142.799 120.304 142.836 118.626C142.799 117.935 142.724 117.246 142.609 116.562Z" fill="white"/>
<path d="M153.207 117.934C153.16 117.934 152.912 117.406 152.363 116.593C151.635 115.552 150.731 114.644 149.692 113.912C148.648 113.187 147.485 112.651 146.256 112.328C145.311 112.086 144.673 112.043 144.704 111.996C144.847 111.969 144.994 111.969 145.137 111.996C145.528 112.015 145.916 112.068 146.298 112.154C146.871 112.277 147.432 112.453 147.971 112.682C149.298 113.231 150.489 114.063 151.46 115.121C151.853 115.551 152.207 116.015 152.516 116.509C152.723 116.844 152.9 117.198 153.044 117.564C153.117 117.679 153.172 117.803 153.207 117.934Z" fill="white"/>
<g opacity="0.3">
<path opacity="0.3" d="M122.177 145.592C122.303 145.53 122.415 145.442 122.503 145.332C122.592 145.223 122.656 145.096 122.692 144.96C122.727 144.823 122.732 144.681 122.707 144.542C122.682 144.404 122.627 144.272 122.546 144.157C122.349 143.96 122.11 143.81 121.847 143.718C121.584 143.627 121.303 143.596 121.026 143.629C118.297 143.682 115.917 145.508 113.236 145.999C111.198 146.368 109.092 145.951 107.108 145.35C105.123 144.748 103.186 143.961 101.149 143.576C100.727 143.468 100.287 143.457 99.8607 143.545C99.6478 143.591 99.4531 143.699 99.3004 143.855C99.1476 144.01 99.0434 144.207 99.0004 144.421C98.9476 144.848 99.0479 145.17 99.6918 145.387C99.6918 145.387 106.443 147.266 111.304 147.192C114.975 147.046 118.619 146.51 122.177 145.592Z" fill="black"/>
</g>
<path d="M262.828 223.06H226.008V228.121H262.828V223.06Z" fill="black"/>
<path d="M262.894 228.185H225.947V222.996H262.894V228.185ZM226.074 228.058H262.768V223.123H226.074V228.058Z" fill="black"/>
<path d="M229.424 226.433L234.723 252.581H254.337L259.457 228.116L229.424 226.433Z" fill="black"/>
<path d="M229.424 250.11L232.253 253.995H256.089L259.457 250.11H229.424Z" fill="#455A64"/>
<path d="M243.037 227.198C242.969 227.198 242.874 215.085 242.832 200.148C242.789 185.21 242.832 173.092 242.89 173.092C242.948 173.092 243.053 185.2 243.095 200.148C243.138 215.095 243.111 227.198 243.037 227.198Z" fill="black"/>
<path d="M251.238 196.886C251.218 196.983 251.186 197.077 251.143 197.165C251.053 197.371 250.948 197.635 250.81 197.952L250.573 198.517C250.494 198.728 250.414 198.96 250.325 199.203C250.235 199.446 250.145 199.731 250.045 199.995C249.945 200.258 249.866 200.575 249.771 200.892C249.333 202.371 248.989 203.877 248.741 205.399C248.453 207.269 248.263 209.152 248.171 211.042C248.035 214.477 248.132 217.917 248.462 221.339C248.578 222.654 248.699 223.72 248.789 224.454C248.826 224.797 248.857 225.076 248.878 225.298C248.892 225.396 248.892 225.496 248.878 225.594C248.842 225.501 248.819 225.403 248.81 225.303L248.667 224.464C248.551 223.736 248.403 222.675 248.261 221.361C247.875 217.932 247.752 214.479 247.891 211.031C247.983 209.134 248.182 207.243 248.488 205.368C248.746 203.837 249.109 202.325 249.575 200.844C249.681 200.528 249.765 200.222 249.871 199.942L250.172 199.155L250.441 198.474C250.531 198.269 250.626 198.084 250.705 197.915L251.079 197.15C251.121 197.056 251.175 196.967 251.238 196.886Z" fill="black"/>
<path d="M250.326 187.089C250.3 187.226 250.261 187.36 250.21 187.49C250.115 187.77 249.988 188.145 249.825 188.614L249.545 189.427C249.45 189.728 249.355 190.055 249.249 190.404C249.033 191.106 248.785 191.903 248.563 192.8C248.442 193.243 248.32 193.713 248.194 194.199C248.067 194.684 247.967 195.201 247.845 195.729C247.587 196.785 247.402 197.93 247.164 199.128C246.758 201.53 246.404 204.19 246.156 206.998C245.908 209.806 245.824 212.487 245.787 214.915C245.75 217.343 245.787 219.555 245.913 221.402C245.945 222.326 246.003 223.16 246.051 223.888C246.098 224.617 246.14 225.25 246.183 225.767C246.225 226.285 246.251 226.659 246.278 226.955C246.29 227.092 246.29 227.23 246.278 227.367C246.242 227.234 246.221 227.097 246.214 226.96C246.177 226.665 246.13 226.269 246.072 225.778C246.014 225.287 245.95 224.632 245.892 223.899C245.834 223.165 245.76 222.315 245.713 221.413C245.591 219.565 245.539 217.364 245.533 214.915C245.528 212.466 245.649 209.78 245.887 206.966C246.125 204.153 246.499 201.482 246.916 199.076C247.164 197.872 247.354 196.727 247.624 195.671C247.75 195.143 247.866 194.616 247.982 194.141C248.099 193.665 248.246 193.185 248.373 192.737C248.605 191.844 248.869 191.047 249.096 190.351C249.212 190.002 249.318 189.675 249.413 189.374C249.508 189.073 249.624 188.815 249.719 188.572L250.146 187.458C250.196 187.33 250.256 187.207 250.326 187.089Z" fill="black"/>
<path d="M240.708 229.34C240.703 229.293 240.703 229.245 240.708 229.198C240.708 229.092 240.708 228.955 240.677 228.781L240.566 227.197C240.476 225.783 240.355 223.772 240.196 221.296C239.88 216.314 239.415 209.431 238.576 201.862C238.148 198.083 237.652 194.473 237.135 191.232C236.861 189.601 236.607 188.065 236.328 186.613C236.048 185.162 235.8 183.837 235.536 182.613C235.272 181.388 235.008 180.295 234.807 179.33C234.607 178.364 234.385 177.53 234.216 176.854L233.831 175.271C233.794 175.107 233.762 174.97 233.741 174.864C233.726 174.818 233.717 174.77 233.715 174.722C233.736 174.765 233.752 174.811 233.762 174.859C233.794 174.964 233.836 175.096 233.884 175.26C233.984 175.63 234.132 176.152 234.311 176.807C234.491 177.461 234.723 178.306 234.95 179.271C235.177 180.237 235.478 181.33 235.715 182.554C235.953 183.779 236.275 185.109 236.544 186.555C236.813 188.002 237.072 189.543 237.373 191.168C237.9 194.43 238.428 198.03 238.84 201.814C239.679 209.389 240.112 216.277 240.381 221.265C240.518 223.756 240.613 225.772 240.666 227.171C240.666 227.852 240.714 228.39 240.73 228.754C240.73 228.923 240.73 229.06 240.73 229.171C240.731 229.228 240.724 229.285 240.708 229.34Z" fill="black"/>
<path d="M242.737 178.914C242.578 177.199 240.847 175.906 239.121 175.89C237.395 175.874 235.791 176.903 234.74 178.265C233.748 179.68 233.031 181.271 232.629 182.952C231.468 186.995 230.834 191.244 231.331 195.419C231.827 199.594 233.521 203.706 236.514 206.662C237.005 207.142 237.633 207.617 238.303 207.474C238.664 207.368 238.99 207.168 239.248 206.894C242.182 204.206 244.507 200.923 246.068 197.263C247.629 193.604 248.39 189.653 248.3 185.676C248.252 184.092 248.047 182.435 247.165 181.115C246.284 179.796 244.236 178.386 242.737 178.914Z" fill="#D63844"/>
<path d="M229.869 165.169L227.441 169.565C227.388 169.666 227.309 169.782 227.193 169.792C227.077 169.803 226.971 169.682 226.903 169.576L220.484 159.727L221.962 158.888L229.869 165.169Z" fill="#D63844"/>
<g opacity="0.2">
<path opacity="0.2" d="M229.865 165.17L227.437 169.566C227.384 169.667 227.305 169.783 227.189 169.793C227.073 169.804 226.967 169.683 226.899 169.577L220.48 159.728L221.958 158.889L229.865 165.17Z" fill="black"/>
</g>
<path d="M242.889 173.092L220.996 160.176C220.761 160.07 220.574 159.882 220.468 159.648C220.455 159.48 220.484 159.312 220.552 159.158C220.62 159.004 220.726 158.87 220.858 158.767C222.363 157.205 224.187 155.987 226.206 155.195C228.224 154.402 230.39 154.054 232.555 154.175C234.716 154.333 236.806 155.014 238.645 156.16C240.484 157.306 242.016 158.881 243.111 160.751C245.222 164.525 245.296 169.518 242.874 173.102" fill="#D63844"/>
<path d="M224.15 156.049C224.244 156.028 224.34 156.017 224.435 156.017C224.625 156.017 224.905 155.969 225.264 155.975C226.281 155.963 227.297 156.044 228.299 156.218C229.792 156.469 231.247 156.91 232.627 157.532C235.014 158.606 237.134 160.195 238.836 162.184C240.538 164.173 241.779 166.514 242.471 169.038C242.737 170.019 242.914 171.023 242.999 172.036C243.036 172.395 243.03 172.675 243.041 172.865C243.056 172.959 243.056 173.055 243.041 173.15C243.041 173.15 242.993 172.754 242.904 172.047C242.471 168.21 240.813 164.616 238.175 161.796C235.538 158.977 232.061 157.084 228.262 156.397C227.271 156.21 226.267 156.102 225.259 156.075C224.546 156.059 224.15 156.075 224.15 156.049Z" fill="black"/>
<path d="M239.921 164.177C239.574 164.396 239.202 164.573 238.813 164.705C238.116 164.979 237.145 165.333 236.052 165.676C234.96 166.019 233.941 166.299 233.234 166.478C232.846 166.599 232.446 166.675 232.041 166.705C232.407 166.53 232.791 166.393 233.186 166.299L235.973 165.428L238.755 164.53C239.129 164.37 239.521 164.251 239.921 164.177Z" fill="black"/>
<path d="M236.475 154.913C236.669 155.713 236.756 156.534 236.734 157.357C236.797 158.177 236.753 159.002 236.602 159.811C236.489 159 236.445 158.181 236.47 157.362C236.407 156.547 236.408 155.728 236.475 154.913Z" fill="black"/>
<path d="M220.805 159.928C221.316 159.698 221.846 159.51 222.388 159.369C223.386 159.062 224.769 158.672 226.31 158.313C227.851 157.954 229.266 157.653 230.29 157.474C230.839 157.349 231.399 157.275 231.963 157.252C231.427 157.425 230.881 157.561 230.326 157.658C229.313 157.885 227.914 158.186 226.373 158.566C224.832 158.946 223.444 159.3 222.441 159.559C221.905 159.72 221.358 159.844 220.805 159.928Z" fill="black"/>
<path d="M232.792 174.855C230.907 173.424 228.918 173.144 226.558 173.239C224.187 173.393 221.865 173.989 219.712 174.997C216.018 176.617 212.55 178.998 210.349 182.386C208.148 185.775 207.372 190.225 209.024 193.898C209.152 194.283 209.42 194.607 209.774 194.806C210.183 194.924 210.622 194.891 211.009 194.711C215.205 193.344 219.454 191.961 223.296 189.818C227.139 187.675 230.686 184.688 232.739 180.787C233.272 179.868 233.611 178.849 233.737 177.794C233.795 177.266 233.739 176.732 233.573 176.227C233.406 175.722 233.132 175.26 232.771 174.87" fill="#D63844"/>
<path d="M232.828 174.411C232.731 174.46 232.631 174.5 232.527 174.533L231.646 174.833L231.012 175.05C230.78 175.129 230.532 175.235 230.268 175.34C229.74 175.551 229.117 175.768 228.468 176.084L227.439 176.549C227.08 176.718 226.726 176.918 226.346 177.114C225.586 177.483 224.816 177.963 223.998 178.449C222.247 179.55 220.585 180.785 219.026 182.144C217.485 183.52 216.05 185.011 214.734 186.604C214.154 187.358 213.579 188.06 213.114 188.768C212.871 189.116 212.628 189.443 212.417 189.776L211.821 190.742C211.425 191.343 211.135 191.929 210.855 192.426L210.47 193.127L210.179 193.734L209.768 194.568C209.726 194.667 209.672 194.761 209.609 194.848C209.633 194.743 209.67 194.642 209.72 194.547L210.09 193.687C210.169 193.502 210.264 193.296 210.359 193.075C210.454 192.853 210.591 192.616 210.723 192.357C210.992 191.829 211.251 191.259 211.663 190.647L212.248 189.67C212.454 189.332 212.697 189 212.935 188.641C213.394 187.929 213.964 187.216 214.55 186.456C217.156 183.2 220.31 180.424 223.871 178.254C224.7 177.768 225.481 177.298 226.246 176.929C226.631 176.739 226.99 176.538 227.355 176.401L228.41 175.942C229.07 175.636 229.693 175.414 230.231 175.229L230.986 174.96L231.63 174.77L232.527 174.511C232.623 174.467 232.724 174.433 232.828 174.411Z" fill="black"/>
<path d="M218.128 182.375C216.63 182.948 215.103 183.44 213.552 183.848C212.024 184.342 210.47 184.751 208.896 185.072C210.396 184.499 211.925 184.008 213.478 183.6C215.004 183.106 216.557 182.698 218.128 182.375Z" fill="black"/>
<path d="M217.935 192.483C217.852 192.011 217.819 191.532 217.834 191.053C217.808 190.171 217.803 188.942 217.834 187.606C217.866 186.271 217.945 185.041 218.019 184.16C218.035 183.684 218.095 183.21 218.199 182.745C218.241 183.219 218.241 183.696 218.199 184.17C218.199 185.141 218.135 186.313 218.093 187.612C218.051 188.91 218.03 190.087 218.008 191.053C218.023 191.531 217.998 192.009 217.935 192.483Z" fill="black"/>
<path d="M226.575 188.071C226.501 188.071 226.274 185.595 226.047 182.534C225.82 179.473 225.72 176.987 225.794 176.981C225.867 176.976 226.094 179.457 226.321 182.518C226.548 185.58 226.664 188.066 226.575 188.071Z" fill="black"/>
<path d="M215.812 176.733C216.299 176.672 216.79 176.656 217.28 176.685C218.188 176.685 219.439 176.722 220.816 176.764C222.194 176.806 223.455 176.865 224.347 176.923C224.838 176.925 225.327 176.971 225.809 177.06C225.323 177.121 224.832 177.137 224.342 177.107C223.439 177.107 222.189 177.076 220.806 177.028C219.423 176.981 218.167 176.928 217.275 176.87C216.784 176.867 216.295 176.822 215.812 176.733Z" fill="black"/>
<path d="M237.452 207.838C237.434 207.738 237.424 207.638 237.42 207.537C237.42 207.315 237.42 207.009 237.383 206.676C237.352 205.932 237.341 204.85 237.383 203.509C237.426 202.169 237.494 200.585 237.652 198.822C237.811 197.06 238.069 195.128 238.423 193.122C238.777 191.116 239.22 189.211 239.669 187.501C240.117 185.791 240.598 184.271 241.036 183.009C241.474 181.748 241.849 180.729 242.139 180.037L242.471 179.246C242.506 179.152 242.551 179.062 242.603 178.977C242.588 179.076 242.562 179.173 242.524 179.267C242.445 179.478 242.35 179.747 242.234 180.074C241.975 180.776 241.622 181.795 241.21 183.067C240.798 184.339 240.35 185.859 239.901 187.564C239.452 189.269 239.041 191.164 238.682 193.164C238.323 195.165 238.075 197.091 237.895 198.844C237.716 200.596 237.616 202.185 237.568 203.52C237.521 204.855 237.494 205.932 237.494 206.687C237.494 207.035 237.494 207.32 237.494 207.547C237.492 207.645 237.477 207.743 237.452 207.838Z" fill="black"/>
<path d="M238.608 192.9C238.355 193.252 238.063 193.574 237.738 193.861C237.168 194.426 236.365 195.181 235.447 195.972C234.528 196.764 233.673 197.477 233.04 197.962C232.715 198.245 232.361 198.492 231.984 198.701C232.266 198.389 232.575 198.103 232.908 197.846L235.257 195.798L237.595 193.734C237.905 193.425 238.245 193.145 238.608 192.9Z" fill="black"/>
<path d="M245.54 198.485C245.198 198.079 244.888 197.649 244.611 197.197L242.447 194.03L240.235 190.905C239.907 190.489 239.613 190.048 239.354 189.586C239.741 189.957 240.094 190.361 240.409 190.795C241.016 191.565 241.829 192.653 242.684 193.882C243.539 195.112 244.267 196.252 244.795 197.091C245.086 197.532 245.335 197.998 245.54 198.485Z" fill="black"/>
<path d="M241.908 180.956C241.95 181.014 239.649 182.566 236.767 184.418C233.885 186.271 231.526 187.717 231.489 187.654C231.452 187.591 233.753 186.044 236.63 184.197C239.506 182.349 241.881 180.866 241.908 180.956Z" fill="black"/>
<path d="M248.4 187.934C247.18 186.928 246.017 185.855 244.916 184.719C243.755 183.644 242.654 182.506 241.617 181.31C242.835 182.32 243.998 183.395 245.101 184.529C246.263 185.602 247.364 186.739 248.4 187.934Z" fill="black"/>
<path d="M250.031 187.817L252.005 187.653C253.407 187.54 254.769 187.124 255.995 186.434C256.595 186.082 257.217 185.77 257.858 185.5C260.302 184.518 263.026 184.692 265.654 184.56C269.959 184.344 274.177 183.267 278.058 181.393C278.279 181.286 278.463 181.115 278.586 180.902C278.992 180.163 278.237 179.504 277.588 179.103C274.258 177.049 270.869 174.975 267.095 173.956C263.321 172.938 259.035 173.112 255.816 175.329C252.031 177.931 250.654 183.246 250.01 187.817" fill="#D63844"/>
<path d="M278.644 180.634C278.529 180.591 278.418 180.538 278.312 180.476L277.372 179.985C276.559 179.557 275.393 178.929 273.915 178.222C272.195 177.375 270.402 176.685 268.558 176.158C266.307 175.51 263.949 175.318 261.622 175.593C259.288 175.853 257.084 176.799 255.288 178.312C253.887 179.613 252.767 181.186 251.995 182.935C251.456 184.112 250.977 185.315 250.559 186.54C250.417 186.952 250.295 187.285 250.211 187.538C250.175 187.657 250.127 187.772 250.068 187.881C250.091 187.76 250.121 187.64 250.158 187.522L250.464 186.509C250.842 185.266 251.297 184.048 251.826 182.861C252.583 181.064 253.709 179.446 255.13 178.111C256.953 176.557 259.199 175.585 261.58 175.319C263.943 175.041 266.337 175.24 268.621 175.905C270.472 176.442 272.269 177.149 273.989 178.016C275.462 178.75 276.628 179.404 277.42 179.858L278.333 180.386C278.447 180.456 278.551 180.539 278.644 180.634Z" fill="black"/>
<path d="M273.898 183.184C273.856 183.242 271.259 181.568 268.129 179.447C264.999 177.325 262.46 175.557 262.502 175.499C262.545 175.441 265.142 177.082 268.271 179.23C271.401 181.378 273.94 183.12 273.898 183.184Z" fill="black"/>
<path d="M271.438 175.25C270.793 175.496 270.112 175.632 269.422 175.652C268.739 175.76 268.043 175.751 267.363 175.625C268.033 175.491 268.713 175.413 269.395 175.393C270.071 175.288 270.754 175.24 271.438 175.25Z" fill="black"/>
<path d="M259.827 173.171C259.619 173.772 259.333 174.343 258.978 174.87C258.699 175.444 258.344 175.977 257.922 176.454C258.13 175.853 258.416 175.282 258.772 174.754C259.052 174.182 259.407 173.649 259.827 173.171Z" fill="black"/>
<path d="M262.142 184.703C261.706 184.522 261.29 184.296 260.902 184.028C260.152 183.574 259.144 182.914 258.067 182.128C256.991 181.341 256.035 180.608 255.354 180.064C254.977 179.789 254.624 179.481 254.299 179.146C254.718 179.363 255.114 179.621 255.481 179.916L258.236 181.917C259.292 182.698 260.3 183.384 261.018 183.875C261.415 184.119 261.791 184.396 262.142 184.703Z" fill="black"/>
<path d="M252.965 196.188C251.081 195.692 248.838 197.524 248.447 199.434C248.057 201.345 248.775 203.298 249.614 205.056C251.399 209.002 254.055 212.492 257.383 215.264C260.756 217.956 264.984 219.676 269.296 219.65C268.499 215.955 269.507 212.086 269.064 208.328C268.675 205.015 267.172 201.931 264.802 199.584C262.431 197.236 259.333 195.764 256.016 195.407C254.813 195.275 253.419 195.085 252.939 196.199" fill="#D63844"/>
<path d="M269.295 219.638C269.201 219.61 269.113 219.569 269.031 219.517C268.781 219.38 268.545 219.221 268.323 219.042C267.532 218.355 266.897 217.508 266.46 216.556C266.159 215.97 265.827 215.337 265.5 214.635C265.172 213.933 264.84 213.183 264.486 212.391C264.119 211.57 263.703 210.772 263.24 210C262.729 209.18 262.156 208.4 261.525 207.668C260.232 206.153 258.849 204.838 257.651 203.587C256.564 202.493 255.575 201.306 254.695 200.041C254.105 199.183 253.619 198.258 253.249 197.285C253.152 197.021 253.069 196.751 253.001 196.478C252.973 196.383 252.951 196.286 252.938 196.188C252.964 196.188 253.069 196.573 253.344 197.243C253.748 198.19 254.252 199.091 254.848 199.93C255.743 201.17 256.736 202.335 257.82 203.413C259.028 204.654 260.422 205.963 261.726 207.493C262.363 208.236 262.942 209.026 263.457 209.858C263.924 210.641 264.34 211.454 264.703 212.291L265.695 214.54C266.011 215.236 266.339 215.875 266.629 216.461C267.04 217.404 267.638 218.253 268.387 218.958C268.941 219.438 269.326 219.617 269.295 219.638Z" fill="black"/>
<path d="M259.555 216.567C259.563 216.138 259.621 215.711 259.729 215.295C259.877 214.519 260.119 213.453 260.441 212.297C260.763 211.141 261.122 210.096 261.402 209.357C261.532 208.948 261.709 208.554 261.93 208.186C261.857 208.607 261.744 209.021 261.592 209.421C261.36 210.17 261.038 211.21 260.711 212.366C260.383 213.522 260.119 214.572 259.924 215.337C259.838 215.758 259.715 216.169 259.555 216.567Z" fill="black"/>
<path d="M268.942 207.484C268.491 207.42 268.046 207.318 267.612 207.178C266.8 206.966 265.681 206.676 264.445 206.391C263.21 206.106 262.06 205.895 261.236 205.737C260.785 205.679 260.34 205.582 259.906 205.446C260.363 205.432 260.819 205.468 261.268 205.552C262.102 205.663 263.253 205.853 264.504 206.138C265.754 206.423 266.879 206.739 267.67 206.998C268.111 207.111 268.538 207.274 268.942 207.484Z" fill="black"/>
<path d="M252.559 210.123C252.576 209.628 252.645 209.136 252.764 208.656C252.928 207.753 253.192 206.518 253.546 205.167C253.899 203.816 254.274 202.607 254.564 201.741C254.693 201.264 254.87 200.8 255.092 200.358C255.007 200.845 254.885 201.325 254.728 201.794C254.48 202.676 254.131 203.905 253.783 205.23C253.435 206.555 253.139 207.806 252.928 208.693C252.844 209.179 252.72 209.657 252.559 210.123Z" fill="black"/>
<path d="M264.619 199.567C264.619 199.641 262.254 199.446 259.341 199.14C257.588 198.999 255.844 198.77 254.115 198.453C254.115 198.385 256.475 198.575 259.367 198.881C261.128 199.021 262.881 199.25 264.619 199.567Z" fill="black"/>
<path d="M262.894 228.1C262.894 228.168 254.624 228.226 244.421 228.226C234.218 228.226 225.947 228.168 225.947 228.1C225.947 228.031 234.213 227.968 244.421 227.968C254.629 227.968 262.894 228.026 262.894 228.1Z" fill="#455A64"/>
<path d="M257.14 238.74C257.14 238.814 251.566 238.872 244.694 238.872C237.822 238.872 232.248 238.814 232.248 238.74C232.248 238.666 237.817 238.608 244.694 238.608C251.571 238.608 257.14 238.666 257.14 238.74Z" fill="#455A64"/>
<path d="M257.357 240.261C257.357 240.335 251.783 240.393 244.911 240.393C238.039 240.393 232.465 240.335 232.465 240.261C232.465 240.187 238.039 240.129 244.911 240.129C251.783 240.129 257.357 240.192 257.357 240.261Z" fill="#455A64"/>
<path d="M257.356 237.485C257.356 237.559 251.592 237.617 244.483 237.617C237.373 237.617 231.609 237.559 231.609 237.485C231.609 237.411 237.373 237.358 244.483 237.358C251.592 237.358 257.356 237.432 257.356 237.485Z" fill="#455A64"/>
</svg>
