<svg width="242" height="213" viewBox="0 0 242 213" fill="none" xmlns="http://www.w3.org/2000/svg">
<path d="M227.406 188.672L227.014 188.983L227.404 188.67C225.681 186.522 222.906 182.849 220.564 178.987C219.394 177.056 218.337 175.087 217.574 173.245C216.808 171.395 216.355 169.712 216.355 168.34C216.355 161.484 221.837 155.938 228.585 155.938C235.331 155.938 240.815 161.485 240.815 168.34C240.815 169.711 240.359 171.394 239.589 173.244C238.821 175.086 237.759 177.055 236.584 178.986C234.235 182.848 231.46 186.522 229.765 188.673C229.149 189.448 228.021 189.448 227.406 188.672ZM228.585 173.141C231.208 173.141 233.329 170.982 233.329 168.34C233.329 165.698 231.208 163.54 228.585 163.54C225.963 163.54 223.842 165.698 223.842 168.34C223.842 170.982 225.963 173.141 228.585 173.141Z" stroke="#F9F9F9"/>
<path d="M11.5435 39.2507C9.82075 37.1725 7.04612 33.6179 4.70514 29.8816C3.53457 28.0134 2.4785 26.1092 1.71653 24.3283C0.950964 22.539 0.5 20.9142 0.5 19.5929C0.5 12.9825 5.96626 7.60742 12.7299 7.60742C19.491 7.60742 24.9599 12.9826 24.9599 19.5929C24.9599 20.9135 24.5056 22.5378 23.7354 24.3273C22.9688 26.1083 21.9072 28.0125 20.7327 29.881C18.3845 33.6172 15.6099 37.1719 13.9145 39.253C13.299 40.0037 12.1607 40.0036 11.5453 39.2528L11.1588 39.5696L11.5435 39.2507ZM12.7299 24.2548C15.3374 24.2548 17.4733 22.1737 17.4733 19.5929C17.4733 17.0122 15.3374 14.9311 12.7299 14.9311C10.1225 14.9311 7.98663 17.0122 7.98663 19.5929C7.98663 22.1737 10.1225 24.2548 12.7299 24.2548Z" stroke="#922224"/>
<circle cx="127.3" cy="206.359" r="6.26671" stroke="#922224" stroke-width="0.75"/>
<circle cx="31.5472" cy="161.527" r="5.58824" stroke="white"/>
<circle cx="215.856" cy="14.8556" r="8.35561" stroke="white"/>
<path d="M117.61 128.056C104.288 111.588 74.6582 71.6726 74.6582 49.2525C74.6582 22.0507 96.5959 0 123.658 0C150.71 0 172.658 22.0507 172.658 49.2525C172.658 71.6726 142.799 111.588 129.707 128.056C126.568 131.981 120.749 131.981 117.61 128.056V128.056ZM123.658 65.6699C132.667 65.6699 139.992 58.3077 139.992 49.2525C139.992 40.1972 132.667 32.835 123.658 32.835C114.649 32.835 107.325 40.1972 107.325 49.2525C107.325 58.3077 114.649 65.6699 123.658 65.6699Z" fill="#922224"/>
</svg>
