<svg width="51" height="52" viewBox="0 0 51 52" fill="none" xmlns="http://www.w3.org/2000/svg">
<path d="M30.9528 0V7.24022H38.7513L28.4718 17.5864C25.5874 15.6951 22.1493 14.5976 18.4578 14.5976C8.26438 14.5976 1.65987e-10 22.9697 1.65987e-10 33.2979C-4.27673e-05 43.6263 8.26438 52 18.4578 52C28.6512 52 36.914 43.6263 36.914 33.2979C36.914 29.3721 35.7206 25.7289 33.6807 22.7207L43.7876 12.4801V20.3125H50.9332C50.9332 13.9653 51.0011 6.33074 51 0H30.9528ZM18.4578 22.1249C24.5484 22.1249 29.4849 27.1268 29.4849 33.2979C29.4849 39.4691 24.5484 44.4727 18.4578 44.4727C12.3672 44.4727 7.429 39.4691 7.429 33.2979C7.429 27.1268 12.3671 22.1249 18.4578 22.1249Z" fill="#FFEAEA"/>
</svg>
