<svg width="59" height="59" viewBox="0 0 59 59" fill="none" xmlns="http://www.w3.org/2000/svg">
<path d="M29.5 59C45.7924 59 59 45.7924 59 29.5C59 13.2076 45.7924 0 29.5 0C13.2076 0 0 13.2076 0 29.5C0 45.7924 13.2076 59 29.5 59Z" fill="#2B7034"/>
<path d="M30.2551 58.9906C44.1711 58.641 55.6932 48.6545 58.3986 35.4544L36.0555 13.1113L20.4213 33.963L21.0407 41.8168L19.8684 48.6042L30.2551 58.9906Z" fill="#3C9646"/>
<path d="M31.4048 49.1669H21.04C20.2623 49.1669 19.6128 48.5739 19.5425 47.7994L16.3889 13.1113H36.0556L32.9022 47.7994C32.8317 48.5739 32.1822 49.1669 31.4048 49.1669Z" fill="#BDF1F4"/>
<path d="M26.2554 13.1113V49.1669H31.4046C32.1823 49.1669 32.8318 48.5739 32.9021 47.7994L36.0555 13.1113H26.2554V13.1113Z" fill="#A6E0E0"/>
<path d="M25.3282 26.123C22.6932 25.6981 20.0947 25.4918 17.5012 25.3477L19.5421 47.7992C19.6124 48.5737 20.2619 49.1667 21.0396 49.1667H31.4044C32.1821 49.1667 32.8315 48.5737 32.9018 47.7992L34.8411 26.4682C31.788 27.2097 28.3312 26.7234 25.3282 26.123Z" fill="#71E2EF"/>
<path d="M26.2554 26.3003V49.1667H31.4046C32.1823 49.1667 32.8318 48.5737 32.9021 47.7992L34.8414 26.4682C32.0976 27.1345 29.0288 26.8088 26.2554 26.3003Z" fill="#38C6D9"/>
<path d="M37.7564 33.5084C37.0347 32.7446 37.5667 31.0701 38.9447 29.7681C40.3228 28.4662 42.7463 28.7941 42.7463 28.7941C42.7463 28.7941 42.9359 31.2324 41.558 32.5344C40.1801 33.836 38.4781 34.2721 37.7564 33.5084Z" fill="#6CAF5F"/>
<path d="M37.6337 36.0924C37.6142 36.0924 37.5947 36.091 37.5749 36.0882C37.3578 36.0561 37.208 35.8541 37.2399 35.6371C37.668 32.7422 36.8891 30.8404 36.8812 30.8218C36.7964 30.6195 36.8911 30.3869 37.0928 30.3015C37.2956 30.2161 37.5274 30.3105 37.6128 30.5119C37.6488 30.5967 38.4888 32.6225 38.0258 35.7538C37.997 35.9505 37.8273 36.0924 37.6337 36.0924Z" fill="#FFEDB5"/>
<path d="M37.6332 47.2275C37.1823 47.2275 37.0918 47.393 35.8667 48.1215C34.6417 48.85 34.0984 48.5685 33.5163 48.4527C29.8742 47.7277 26.5469 38.6194 30.2386 35.3415C33.9301 32.0638 36.8057 35.3415 36.8057 35.3415C37.7968 36.1395 38.4724 35.3415 38.4724 35.3415C38.4724 35.3415 41.3365 32.0638 45.028 35.3415C48.7195 38.6193 45.3924 47.7277 41.7503 48.4527C41.1682 48.5685 40.6249 48.85 39.3998 48.1215C38.1745 47.3932 38.0841 47.2275 37.6332 47.2275Z" fill="#FF5419"/>
<path d="M45.0279 35.3415C41.3364 32.0638 38.4724 35.3415 38.4724 35.3415C38.4724 35.3415 38.1036 35.7744 37.5125 35.6815V47.2331C37.5504 47.2298 37.5899 47.2276 37.6332 47.2276C38.0841 47.2276 38.1746 47.3931 39.3996 48.1216C40.6247 48.8501 41.168 48.5686 41.7501 48.4528C45.3922 47.7278 48.7195 38.6194 45.0279 35.3415Z" fill="#C92F00"/>
</svg>
