<svg width="59" height="59" viewBox="0 0 59 59" fill="none" xmlns="http://www.w3.org/2000/svg">
<path d="M29.5 59C45.7924 59 59 45.7924 59 29.5C59 13.2076 45.7924 0 29.5 0C13.2076 0 0 13.2076 0 29.5C0 45.7924 13.2076 59 29.5 59Z" fill="#6A657E"/>
<path d="M58.7709 33.1874L49.4946 23.5658L49.167 23.5834L46.1959 20.6123L46.6555 29.7315H27.2593L18.1401 20.6123L15.212 27.6607L15.1506 27.5993L9.47839 35.4057L33.1994 58.7695C46.5378 57.1007 57.1074 46.5274 58.7709 33.1874Z" fill="#8B86A4"/>
<path d="M41.9694 26.3833H17.0305V32.6181H41.9694V26.3833Z" fill="white"/>
<path d="M41.9694 29.5H17.0305V32.6173H41.9694V29.5Z" fill="#D0D1D3"/>
<path d="M17.0307 38.852H13.9133C13.0525 38.852 12.3546 38.1541 12.3546 37.2933V21.7066C12.3546 20.8458 13.0525 20.1479 13.9133 20.1479H17.0306C17.8914 20.1479 18.5893 20.8458 18.5893 21.7066V37.2933C18.5894 38.1541 17.8915 38.852 17.0307 38.852Z" fill="white"/>
<path d="M12.3546 29.5V37.2934C12.3546 38.1542 13.0525 38.8521 13.9133 38.8521H17.0306C17.8914 38.8521 18.5893 38.1542 18.5893 37.2934V29.5H12.3546Z" fill="#D1D1D1"/>
<path d="M11.387 35.7347H10.2052C9.67059 35.7347 9.2373 35.3014 9.2373 34.7668V24.233C9.2373 23.6984 9.67059 23.2651 10.2052 23.2651H11.387C11.9216 23.2651 12.3549 23.6984 12.3549 24.233V34.7668C12.3546 35.3014 11.9213 35.7347 11.387 35.7347Z" fill="#FF7F4F"/>
<path d="M9.23743 29.5V34.7669C9.23743 35.3012 9.67071 35.7348 10.2053 35.7348H11.3871C11.9217 35.7348 12.355 35.3015 12.355 34.7669V29.5H9.23743Z" fill="#D35933"/>
<path d="M41.9693 20.1479H45.0866C45.9474 20.1479 46.6453 20.8458 46.6453 21.7066V37.2933C46.6453 38.1541 45.9474 38.852 45.0866 38.852H41.9693C41.1085 38.852 40.4106 38.1541 40.4106 37.2933V21.7065C40.4106 20.8458 41.1085 20.1479 41.9693 20.1479Z" fill="white"/>
<path d="M40.4106 29.5V37.2934C40.4106 38.1542 41.1085 38.8521 41.9693 38.8521H45.0866C45.9474 38.8521 46.6453 38.1542 46.6453 37.2934V29.5H40.4106Z" fill="#D1D1D1"/>
<path d="M47.613 23.2651H48.7948C49.3294 23.2651 49.7627 23.6984 49.7627 24.233V34.7668C49.7627 35.3014 49.3294 35.7347 48.7948 35.7347H47.613C47.0784 35.7347 46.6451 35.3014 46.6451 34.7668V24.233C46.6454 23.6984 47.0787 23.2651 47.613 23.2651Z" fill="#FF7F4F"/>
<path d="M46.6454 29.5V34.7669C46.6454 35.3012 47.0787 35.7348 47.6132 35.7348H48.7951C49.3297 35.7348 49.7629 35.3015 49.7629 34.7669V29.5H46.6454Z" fill="#D35933"/>
</svg>
