<svg width="63" height="63" viewBox="0 0 63 63" fill="none" xmlns="http://www.w3.org/2000/svg">
<circle cx="31.5" cy="31.5" r="30" fill="#F1F1F1" stroke="white" stroke-width="3"/>
<path d="M31.5 3.53516C15.9076 3.53516 3.26758 16.1752 3.26758 31.7676C3.26758 43.6359 10.5916 53.7922 20.966 57.9674L27.0309 59.6466C28.4866 59.8782 29.979 60 31.5 60C34.4423 60 37.2792 59.5493 39.9462 58.7142L45.2313 56.4393C53.8812 51.6147 59.7324 42.3752 59.7324 31.7676C59.7324 16.1752 47.0924 3.53516 31.5 3.53516Z" fill="#A6C2D1"/>
<path d="M33.5608 7.75098C33.5608 7.75098 33.9464 11.8893 36.7456 13.4286C39.5448 14.9679 35.9228 18.3029 37.8905 19.2647C39.8581 20.2266 40.3036 24.558 35.5301 25.5409C30.7565 26.5237 27.516 23.5117 27.4427 20.5604C27.3693 17.609 23.399 15.969 25.1044 8.51394L33.5608 7.75098Z" fill="#474979"/>
<path d="M36.7457 13.4286C33.9466 11.8893 33.5609 7.75098 33.5609 7.75098L25.1044 8.51394C23.5875 15.1451 26.561 17.1757 27.2885 19.6203C31.1958 20.2522 33.9972 18.0233 33.9972 15.5916C33.9971 12.6454 36.7457 13.4286 36.7457 13.4286Z" fill="#3B3F6D"/>
<path d="M44.8677 55.5362C44.8343 55.4532 44.804 55.369 44.7769 55.2837L38.3913 35.1758L28.7272 36.2995L21.5175 53.5773C20.9373 54.9679 20.7499 56.4855 20.9658 57.9673C22.8915 58.7422 24.922 59.3112 27.0307 59.6465L26.7056 57.919C26.5548 57.1177 26.6833 56.2889 27.0694 55.5708L33.2377 44.102C33.4524 43.7027 34.0367 43.7395 34.1996 44.1626L39.0205 56.6858C39.0898 56.8657 39.1652 57.0431 39.2469 57.2178L39.9462 58.7141C41.7974 58.1345 43.5658 57.3681 45.2313 56.4392L44.8677 55.5362Z" fill="#474979"/>
<path d="M32.3531 16.3093L32.1024 14.8291C31.7205 15.2945 31.2527 15.6937 30.7216 16.0063C30.3022 16.2532 29.7925 16.3216 29.3243 16.1959C28.8264 16.0622 28.3554 15.8579 27.9265 15.5918L28.1353 16.8243C28.1355 16.826 28.4151 18.7408 26.5515 18.8376C27.0597 20.1125 29.0746 23.2881 31.2406 22.7267C34.1148 21.9817 34.1557 19.1238 34.5582 17.413C34.5838 17.3043 34.6193 17.1994 34.6616 17.0975C33.8999 17.524 32.7399 17.865 32.3531 16.3093Z" fill="#F9BD91"/>
<path d="M30.0717 22.692C31.0076 20.6023 30.6104 17.8356 30.2345 16.2032C29.9369 16.2764 29.6222 16.2758 29.3243 16.1959C28.8264 16.0622 28.3554 15.8579 27.9265 15.5918L28.1353 16.8242C28.1355 16.826 28.4151 18.7408 26.5515 18.8376C26.9664 19.8783 28.3858 22.1854 30.0717 22.692Z" fill="#EAA77A"/>
<path d="M47.7653 10.8223C47.0475 9.82297 45.6556 9.59481 44.6562 10.3127L42.8379 11.6188C42.9599 11.7 43.0616 11.8161 43.1259 11.9626L44.7352 15.5545C44.7472 15.5818 44.7549 15.61 44.7637 15.6379L47.2556 13.9312C48.2551 13.2135 48.4831 11.8215 47.7653 10.8223Z" fill="#EAA77A"/>
<path d="M17.5339 20.9129L18.8797 16.9316C18.8896 16.9022 18.904 16.8757 18.9171 16.8483L13.9994 15.4607C12.8152 15.1267 11.5843 15.8158 11.2503 16.9998C10.9162 18.1839 11.6052 19.4148 12.7894 19.7489L17.499 21.0778C17.505 21.0227 17.5156 20.9675 17.5339 20.9129Z" fill="#EAA77A"/>
<path d="M44.9048 15.2773L43.405 11.93C43.2148 11.4964 42.6739 11.3478 42.2889 11.6233L34.8789 16.3782C34.4793 16.6642 34.5949 16.7983 34.4823 17.2767C34.0886 18.9502 34.0485 21.746 31.2368 22.4749C29.0788 23.0343 27.073 19.8004 26.6225 18.6021C26.5386 18.379 26.3509 18.2122 26.1201 18.1527L19.4675 16.4344C19.0785 16.334 18.6781 16.5508 18.5496 16.9314L17.2038 20.9128C17.0698 21.3097 17.2794 21.7407 17.6743 21.8804L24.2957 24.0479C24.811 24.1943 25.1864 24.6382 25.2455 25.1707L25.5362 26.6361C25.5654 26.9003 25.636 27.1575 25.7446 27.3987C25.8159 27.5572 25.9107 27.704 26.0128 27.8445L26.9257 29.0997C27.1604 29.4838 27.3201 29.9089 27.3964 30.3524L28.7271 36.2994C34.4962 38.8475 38.3912 35.1757 38.3912 35.1757L37.0255 28.4766C36.951 27.9241 36.9471 27.3651 37.0132 26.8133C37.0656 26.3753 37.2231 25.9585 37.4313 25.5696C37.6879 25.0906 37.8307 24.5567 37.8317 24.013C37.8318 23.914 37.8288 23.8149 37.8227 23.716L37.6739 22.3093C37.6474 21.8825 37.8449 21.4727 38.1952 21.2276L44.6739 16.1691C44.9476 15.9605 45.0428 15.592 44.9048 15.2773Z" fill="#38808D"/>
<path d="M25.2453 2.6679C26.4684 1.78855 27.7513 1.90032 28.4878 2.1044C29.3548 1.33856 29.9487 1.24187 30.6381 1.49873C32.8926 2.33868 33.8986 5.8123 33.7995 7.94287V7.94356C33.5742 7.96303 33.3337 8.06398 33.1853 8.18843C33.1049 8.00187 32.9981 7.77347 32.8754 7.6625C32.7649 7.5626 32.6883 7.43238 32.6677 7.28626C32.5591 6.51281 32.04 4.30296 29.6903 5.05659C29.4101 6.50336 28.4224 9.08438 24.9417 9.09648C24.7698 9.0074 24.5132 8.96108 24.2891 8.99116L24.2889 8.99046C23.0029 7.92547 23.1774 4.15477 25.2453 2.6679Z" fill="#474979"/>
<path d="M25.0435 11.7239C25.0435 11.7239 24.5575 10.1285 24.7306 9.11566C24.4296 8.97369 23.8832 8.95848 23.674 9.21995C23.2454 9.75521 23.702 10.4138 23.9352 10.8373C24.0068 10.9674 24.0598 11.1014 24.0941 11.2384C24.1687 11.5359 24.3968 11.9554 25.093 11.8503C25.0764 11.8081 25.0598 11.7667 25.0435 11.7239Z" fill="#F9BD91"/>
<path d="M24.7639 10.457C24.6442 10.5818 24.4834 10.6691 24.2987 10.6941C24.1186 10.7185 23.9449 10.6798 23.7986 10.5959C23.8469 10.6821 23.8945 10.7633 23.935 10.8371C24.0066 10.9672 24.0596 11.1012 24.0939 11.2382C24.1685 11.5357 24.3966 11.9552 25.0928 11.8501C25.0763 11.808 25.0597 11.7667 25.0435 11.7238C25.0435 11.7238 24.8662 11.1413 24.7639 10.457Z" fill="#EAA77A"/>
<path d="M34.2364 7.78647C33.965 7.59023 33.4424 7.75041 33.1902 7.96751C33.6269 8.89768 33.5835 10.5649 33.5835 10.5649C33.5792 10.6105 33.5741 10.6549 33.5695 10.6998C34.2684 10.6156 34.3766 10.1506 34.3692 9.84387C34.3657 9.70271 34.381 9.55935 34.4155 9.41485C34.5276 8.94458 34.7922 8.18818 34.2364 7.78647Z" fill="#F9BD91"/>
<path d="M34.0383 9.37245C33.8486 9.39815 33.6655 9.35459 33.5144 9.26113C33.5993 9.95139 33.5835 10.5649 33.5835 10.5649C33.5793 10.6105 33.5742 10.6549 33.5696 10.6998C34.2685 10.6156 34.3767 10.1506 34.3692 9.84387C34.3658 9.70271 34.3812 9.55936 34.4155 9.41486C34.4342 9.3365 34.457 9.24984 34.4796 9.15869C34.3628 9.27093 34.2111 9.34894 34.0383 9.37245Z" fill="#EAA77A"/>
<path d="M32.894 7.5116C32.7777 7.41469 32.6955 7.2862 32.6711 7.14032C32.5285 6.2877 31.8311 3.6955 28.736 5.34923C28.6144 5.41422 28.4715 5.43358 28.3369 5.40339C24.913 4.6342 24.9316 7.31859 25.0215 8.17835C25.0368 8.3255 24.9918 8.47116 24.9055 8.59561C24.3268 9.43014 25.0273 11.7234 25.0273 11.7234C25.5409 13.0697 26.1338 14.041 26.6936 14.7371C27.3559 15.5607 28.2822 16.1467 29.3243 16.4265C29.7925 16.5522 30.3022 16.4838 30.7216 16.2369C31.6515 15.6896 32.3882 14.878 32.807 13.9077C33.161 13.0876 33.4737 11.9934 33.61 10.559C33.61 10.5587 33.6742 8.16164 32.894 7.5116Z" fill="#FCD2AE"/>
<path d="M28.7417 14.4589C28.3075 13.7458 27.8389 12.7575 27.4147 11.3992C27.4147 11.3992 26.8191 9.09168 27.2111 8.2825C27.2696 8.16185 27.2972 8.0185 27.2805 7.87157C27.2154 7.29494 27.1448 5.90222 27.8702 5.3181C24.9174 4.88954 24.936 7.35959 25.0215 8.1781C25.0368 8.32525 24.9918 8.47091 24.9055 8.59536C24.3268 9.42989 25.0273 11.7232 25.0273 11.7232C25.5409 13.0693 26.1338 14.0408 26.6936 14.7369C27.3559 15.5605 28.2822 16.1464 29.3243 16.4262C29.7925 16.5519 30.3022 16.4835 30.7216 16.2367C30.7222 16.2363 30.7227 16.236 30.7233 16.2356C29.9526 15.919 29.2552 15.3022 28.7417 14.4589Z" fill="#F9BD91"/>
<path d="M29.1625 1.90765C29.1625 1.90765 26.1542 -0.364883 23.3342 2.28182C20.5142 4.92864 22.3734 9.29867 24.9416 9.09644C27.5098 8.8942 28.8859 4.74092 30.9885 4.81686L29.1625 1.90765Z" fill="#474979"/>
<path d="M27.5817 1.17004C26.4513 0.857981 24.8651 0.844844 23.3342 2.2817C20.5142 4.92852 22.3734 9.29855 24.9416 9.09632C25.9579 9.01623 26.7872 8.3171 27.549 7.50666C25.5625 6.80027 24.6632 3.07728 27.5817 1.17004Z" fill="#3B3F6D"/>
<path d="M26.9614 9.71548C26.594 8.54124 25.3444 7.8874 24.17 8.25465L23.2821 8.53248C23.3048 8.15578 23.2241 7.76099 22.8261 7.6416C22.0712 7.41517 21.3132 9.00713 21.1895 9.27977C21.1834 9.28392 21.1771 9.2875 21.171 9.29164C21.1629 9.29706 21.1544 9.3019 21.1466 9.30743C21.1401 9.31192 21.1333 9.3155 21.127 9.31999L12.0965 15.7943C11.0965 16.5112 10.867 17.903 11.5839 18.903C12.2997 19.9014 13.6911 20.1335 14.6925 19.4156L23.4211 13.1578L25.5005 12.5071C26.6748 12.1395 27.3288 10.8897 26.9614 9.71548Z" fill="#FCD2AE"/>
<path d="M30.6488 28.0448C28.8678 25.5097 30.1677 22.463 30.1677 22.463L30.1673 22.4611C28.4481 22.0019 26.9972 19.5991 26.6225 18.6023C26.5386 18.3792 26.3509 18.2125 26.1201 18.1529L19.4675 16.4346C19.0785 16.3342 18.6781 16.5511 18.5496 16.9316L17.2038 20.913C17.0698 21.31 17.2794 21.7409 17.6743 21.8806L24.2957 24.0482C24.811 24.1945 25.1864 24.6384 25.2455 25.1709L25.5362 26.6362C25.5654 26.9004 25.636 27.1576 25.7446 27.3988C25.8159 27.5573 25.9107 27.7041 26.0128 27.8445L26.9257 29.0999C27.1604 29.484 27.3201 29.9091 27.3964 30.3526L28.7271 36.2996C30.4395 37.0559 31.9868 37.2643 33.316 37.1833C30.2226 34.3196 32.1322 30.1564 30.6488 28.0448Z" fill="#6FA7B1"/>
<path d="M16.3724 18.1317C14.9306 18.1317 13.7619 16.9629 13.7619 15.5212C13.7619 15.1308 13.8482 14.7608 14.0018 14.4282L12.0965 15.7942C11.0965 16.5111 10.867 17.9029 11.5839 18.9029C12.0501 19.5532 12.8014 19.8775 13.545 19.8279C13.9451 19.8011 14.3429 19.6662 14.6926 19.4155L16.4871 18.129C16.4489 18.1305 16.4108 18.1317 16.3724 18.1317Z" fill="#F9BD91"/>
<path d="M58.5734 2.17665C57.713 1.29719 56.3026 1.28174 55.4229 2.14231L54.7547 2.79615C54.5943 2.37244 54.2636 1.76884 53.7147 1.93074C52.9842 2.14623 53.1796 3.78521 53.2346 4.16237L44.6577 10.3115C43.6577 11.0284 43.4283 12.4202 44.1452 13.4202C44.8609 14.4186 46.2524 14.6507 47.2537 13.9327C56.4367 7.34019 56.4645 7.35678 56.7285 7.09843L58.5389 5.32716C59.4185 4.46659 59.4338 3.05612 58.5734 2.17665Z" fill="#F9BD91"/>
<path d="M45.4243 9.76172L44.6577 10.3113C43.6577 11.0281 43.4283 12.4199 44.1452 13.4199C44.8609 14.4183 46.2524 14.6504 47.2537 13.9325L48.1431 13.2949C46.1818 13.5061 44.7287 11.5665 45.4243 9.76172Z" fill="#EAA77A"/>
<path d="M28.7082 52.5241C28.1072 53.1087 27.2872 53.4693 26.3826 53.4693C24.54 53.4693 23.0464 51.9756 23.0464 50.133C23.0464 50.0515 23.0503 49.9711 23.0561 49.8911L21.5178 53.5775C20.9376 54.968 20.7501 56.4856 20.9661 57.9674C22.8917 58.7424 24.9223 59.3113 27.031 59.6466L26.7059 57.9191C26.555 57.1178 26.6835 56.289 27.0697 55.5709L28.7082 52.5241Z" fill="#3B3F6D"/>
<path d="M44.8677 55.5365C44.8343 55.4536 44.8039 55.3693 44.7769 55.284L42.8549 49.2319C42.8437 51.065 41.3547 52.5476 39.5191 52.5476C38.4976 52.5476 37.5839 52.088 36.9719 51.365L39.0203 56.6861C39.0896 56.866 39.1651 57.0434 39.2468 57.2181L39.946 58.7145C41.7973 58.1348 43.5656 57.3684 45.2311 56.4395L44.8677 55.5365Z" fill="#3B3F6D"/>
</svg>
