<svg width="54" height="47" viewBox="0 0 54 47" fill="none" xmlns="http://www.w3.org/2000/svg">
<rect x="-15" y="-16" width="83" height="83" rx="8" fill="#DE9A9A"/>
<path d="M51.7852 8.13058C51.2578 8.13058 50.5283 8.34914 49.5967 8.78627C48.665 9.2234 47.0742 10.0539 44.8242 11.2779L42.9785 13.2712C43.5762 13.6559 43.875 14.0755 43.875 14.5301C43.875 15.859 43.708 17.0305 43.374 18.0446C43.04 19.0588 42.5566 20.1691 41.9238 21.3756C41.291 22.582 40.8164 23.6574 40.5 24.6016C39.375 28.0286 38.1006 30.3804 36.6768 31.6568C35.2529 32.9332 33.1523 33.5714 30.375 33.5714C27.5625 33.5714 25.1719 32.5923 23.2031 30.6339C21.2344 28.6756 20.25 26.2976 20.25 23.5C20.25 20.7374 20.8916 18.6479 22.1748 17.2316C23.458 15.8153 25.8223 14.5476 29.2676 13.4286C30.1816 13.1138 31.2451 12.6505 32.458 12.0385C33.6709 11.4265 34.7959 10.9457 35.833 10.596C36.8701 10.2463 38.0566 10.0714 39.3926 10.0714L41.3965 7.8683C42.7324 4.82589 43.4004 2.9375 43.4004 2.20312C43.4004 1.60863 43.585 1.09282 43.9541 0.655692C44.3232 0.218564 44.7803 0 45.3252 0C45.8701 0 46.3271 0.218564 46.6963 0.655692C47.0654 1.09282 47.25 1.60863 47.25 2.20312C47.25 2.44792 46.9863 2.92001 46.459 3.61942C46.7754 4.35379 47.0391 4.82589 47.25 5.03571C47.5664 5.35045 48.3398 5.35045 49.5703 5.03571C50.7305 3.91667 51.4512 3.35714 51.7324 3.35714C52.3652 3.35714 52.9014 3.59319 53.3408 4.06529C53.7803 4.53739 54 5.10565 54 5.77009C54 6.43452 53.7803 6.99405 53.3408 7.44866C52.9014 7.90327 52.3828 8.13058 51.7852 8.13058ZM16.875 23.9721C16.875 27.5391 18.1494 30.5902 20.6982 33.1256C23.2471 35.6609 26.3145 36.9286 29.9004 36.9286C33.4512 36.9286 36.1406 36.1068 37.9688 34.4632C39.7969 32.8196 41.4492 29.8121 42.9258 25.4408C43.3125 24.1819 44.0332 22.5208 45.0879 20.4576C47.8652 22.9055 50.0449 25.5545 51.627 28.4046C53.209 31.2547 54 34.096 54 36.9286C54 39.0967 52.7695 40.9501 50.3086 42.4888C47.8477 44.0275 44.6221 45.1641 40.6318 45.8984C36.6416 46.6328 32.0977 47 27 47C23.8008 47 20.9443 46.8951 18.4307 46.6853C15.917 46.4754 13.4736 46.0733 11.1006 45.4788C8.72754 44.8843 6.75879 44.0975 5.19434 43.1183C3.62988 42.1391 2.37305 40.8452 1.42383 39.2366C0.474609 37.628 0 35.7396 0 33.5714C0 31.0186 0.483398 28.5007 1.4502 26.0179C2.41699 23.535 3.66504 21.3581 5.19434 19.4872C6.72363 17.6163 8.39355 15.9552 10.2041 14.5039C12.0146 13.0526 13.7988 11.9511 15.5566 11.1992C17.3145 10.4474 18.8789 10.0714 20.25 10.0714C22.5 10.0714 24.9609 10.4036 27.6328 11.0681C24.0117 12.5368 21.3135 14.2853 19.5381 16.3136C17.7627 18.3419 16.875 20.8947 16.875 23.9721Z" fill="#9D0000"/>
</svg>
