<svg width="42" height="56" viewBox="0 0 42 56" fill="none" xmlns="http://www.w3.org/2000/svg">
<path d="M40.6875 0H32.0469C30.8766 0 30.2969 1.41094 31.1172 2.24219L32.9656 4.09063L24.1391 12.9172C21.7109 11.3859 18.8344 10.5 15.75 10.5C7.05469 10.5 0 17.5547 0 26.25C0 33.7422 5.23906 40.0203 12.25 41.6063V44.625H8.3125C7.59062 44.625 7 45.2156 7 45.9375V50.3125C7 51.0344 7.59062 51.625 8.3125 51.625H12.25V54.6875C12.25 55.4094 12.8406 56 13.5625 56H17.9375C18.6594 56 19.25 55.4094 19.25 54.6875V51.625H23.1875C23.9094 51.625 24.5 51.0344 24.5 50.3125V45.9375C24.5 45.2156 23.9094 44.625 23.1875 44.625H19.25V41.6063C26.2609 40.0094 31.5 33.7422 31.5 26.25C31.5 23.1656 30.6141 20.2891 29.0828 17.8609L37.9094 9.03438L39.7578 10.8828C40.5891 11.7141 42 11.1234 42 9.95312V1.3125C42 0.590625 41.4094 0 40.6875 0ZM15.75 35C10.9266 35 7 31.0734 7 26.25C7 21.4266 10.9266 17.5 15.75 17.5C20.5734 17.5 24.5 21.4266 24.5 26.25C24.5 31.0734 20.5734 35 15.75 35Z" fill="#FFEAEA"/>
</svg>
