<svg width="251" height="197" viewBox="0 0 251 197" fill="none" xmlns="http://www.w3.org/2000/svg">
<circle cx="141.5" cy="88.5" r="70.5" fill="#D98E90"/>
<circle cx="141.5" cy="91.5" r="90" stroke="#5C2424" stroke-width="3" stroke-linecap="round" stroke-linejoin="round" stroke-dasharray="15 15"/>
<path d="M199.486 124.731C199.514 124.994 199.436 125.259 199.27 125.466C199.104 125.673 198.863 125.806 198.599 125.836L195.644 126.166C195.381 126.194 195.117 126.117 194.911 125.951C194.705 125.785 194.572 125.544 194.544 125.281L192.553 106.792C192.525 106.528 192.603 106.264 192.769 106.057C192.936 105.85 193.177 105.717 193.44 105.687L196.396 105.361C196.526 105.347 196.658 105.359 196.784 105.396C196.91 105.432 197.027 105.493 197.13 105.576C197.232 105.658 197.317 105.759 197.38 105.874C197.443 105.989 197.483 106.115 197.497 106.246L199.486 124.731ZM227.758 113.817C227.786 114.081 227.708 114.345 227.542 114.552C227.376 114.759 227.134 114.892 226.871 114.922L208.278 116.987C208.015 117.015 207.752 116.938 207.545 116.772C207.339 116.606 207.207 116.365 207.178 116.102L206.667 111.329C206.639 111.065 206.717 110.801 206.883 110.594C207.05 110.387 207.291 110.255 207.554 110.224L226.144 108.158C226.275 108.143 226.406 108.155 226.532 108.192C226.658 108.228 226.775 108.289 226.877 108.372C226.98 108.454 227.065 108.555 227.127 108.67C227.19 108.785 227.23 108.911 227.244 109.041L227.758 113.817ZM205.813 124.026C205.872 124.573 205.473 125.07 204.926 125.131L201.969 125.458C201.838 125.472 201.706 125.461 201.581 125.424C201.455 125.387 201.337 125.326 201.235 125.244C201.133 125.162 201.048 125.06 200.985 124.945C200.922 124.83 200.882 124.704 200.868 124.574L198.883 106.088C198.855 105.824 198.933 105.56 199.099 105.353C199.265 105.146 199.506 105.013 199.77 104.983L202.723 104.654C202.986 104.626 203.25 104.703 203.456 104.869C203.662 105.035 203.795 105.276 203.823 105.539L205.813 124.026ZM235.141 119.932C235.168 120.196 235.09 120.46 234.924 120.667C234.757 120.874 234.516 121.007 234.253 121.036L231.296 121.364C231.033 121.393 230.769 121.316 230.562 121.15C230.356 120.984 230.223 120.743 230.194 120.48L228.206 101.996C228.178 101.732 228.255 101.468 228.422 101.261C228.588 101.054 228.829 100.921 229.092 100.891L232.056 100.562C232.187 100.548 232.319 100.56 232.444 100.596C232.57 100.633 232.687 100.694 232.79 100.776C232.892 100.858 232.977 100.96 233.04 101.075C233.103 101.19 233.142 101.316 233.156 101.446L235.141 119.932ZM241.458 119.229C241.485 119.493 241.407 119.758 241.241 119.964C241.075 120.171 240.834 120.304 240.57 120.335L237.618 120.664C237.487 120.679 237.356 120.667 237.23 120.631C237.104 120.594 236.987 120.533 236.884 120.451C236.782 120.369 236.697 120.267 236.634 120.153C236.571 120.038 236.531 119.912 236.517 119.781L234.534 101.293C234.507 101.029 234.584 100.765 234.75 100.558C234.917 100.351 235.157 100.218 235.421 100.187L238.378 99.8561C238.508 99.8415 238.64 99.8529 238.765 99.8894C238.891 99.9259 239.008 99.9869 239.111 100.069C239.213 100.151 239.298 100.252 239.361 100.367C239.424 100.482 239.463 100.608 239.477 100.738L241.458 119.229Z" fill="#BB6060"/>
<path d="M158.125 51.75V52.25H158.625H165.375C170.836 52.25 175 56.4136 175 61.875V68.125H108.5V61.875C108.5 56.4136 112.664 52.25 118.125 52.25H124.875H125.375V51.75V48.375C125.375 47.4761 125.672 46.7659 126.157 46.2817C126.641 45.7974 127.351 45.5 128.25 45.5C129.149 45.5 129.859 45.7974 130.343 46.2817C130.828 46.7659 131.125 47.4761 131.125 48.375V51.75V52.25H131.625H151.875H152.375V51.75V48.375C152.375 47.4761 152.672 46.7659 153.157 46.2817C153.641 45.7974 154.351 45.5 155.25 45.5C156.149 45.5 156.859 45.7974 157.343 46.2817C157.828 46.7659 158.125 47.4761 158.125 48.375V51.75ZM118.125 112C112.664 112 108.5 107.836 108.5 102.375V75.875H175V102.375C175 107.836 170.836 112 165.375 112H118.125Z" fill="#C04C4C" stroke="#8B2626"/>
<path d="M128.049 81.927C128.348 81.0057 129.652 81.0057 129.951 81.927L130.347 83.1459C130.481 83.5579 130.865 83.8369 131.298 83.8369H132.58C133.548 83.8369 133.951 85.0765 133.167 85.6459L132.131 86.3992C131.78 86.6538 131.634 87.1052 131.767 87.5172L132.163 88.7361C132.463 89.6574 131.408 90.4235 130.625 89.8541L129.588 89.1008C129.237 88.8462 128.763 88.8462 128.412 89.1008L127.375 89.8541C126.592 90.4235 125.537 89.6574 125.837 88.7361L126.233 87.5172C126.366 87.1052 126.22 86.6538 125.869 86.3992L124.833 85.6459C124.049 85.0765 124.452 83.8369 125.42 83.8369H126.702C127.135 83.8369 127.519 83.5579 127.653 83.1459L128.049 81.927Z" fill="#DA8484"/>
<path d="M128.056 95.6975C128.369 94.8045 129.631 94.8045 129.944 95.6975L130.337 96.8217C130.478 97.2228 130.856 97.4914 131.281 97.4914H132.387C133.374 97.4914 133.764 98.7686 132.946 99.3204L132.182 99.8359C131.806 100.09 131.648 100.566 131.798 100.995L132.119 101.914C132.437 102.822 131.414 103.611 130.616 103.073L129.559 102.36C129.221 102.132 128.779 102.132 128.441 102.36L127.384 103.073C126.586 103.611 125.563 102.822 125.881 101.914L126.202 100.995C126.352 100.566 126.194 100.09 125.818 99.8359L125.054 99.3204C124.236 98.7686 124.626 97.4914 125.613 97.4914H126.719C127.144 97.4914 127.522 97.2228 127.663 96.8217L128.056 95.6975Z" fill="#DA8484"/>
<path d="M140.037 82.459C140.308 81.4834 141.692 81.4834 141.963 82.459L142.143 83.1052C142.264 83.5377 142.658 83.8369 143.107 83.8369H143.98C144.911 83.8369 145.337 84.9976 144.627 85.5997L143.668 86.4121C143.37 86.6645 143.247 87.0672 143.351 87.4432L143.653 88.527C143.918 89.4762 142.795 90.1952 142.043 89.5582L141.647 89.2218C141.274 88.9056 140.726 88.9056 140.353 89.2218L139.957 89.5582C139.205 90.1952 138.082 89.4762 138.347 88.527L138.649 87.4432C138.753 87.0672 138.63 86.6645 138.332 86.4121L137.373 85.5997C136.663 84.9976 137.089 83.8369 138.02 83.8369H138.893C139.342 83.8369 139.736 83.5377 139.857 83.1052L140.037 82.459Z" fill="#DA8484"/>
<path d="M140.042 96.1936C140.327 95.2433 141.673 95.2433 141.958 96.1936L142.133 96.7787C142.26 97.2017 142.65 97.4914 143.091 97.4914H143.819C144.768 97.4914 145.183 98.6901 144.437 99.2772L143.715 99.8462C143.392 100.1 143.257 100.526 143.375 100.919L143.618 101.73C143.899 102.665 142.809 103.407 142.042 102.803L141.618 102.47C141.256 102.184 140.744 102.184 140.382 102.47L139.958 102.803C139.191 103.407 138.101 102.665 138.382 101.73L138.625 100.919C138.743 100.526 138.608 100.1 138.285 99.8462L137.563 99.2772C136.817 98.6901 137.232 97.4914 138.181 97.4914H138.909C139.35 97.4914 139.74 97.2017 139.867 96.7787L140.042 96.1936Z" fill="#DA8484"/>
<path d="M153.049 81.927C153.348 81.0057 154.652 81.0057 154.951 81.927L155.347 83.1459C155.481 83.5579 155.865 83.8369 156.298 83.8369H157.58C158.548 83.8369 158.951 85.0765 158.167 85.6459L157.131 86.3992C156.78 86.6538 156.634 87.1052 156.767 87.5172L157.163 88.7361C157.463 89.6574 156.408 90.4235 155.625 89.8541L154.588 89.1008C154.237 88.8462 153.763 88.8462 153.412 89.1008L152.375 89.8541C151.592 90.4235 150.537 89.6574 150.837 88.7361L151.233 87.5172C151.366 87.1052 151.22 86.6538 150.869 86.3992L149.833 85.6459C149.049 85.0765 149.452 83.8369 150.42 83.8369H151.702C152.135 83.8369 152.519 83.5579 152.653 83.1459L153.049 81.927Z" fill="#DA8484"/>
<path d="M153.056 95.6975C153.369 94.8045 154.631 94.8045 154.944 95.6975L155.337 96.8217C155.478 97.2228 155.856 97.4914 156.281 97.4914H157.387C158.374 97.4914 158.764 98.7686 157.946 99.3204L157.182 99.8359C156.806 100.09 156.648 100.566 156.798 100.995L157.119 101.914C157.437 102.822 156.414 103.611 155.616 103.073L154.559 102.36C154.221 102.132 153.779 102.132 153.441 102.36L152.384 103.073C151.586 103.611 150.563 102.822 150.881 101.914L151.202 100.995C151.352 100.566 151.194 100.09 150.818 99.8359L150.054 99.3204C149.236 98.7686 149.626 97.4914 150.613 97.4914H151.719C152.144 97.4914 152.522 97.2228 152.663 96.8217L153.056 95.6975Z" fill="#DA8484"/>
<path d="M13.875 92.25C13.875 87.1625 18.0375 83 23.125 83C28.2125 83 32.375 87.1625 32.375 92.25C32.375 97.3375 28.2125 101.5 23.125 101.5C18.0375 101.5 13.875 97.3375 13.875 92.25ZM0 110.125C0 107.916 1.79086 106.125 4 106.125H26.4681C27.3018 106.125 28.1147 105.865 28.7931 105.38L57.1538 85.1223C58.8367 83.9202 61.1585 84.1992 62.5087 85.7659L63.482 86.8951C64.959 88.6089 64.7219 91.2057 62.9588 92.6236L53.7218 100.052C50.2688 102.829 53.2224 108.326 57.4439 106.98L59.6242 106.285C59.9566 106.179 60.2738 106.03 60.5675 105.841L93.2696 84.8785C94.9497 83.8015 97.1665 84.1276 98.4653 85.6428L99.0177 86.2873C100.505 88.0223 100.239 90.6484 98.4339 92.0499L63.8876 118.874C62.967 119.589 62.404 120.67 62.3458 121.834L60.315 162.45C60.2086 164.579 58.4515 166.25 56.32 166.25H54.679C52.5479 166.25 50.791 164.579 50.684 162.451L48.6526 122.035C48.5624 120.241 47.2874 118.727 45.5349 118.333L32.8083 115.472C32.5203 115.408 32.2261 115.375 31.9309 115.375H4C1.79086 115.375 0 113.584 0 111.375V110.125Z" fill="#BB6060"/>
<path d="M236 14L233.273 21.2727L226 24L233.273 26.7273L236 34L238.727 26.7273L246 24L238.727 21.2727L236 14Z" fill="#D98E90"/>
<path d="M60.5 1L57.9091 7.90909L51 10.5L57.9091 13.0909L60.5 20L63.0909 13.0909L70 10.5L63.0909 7.90909L60.5 1Z" fill="#D98E90"/>
<path d="M181.5 180L179.182 186.182L173 188.5L179.182 190.818L181.5 197L183.818 190.818L190 188.5L183.818 186.182L181.5 180Z" fill="#A76163"/>
</svg>
