<svg width="251" height="197" viewBox="0 0 251 197" fill="none" xmlns="http://www.w3.org/2000/svg">
<circle cx="141.5" cy="88.5" r="70.5" fill="#D98E90"/>
<circle cx="141.5" cy="91.5" r="90" stroke="#5C2424" stroke-width="3" stroke-linecap="round" stroke-linejoin="round" stroke-dasharray="15 15"/>
<path d="M199.486 124.731C199.514 124.994 199.436 125.259 199.27 125.466C199.104 125.673 198.863 125.806 198.599 125.836L195.644 126.166C195.381 126.194 195.117 126.117 194.911 125.951C194.705 125.785 194.572 125.544 194.544 125.281L192.553 106.792C192.525 106.528 192.603 106.264 192.769 106.057C192.936 105.85 193.177 105.717 193.44 105.687L196.396 105.361C196.526 105.347 196.658 105.359 196.784 105.396C196.91 105.432 197.027 105.493 197.13 105.576C197.232 105.658 197.317 105.759 197.38 105.874C197.443 105.989 197.483 106.115 197.497 106.246L199.486 124.731ZM227.758 113.817C227.786 114.081 227.708 114.345 227.542 114.552C227.376 114.759 227.134 114.892 226.871 114.922L208.278 116.987C208.015 117.015 207.752 116.938 207.545 116.772C207.339 116.606 207.207 116.365 207.178 116.102L206.667 111.329C206.639 111.065 206.717 110.801 206.883 110.594C207.05 110.387 207.291 110.255 207.554 110.224L226.144 108.158C226.275 108.143 226.406 108.155 226.532 108.192C226.658 108.228 226.775 108.289 226.877 108.372C226.98 108.454 227.065 108.555 227.127 108.67C227.19 108.785 227.23 108.911 227.244 109.041L227.758 113.817V113.817ZM205.813 124.026C205.872 124.573 205.473 125.07 204.926 125.131L201.969 125.458C201.838 125.472 201.706 125.461 201.581 125.424C201.455 125.387 201.337 125.326 201.235 125.244C201.133 125.162 201.048 125.06 200.985 124.945C200.922 124.83 200.882 124.704 200.868 124.574L198.883 106.088C198.855 105.824 198.933 105.56 199.099 105.353C199.265 105.146 199.506 105.013 199.77 104.983L202.723 104.654C202.986 104.626 203.25 104.703 203.456 104.869C203.662 105.035 203.795 105.276 203.823 105.539L205.813 124.026ZM235.141 119.932C235.168 120.196 235.09 120.46 234.924 120.667C234.757 120.874 234.516 121.007 234.253 121.036L231.296 121.364C231.033 121.393 230.769 121.316 230.562 121.15C230.356 120.984 230.223 120.743 230.194 120.48L228.206 101.996C228.178 101.732 228.255 101.468 228.422 101.261C228.588 101.054 228.829 100.921 229.092 100.891L232.056 100.562C232.187 100.548 232.319 100.56 232.444 100.596C232.57 100.633 232.687 100.694 232.79 100.776C232.892 100.858 232.977 100.96 233.04 101.075C233.103 101.19 233.142 101.316 233.156 101.446L235.141 119.932ZM241.458 119.229C241.485 119.493 241.407 119.758 241.241 119.964C241.075 120.171 240.834 120.304 240.57 120.335L237.618 120.664C237.487 120.679 237.356 120.667 237.23 120.631C237.104 120.594 236.987 120.533 236.884 120.451C236.782 120.369 236.697 120.267 236.634 120.153C236.571 120.038 236.531 119.912 236.517 119.781L234.534 101.293C234.507 101.029 234.584 100.765 234.75 100.558C234.917 100.351 235.157 100.218 235.421 100.187L238.378 99.8561C238.508 99.8415 238.64 99.8529 238.765 99.8894C238.891 99.9259 239.008 99.9869 239.111 100.069C239.213 100.151 239.298 100.252 239.361 100.367C239.424 100.482 239.463 100.608 239.477 100.738L241.458 119.229V119.229Z" fill="#BB6060"/>
<path d="M158.125 51.75V52.25H158.625H165.375C170.836 52.25 175 56.4136 175 61.875V68.125H108.5V61.875C108.5 56.4136 112.664 52.25 118.125 52.25H124.875H125.375V51.75V48.375C125.375 47.4761 125.672 46.7659 126.157 46.2817C126.641 45.7974 127.351 45.5 128.25 45.5C129.149 45.5 129.859 45.7974 130.343 46.2817C130.828 46.7659 131.125 47.4761 131.125 48.375V51.75V52.25H131.625H151.875H152.375V51.75V48.375C152.375 47.4761 152.672 46.7659 153.157 46.2817C153.641 45.7974 154.351 45.5 155.25 45.5C156.149 45.5 156.859 45.7974 157.343 46.2817C157.828 46.7659 158.125 47.4761 158.125 48.375V51.75ZM118.125 112C112.664 112 108.5 107.836 108.5 102.375V75.875H175V102.375C175 107.836 170.836 112 165.375 112H118.125Z" fill="#C04C4C" stroke="#8B2626"/>
<path d="M141.049 81.9271C141.348 81.0057 142.652 81.0057 142.951 81.9271L144.694 87.2918C144.828 87.7038 145.212 87.9828 145.645 87.9828H151.286C152.255 87.9828 152.658 89.2224 151.874 89.7918L147.31 93.1074C146.96 93.362 146.813 93.8134 146.947 94.2254L148.69 99.5902C148.99 100.511 147.935 101.278 147.151 100.708L142.588 97.3926C142.237 97.138 141.763 97.138 141.412 97.3926L136.849 100.708C136.065 101.278 135.01 100.511 135.31 99.5902L137.053 94.2254C137.187 93.8134 137.04 93.362 136.69 93.1074L132.126 89.7918C131.342 89.2224 131.745 87.9828 132.714 87.9828H138.355C138.788 87.9828 139.172 87.7038 139.306 87.2918L141.049 81.9271Z" fill="#DA8484"/>
<path d="M13.875 92.25C13.875 87.1625 18.0375 83 23.125 83C28.2125 83 32.375 87.1625 32.375 92.25C32.375 97.3375 28.2125 101.5 23.125 101.5C18.0375 101.5 13.875 97.3375 13.875 92.25ZM0 110.125C0 107.916 1.79086 106.125 4 106.125H26.4681C27.3018 106.125 28.1147 105.865 28.7931 105.38L57.1538 85.1223C58.8367 83.9202 61.1585 84.1992 62.5087 85.7659L63.482 86.8951C64.959 88.6089 64.7219 91.2057 62.9588 92.6236L53.7218 100.052C50.2688 102.829 53.2224 108.326 57.4439 106.98L59.6242 106.285C59.9566 106.179 60.2738 106.03 60.5675 105.841L93.2696 84.8785C94.9497 83.8015 97.1665 84.1276 98.4653 85.6428L99.0177 86.2873C100.505 88.0223 100.239 90.6484 98.4339 92.0499L63.8876 118.874C62.967 119.589 62.404 120.67 62.3458 121.834L60.315 162.45C60.2086 164.579 58.4515 166.25 56.32 166.25H54.679C52.5479 166.25 50.791 164.579 50.684 162.451L48.6526 122.035C48.5624 120.241 47.2874 118.727 45.5349 118.333L32.8083 115.472C32.5203 115.408 32.2261 115.375 31.9309 115.375H4C1.79086 115.375 0 113.584 0 111.375V110.125Z" fill="#BB6060"/>
<path d="M236 14L233.273 21.2727L226 24L233.273 26.7273L236 34L238.727 26.7273L246 24L238.727 21.2727L236 14Z" fill="#D98E90"/>
<path d="M60.5 1L57.9091 7.90909L51 10.5L57.9091 13.0909L60.5 20L63.0909 13.0909L70 10.5L63.0909 7.90909L60.5 1Z" fill="#D98E90"/>
<path d="M181.5 180L179.182 186.182L173 188.5L179.182 190.818L181.5 197L183.818 190.818L190 188.5L183.818 186.182L181.5 180Z" fill="#A76163"/>
</svg>
