<svg width="31" height="33" viewBox="0 0 31 33" fill="none" xmlns="http://www.w3.org/2000/svg">
<path d="M26.35 3.3H24.8V1.65C24.8 0.66 24.18 0 23.25 0C22.32 0 21.7 0.66 21.7 1.65V3.3H9.3V1.65C9.3 0.66 8.68 0 7.75 0C6.82 0 6.2 0.66 6.2 1.65V3.3H4.65C2.015 3.3 0 5.445 0 8.25V9.9H31V8.25C31 5.445 28.985 3.3 26.35 3.3ZM0 28.05C0 30.855 2.015 33 4.65 33H26.35C28.985 33 31 30.855 31 28.05V13.2H0V28.05ZM23.25 16.5C24.18 16.5 24.8 17.16 24.8 18.15C24.8 19.14 24.18 19.8 23.25 19.8C22.32 19.8 21.7 19.14 21.7 18.15C21.7 17.16 22.32 16.5 23.25 16.5ZM23.25 23.1C24.18 23.1 24.8 23.76 24.8 24.75C24.8 25.74 24.18 26.4 23.25 26.4C22.32 26.4 21.7 25.74 21.7 24.75C21.7 23.76 22.32 23.1 23.25 23.1ZM15.5 16.5C16.43 16.5 17.05 17.16 17.05 18.15C17.05 19.14 16.43 19.8 15.5 19.8C14.57 19.8 13.95 19.14 13.95 18.15C13.95 17.16 14.57 16.5 15.5 16.5ZM15.5 23.1C16.43 23.1 17.05 23.76 17.05 24.75C17.05 25.74 16.43 26.4 15.5 26.4C14.57 26.4 13.95 25.74 13.95 24.75C13.95 23.76 14.57 23.1 15.5 23.1ZM7.75 16.5C8.68 16.5 9.3 17.16 9.3 18.15C9.3 19.14 8.68 19.8 7.75 19.8C6.82 19.8 6.2 19.14 6.2 18.15C6.2 17.16 6.82 16.5 7.75 16.5ZM7.75 23.1C8.68 23.1 9.3 23.76 9.3 24.75C9.3 25.74 8.68 26.4 7.75 26.4C6.82 26.4 6.2 25.74 6.2 24.75C6.2 23.76 6.82 23.1 7.75 23.1Z" fill="#FDFDFD"/>
</svg>
