<svg id="share" xmlns="http://www.w3.org/2000/svg" width="14.771" height="16.113" viewBox="0 0 14.771 16.113">
    <path id="Path_29" data-name="Path 29" d="M319.032,18.182A2.182,2.182,0,1,1,316.85,16,2.182,2.182,0,0,1,319.032,18.182Zm0,0" transform="translate(-304.765 -15.496)" fill="#131b23"/>
    <path id="Path_30" data-name="Path 30" d="M301.353,5.371a2.686,2.686,0,1,1,2.686-2.686A2.688,2.688,0,0,1,301.353,5.371Zm0-4.364a1.678,1.678,0,1,0,1.678,1.678,1.68,1.68,0,0,0-1.678-1.678Zm0,0" transform="translate(-289.269)" fill="#131b23"/>
    <path id="Path_31" data-name="Path 31" d="M319.032,359.514a2.182,2.182,0,1,1-2.182-2.182A2.182,2.182,0,0,1,319.032,359.514Zm0,0" transform="translate(-304.765 -346.086)" fill="#131b23"/>
    <path id="Path_32" data-name="Path 32" d="M301.353,346.7a2.686,2.686,0,1,1,2.686-2.685A2.688,2.688,0,0,1,301.353,346.7Zm0-4.364a1.678,1.678,0,1,0,1.678,1.679A1.68,1.68,0,0,0,301.353,342.339Zm0,0" transform="translate(-289.269 -330.59)" fill="#131b23"/>
    <path id="Path_33" data-name="Path 33" d="M20.364,188.85a2.182,2.182,0,1,1-2.182-2.182A2.182,2.182,0,0,1,20.364,188.85Zm0,0" transform="translate(-15.497 -180.793)" fill="#131b23"/>
    <path id="Path_34" data-name="Path 34" d="M2.686,176.039a2.686,2.686,0,1,1,2.686-2.686,2.688,2.688,0,0,1-2.686,2.686Zm0-4.364a1.678,1.678,0,1,0,1.679,1.678,1.68,1.68,0,0,0-1.679-1.678Zm0,0" transform="translate(0 -165.297)" fill="#131b23"/>
    <path id="Path_35" data-name="Path 35" d="M115.02,95.11a.671.671,0,0,1-.333-1.255l6.23-3.552a.671.671,0,1,1,.665,1.167l-6.23,3.552A.667.667,0,0,1,115.02,95.11Zm0,0" transform="translate(-110.75 -87.375)" fill="#131b23"/>
    <path id="Path_36" data-name="Path 36" d="M121.272,271.114a.667.667,0,0,1-.332-.088l-6.23-3.552a.671.671,0,0,1,.665-1.167l6.23,3.552a.671.671,0,0,1-.333,1.255Zm0,0" transform="translate(-110.772 -257.84)" fill="#131b23"/>
</svg>