<svg width="31" height="33" viewBox="0 0 31 33" fill="none" xmlns="http://www.w3.org/2000/svg">
<path d="M4.17311 32.9999H1.78847C1.31414 32.9999 0.859236 32.8261 0.523832 32.5166C0.188428 32.2072 0 31.7875 0 31.3499V21.4499C0 21.0123 0.188428 20.5926 0.523832 20.2832C0.859236 19.9738 1.31414 19.7999 1.78847 19.7999H4.17311C4.64744 19.7999 5.10235 19.9738 5.43775 20.2832C5.77315 20.5926 5.96158 21.0123 5.96158 21.4499V31.3499C5.96158 31.7875 5.77315 32.2072 5.43775 32.5166C5.10235 32.8261 4.64744 32.9999 4.17311 32.9999Z" fill="#FDFDFD"/>
<path d="M20.8655 32.9999H18.4809C18.0065 32.9999 17.5516 32.8261 17.2162 32.5167C16.8808 32.2072 16.6924 31.7875 16.6924 31.3499V14.85C16.6924 14.4123 16.8808 13.9927 17.2162 13.6832C17.5516 13.3738 18.0065 13.2 18.4809 13.2H20.8655C21.3398 13.2 21.7947 13.3738 22.1301 13.6832C22.4655 13.9927 22.654 14.4123 22.654 14.85V31.3499C22.654 31.7875 22.4655 32.2072 22.1301 32.5167C21.7947 32.8261 21.3398 32.9999 20.8655 32.9999Z" fill="#FDFDFD"/>
<path d="M29.2117 33H26.827C26.3527 33 25.8978 32.8261 25.5624 32.5167C25.227 32.2073 25.0386 31.7876 25.0386 31.35V7.15C25.0386 6.71239 25.227 6.29271 25.5624 5.98327C25.8978 5.67384 26.3527 5.5 26.827 5.5H29.2117C29.686 5.5 30.1409 5.67384 30.4763 5.98327C30.8117 6.29271 31.0002 6.71239 31.0002 7.15V31.35C31.0002 31.7876 30.8117 32.2073 30.4763 32.5167C30.1409 32.8261 29.686 33 29.2117 33Z" fill="#FDFDFD"/>
<path d="M12.5198 33H10.1352C9.66082 33 9.20592 32.8261 8.87051 32.5167C8.53511 32.2073 8.34668 31.7876 8.34668 31.35V1.65C8.34668 1.21239 8.53511 0.792709 8.87051 0.483274C9.20592 0.173839 9.66082 0 10.1352 0H12.5198C12.9941 0 13.449 0.173839 13.7844 0.483274C14.1198 0.792709 14.3083 1.21239 14.3083 1.65V31.35C14.3083 31.7876 14.1198 32.2073 13.7844 32.5167C13.449 32.8261 12.9941 33 12.5198 33Z" fill="#FDFDFD"/>
</svg>
