<svg width="328" height="361" viewBox="0 0 328 361" fill="none" xmlns="http://www.w3.org/2000/svg">
<path d="M0 69.1778C0 47.5886 13.864 28.4342 34.6819 22.7149C69.3392 13.1936 123.196 0.5 164 0.5C204.804 0.5 258.661 13.1936 293.318 22.7149C314.136 28.4342 328 47.5886 328 69.1778V262.586C328 278.557 320.394 293.696 307.209 302.707C196.287 378.511 127.125 379.96 19.7313 302.729C7.15373 293.684 0 278.927 0 263.435V69.1778Z" fill="#B42F32"/>
<path d="M9 79.5221C9 56.819 24.2877 36.9664 46.4765 32.1613C78.2315 25.2847 124.044 16.8481 159 16.4999C197.098 16.1205 247.396 25.099 281.347 32.2926C303.628 37.0135 319 56.9012 319 79.6763V250.572C319 267.657 310.345 283.677 295.641 292.376C190.05 354.841 125.046 356.095 29.8426 292.571C16.5499 283.702 9 268.549 9 252.569V79.5221Z" fill="#620C0E"/>
</svg>
