<svg xmlns="http://www.w3.org/2000/svg" width="27.362" height="27.362" viewBox="0 0 27.362 27.362">
    <g id="Group_103" data-name="Group 103" transform="translate(-293.76 -108.04)">
        <g id="Group_101" data-name="Group 101" transform="translate(293.76 111.843)">
            <path id="Path_198" data-name="Path 198" d="M315.31,115.35h-14.7a5.342,5.342,0,0,0-5.348,5.348v10.9a5.342,5.342,0,0,0,5.348,5.348h14.7a5.342,5.342,0,0,0,5.348-5.348V120.7A5.342,5.342,0,0,0,315.31,115.35Zm4.366,16.247a4.369,4.369,0,0,1-4.366,4.366h-14.7a4.369,4.369,0,0,1-4.366-4.366V120.7a4.369,4.369,0,0,1,4.366-4.366h14.7a4.369,4.369,0,0,1,4.366,4.366Z" transform="translate(-294.278 -114.368)" fill="#131b23"/>
            <path id="Path_199" data-name="Path 199" d="M314.792,113.85h-14.7a6.33,6.33,0,0,0-6.33,6.33v10.9a6.33,6.33,0,0,0,6.33,6.33h14.7a6.33,6.33,0,0,0,6.33-6.33v-10.9A6.33,6.33,0,0,0,314.792,113.85Zm4.366,17.229a4.369,4.369,0,0,1-4.366,4.366h-14.7a4.369,4.369,0,0,1-4.366-4.366v-10.9a4.369,4.369,0,0,1,4.366-4.366h14.7a4.369,4.369,0,0,1,4.366,4.366Z" transform="translate(-293.76 -113.85)" fill="#131b23"/>
        </g>
        <g id="Group_102" data-name="Group 102" transform="translate(300.666 108.04)">
            <path id="Path_200" data-name="Path 200" d="M315.616,109.54h-8.248a1.557,1.557,0,0,0-1.558,1.558v2.245h11.364V111.1A1.557,1.557,0,0,0,315.616,109.54Zm-8.824,2.821V111.1a.577.577,0,0,1,.576-.576h8.248a.577.577,0,0,1,.576.576v1.263Z" transform="translate(-304.828 -108.558)" fill="#131b23"/>
            <path id="Path_201" data-name="Path 201" d="M315.1,108.04H306.85a2.542,2.542,0,0,0-2.54,2.54v3.227h13.328V110.58A2.542,2.542,0,0,0,315.1,108.04Zm-8.824,3.8V110.58a.577.577,0,0,1,.576-.576H315.1a.577.577,0,0,1,.576.576v1.263Z" transform="translate(-304.31 -108.04)" fill="#131b23"/>
        </g>
    </g>
</svg>