<svg width="185" height="148" viewBox="0 0 185 148" fill="none" xmlns="http://www.w3.org/2000/svg">
<path d="M11.3305 36V9H0.0804672V0H36.0805L27.0805 9H20.3305V36H11.3305ZM44.9483 36V0H71.9483L76.4483 4.5V18L71.9483 22.5H69.6983L76.4483 36H67.4483L58.4483 18V13.5H67.4483V9H53.9483V36H44.9483ZM83.0661 36L101.066 0H110.066L128.066 36H116.816L114.566 31.5H98.8161L103.316 22.5H110.066L105.566 13.5L94.3161 36H83.0661ZM134.684 36V0H143.684V36H134.684ZM152.552 36V0H163.802L175.052 22.5V0H184.052V36H172.802L161.552 13.5V36H152.552ZM27.0144 92L22.5144 87.5V56H31.5144V83H36.0144V56H45.0144V83H49.5144V56H58.5144V87.5L54.0144 92H42.7644L40.5144 87.5L38.2644 92H27.0144ZM67.3822 92V56H76.3822V92H67.3822ZM96.5 92V65H85.25V56H121.25L112.25 65H105.5V92H96.5ZM130.118 92V56H139.118V69.5H152.618V56H161.618V92H152.618V78.5H139.118V92H130.118ZM33.9444 139V134.5H20.4444V139H33.9444ZM33.9444 125.5V121H20.4444V125.5H33.9444ZM11.4444 148V112H38.4444L42.9444 116.5V125.5L40.6944 130L42.9444 134.5V143.5L38.4444 148H11.4444ZM51.8122 148V112H78.8122V121H60.8122V125.5H78.8122V134.5H60.8122V139H78.8122L87.8122 148H51.8122ZM96.68 148V139H119.18V134.5H101.18L96.68 130V116.5L101.18 112H132.68L128.18 121H105.68V125.5H128.18V139L119.18 148H96.68ZM152.798 148V121H141.548V112H177.548L168.548 121H161.798V148H152.798Z" fill="white"/>
</svg>
