<svg width="215" height="13" viewBox="0 0 215 13" fill="none" xmlns="http://www.w3.org/2000/svg">
<path d="M15.063 0.768C15.159 0.768 15.239 0.794666 15.303 0.848C15.367 0.890666 15.399 0.965333 15.399 1.072C15.399 1.11467 15.3883 1.168 15.367 1.232L11.703 11.792C11.6817 11.856 11.639 11.9093 11.575 11.952C11.5217 11.984 11.4683 12 11.415 12C11.3403 12 11.271 11.9893 11.207 11.968C11.1537 11.936 11.1163 11.8827 11.095 11.808L8.103 4.256H8.231L5.239 11.808C5.207 11.8827 5.159 11.936 5.095 11.968C5.04167 11.9893 4.97767 12 4.903 12C4.84967 12 4.79633 11.984 4.743 11.952C4.68967 11.9093 4.65233 11.856 4.631 11.792L0.967 1.232C0.945667 1.168 0.935 1.12 0.935 1.088C0.935 0.981333 0.972333 0.901333 1.047 0.848C1.13233 0.794666 1.21233 0.768 1.287 0.768C1.351 0.768 1.40967 0.789333 1.463 0.832C1.527 0.863999 1.56967 0.911999 1.591 0.976L5.031 10.912L4.919 10.928L7.863 3.488C7.88433 3.424 7.92167 3.376 7.975 3.344C8.02833 3.30133 8.09233 3.28 8.167 3.28C8.231 3.28 8.28967 3.30133 8.343 3.344C8.407 3.376 8.44967 3.424 8.471 3.488L11.447 10.976L11.303 10.992L14.743 0.976C14.7643 0.911999 14.8017 0.863999 14.855 0.832C14.9083 0.789333 14.9777 0.768 15.063 0.768ZM21.9211 11.68C21.9211 11.7653 21.8891 11.84 21.8251 11.904C21.7611 11.968 21.6865 12 21.6011 12C21.5051 12 21.4251 11.968 21.3611 11.904C21.3078 11.84 21.2811 11.7653 21.2811 11.68V4.08C21.2811 3.99467 21.3131 3.92 21.3771 3.856C21.4411 3.792 21.5158 3.76 21.6011 3.76C21.6971 3.76 21.7718 3.792 21.8251 3.856C21.8891 3.92 21.9211 3.99467 21.9211 4.08V11.68ZM21.6011 2.672C21.4305 2.672 21.2918 2.624 21.1851 2.528C21.0891 2.432 21.0411 2.30933 21.0411 2.16V2.032C21.0411 1.88267 21.0945 1.76 21.2011 1.664C21.3078 1.568 21.4465 1.52 21.6171 1.52C21.7665 1.52 21.8891 1.568 21.9851 1.664C22.0918 1.76 22.1451 1.88267 22.1451 2.032V2.16C22.1451 2.30933 22.0918 2.432 21.9851 2.528C21.8891 2.624 21.7611 2.672 21.6011 2.672ZM27.842 3.952H31.554C31.6393 3.952 31.7087 3.984 31.762 4.048C31.826 4.112 31.858 4.18133 31.858 4.256C31.858 4.34133 31.826 4.416 31.762 4.48C31.7087 4.53333 31.6393 4.56 31.554 4.56H27.842C27.7673 4.56 27.698 4.528 27.634 4.464C27.57 4.4 27.538 4.33067 27.538 4.256C27.538 4.17067 27.57 4.10133 27.634 4.048C27.698 3.984 27.7673 3.952 27.842 3.952ZM29.474 1.6C29.57 1.6 29.6447 1.632 29.698 1.696C29.762 1.76 29.794 1.83467 29.794 1.92V10.256C29.794 10.608 29.8367 10.8693 29.922 11.04C30.018 11.2 30.1353 11.3067 30.274 11.36C30.4127 11.4027 30.546 11.424 30.674 11.424C30.7487 11.424 30.8127 11.4133 30.866 11.392C30.9193 11.3707 30.9833 11.36 31.058 11.36C31.1327 11.36 31.1967 11.392 31.25 11.456C31.3033 11.5093 31.33 11.5733 31.33 11.648C31.33 11.744 31.266 11.8293 31.138 11.904C31.0207 11.968 30.8713 12 30.69 12C30.626 12 30.5087 12 30.338 12C30.178 11.9893 30.002 11.9413 29.81 11.856C29.6287 11.76 29.474 11.5947 29.346 11.36C29.218 11.1147 29.154 10.7573 29.154 10.288V1.92C29.154 1.83467 29.186 1.76 29.25 1.696C29.314 1.632 29.3887 1.6 29.474 1.6ZM41.2725 3.76C41.9445 3.76 42.4885 3.89333 42.9045 4.16C43.3312 4.42667 43.6405 4.78933 43.8325 5.248C44.0352 5.70667 44.1365 6.21867 44.1365 6.784V11.68C44.1365 11.7653 44.1045 11.84 44.0405 11.904C43.9765 11.968 43.9018 12 43.8165 12C43.7205 12 43.6405 11.968 43.5765 11.904C43.5232 11.84 43.4965 11.7653 43.4965 11.68V6.848C43.4965 6.38933 43.4165 5.97333 43.2565 5.6C43.1072 5.22667 42.8618 4.928 42.5205 4.704C42.1898 4.48 41.7525 4.368 41.2085 4.368C40.7392 4.368 40.2805 4.48 39.8325 4.704C39.3845 4.928 39.0112 5.22667 38.7125 5.6C38.4245 5.97333 38.2805 6.38933 38.2805 6.848V11.68C38.2805 11.7653 38.2485 11.84 38.1845 11.904C38.1205 11.968 38.0458 12 37.9605 12C37.8645 12 37.7845 11.968 37.7205 11.904C37.6672 11.84 37.6405 11.7653 37.6405 11.68V4.336C37.6405 4.25067 37.6725 4.176 37.7365 4.112C37.8005 4.048 37.8752 4.016 37.9605 4.016C38.0565 4.016 38.1312 4.048 38.1845 4.112C38.2485 4.176 38.2805 4.25067 38.2805 4.336V5.904L37.8805 6.672C37.8805 6.288 37.9818 5.92 38.1845 5.568C38.3872 5.216 38.6538 4.90667 38.9845 4.64C39.3152 4.36267 39.6778 4.14933 40.0725 4C40.4778 3.84 40.8778 3.76 41.2725 3.76ZM54.3968 12.16C53.5968 12.16 52.8874 11.9893 52.2688 11.648C51.6608 11.3067 51.1808 10.8267 50.8288 10.208C50.4768 9.57867 50.3008 8.84267 50.3008 8C50.3008 7.104 50.4714 6.34133 50.8128 5.712C51.1648 5.08267 51.6128 4.60267 52.1568 4.272C52.7114 3.93067 53.2981 3.76 53.9168 3.76C54.3648 3.76 54.8021 3.83467 55.2288 3.984C55.6554 4.12267 56.0341 4.34667 56.3648 4.656C56.7061 4.95467 56.9781 5.33333 57.1808 5.792C57.3941 6.24 57.5114 6.77867 57.5328 7.408C57.5328 7.49333 57.5008 7.57333 57.4368 7.648C57.3728 7.712 57.2981 7.744 57.2128 7.744H50.6848L50.5888 7.136H57.0368L56.8768 7.28V6.992C56.8234 6.42667 56.6421 5.952 56.3328 5.568C56.0341 5.184 55.6714 4.896 55.2448 4.704C54.8181 4.50133 54.3754 4.4 53.9168 4.4C53.5968 4.4 53.2608 4.47467 52.9088 4.624C52.5568 4.76267 52.2314 4.98133 51.9328 5.28C51.6341 5.568 51.3888 5.936 51.1968 6.384C51.0154 6.832 50.9248 7.35467 50.9248 7.952C50.9248 8.60267 51.0528 9.2 51.3088 9.744C51.5754 10.288 51.9648 10.7253 52.4768 11.056C52.9994 11.3867 53.6394 11.552 54.3968 11.552C54.7594 11.552 55.1008 11.4933 55.4208 11.376C55.7408 11.248 56.0288 11.0827 56.2848 10.88C56.5408 10.6773 56.7488 10.4587 56.9088 10.224C56.9941 10.128 57.0848 10.08 57.1808 10.08C57.2554 10.08 57.3194 10.112 57.3728 10.176C57.4261 10.2293 57.4528 10.2933 57.4528 10.368C57.4528 10.4427 57.4314 10.5067 57.3888 10.56C57.0581 10.9867 56.6314 11.36 56.1088 11.68C55.5968 12 55.0261 12.16 54.3968 12.16ZM63.2394 10.72C63.1647 10.592 63.1274 10.4907 63.1274 10.416C63.138 10.3307 63.1807 10.2613 63.2554 10.208C63.3087 10.1547 63.378 10.1333 63.4634 10.144C63.5594 10.144 63.6394 10.1813 63.7034 10.256C63.9807 10.6507 64.3327 10.9707 64.7594 11.216C65.1967 11.4613 65.7087 11.584 66.2954 11.584C66.6474 11.584 66.9834 11.5253 67.3034 11.408C67.634 11.2907 67.9007 11.1147 68.1034 10.88C68.3167 10.6453 68.4234 10.3573 68.4234 10.016C68.4234 9.65333 68.322 9.36533 68.1194 9.152C67.9167 8.928 67.6554 8.752 67.3354 8.624C67.0154 8.496 66.6794 8.38933 66.3274 8.304C65.954 8.208 65.5967 8.10133 65.2554 7.984C64.9247 7.856 64.6314 7.70133 64.3754 7.52C64.1194 7.328 63.9167 7.104 63.7674 6.848C63.618 6.592 63.5434 6.288 63.5434 5.936C63.5434 5.52 63.6554 5.14667 63.8794 4.816C64.1034 4.48533 64.418 4.22933 64.8234 4.048C65.2287 3.856 65.698 3.76 66.2314 3.76C66.4874 3.76 66.7594 3.792 67.0474 3.856C67.3354 3.92 67.6234 4.032 67.9114 4.192C68.1994 4.34133 68.466 4.55467 68.7114 4.832C68.7967 4.896 68.834 4.976 68.8234 5.072C68.8234 5.15733 68.786 5.23733 68.7114 5.312C68.6474 5.35467 68.578 5.376 68.5034 5.376C68.4287 5.376 68.3647 5.344 68.3114 5.28C68.034 4.97067 67.7087 4.74133 67.3354 4.592C66.9727 4.44267 66.5834 4.368 66.1674 4.368C65.8154 4.368 65.4847 4.42667 65.1754 4.544C64.8767 4.66133 64.6314 4.83733 64.4394 5.072C64.2474 5.296 64.1514 5.584 64.1514 5.936C64.1727 6.26667 64.2847 6.53867 64.4874 6.752C64.7007 6.96533 64.978 7.14133 65.3194 7.28C65.6714 7.41867 66.066 7.54667 66.5034 7.664C66.8554 7.74933 67.1807 7.85067 67.4794 7.968C67.7887 8.07467 68.0554 8.21333 68.2794 8.384C68.514 8.55467 68.6954 8.768 68.8234 9.024C68.962 9.28 69.0314 9.6 69.0314 9.984C69.0314 10.432 68.9087 10.8213 68.6634 11.152C68.4287 11.472 68.098 11.7227 67.6714 11.904C67.2554 12.0747 66.7754 12.16 66.2314 12.16C65.6767 12.16 65.1434 12.048 64.6314 11.824C64.1194 11.6 63.6554 11.232 63.2394 10.72ZM74.6769 10.72C74.6022 10.592 74.5649 10.4907 74.5649 10.416C74.5755 10.3307 74.6182 10.2613 74.6929 10.208C74.7462 10.1547 74.8155 10.1333 74.9009 10.144C74.9969 10.144 75.0769 10.1813 75.1409 10.256C75.4182 10.6507 75.7702 10.9707 76.1969 11.216C76.6342 11.4613 77.1462 11.584 77.7329 11.584C78.0849 11.584 78.4209 11.5253 78.7409 11.408C79.0715 11.2907 79.3382 11.1147 79.5409 10.88C79.7542 10.6453 79.8609 10.3573 79.8609 10.016C79.8609 9.65333 79.7595 9.36533 79.5569 9.152C79.3542 8.928 79.0929 8.752 78.7729 8.624C78.4529 8.496 78.1169 8.38933 77.7649 8.304C77.3915 8.208 77.0342 8.10133 76.6929 7.984C76.3622 7.856 76.0689 7.70133 75.8129 7.52C75.5569 7.328 75.3542 7.104 75.2049 6.848C75.0555 6.592 74.9809 6.288 74.9809 5.936C74.9809 5.52 75.0929 5.14667 75.3169 4.816C75.5409 4.48533 75.8555 4.22933 76.2609 4.048C76.6662 3.856 77.1355 3.76 77.6689 3.76C77.9249 3.76 78.1969 3.792 78.4849 3.856C78.7729 3.92 79.0609 4.032 79.3489 4.192C79.6369 4.34133 79.9035 4.55467 80.1489 4.832C80.2342 4.896 80.2715 4.976 80.2609 5.072C80.2609 5.15733 80.2235 5.23733 80.1489 5.312C80.0849 5.35467 80.0155 5.376 79.9409 5.376C79.8662 5.376 79.8022 5.344 79.7489 5.28C79.4715 4.97067 79.1462 4.74133 78.7729 4.592C78.4102 4.44267 78.0209 4.368 77.6049 4.368C77.2529 4.368 76.9222 4.42667 76.6129 4.544C76.3142 4.66133 76.0689 4.83733 75.8769 5.072C75.6849 5.296 75.5889 5.584 75.5889 5.936C75.6102 6.26667 75.7222 6.53867 75.9249 6.752C76.1382 6.96533 76.4155 7.14133 76.7569 7.28C77.1089 7.41867 77.5035 7.54667 77.9409 7.664C78.2929 7.74933 78.6182 7.85067 78.9169 7.968C79.2262 8.07467 79.4929 8.21333 79.7169 8.384C79.9515 8.55467 80.1329 8.768 80.2609 9.024C80.3995 9.28 80.4689 9.6 80.4689 9.984C80.4689 10.432 80.3462 10.8213 80.1009 11.152C79.8662 11.472 79.5355 11.7227 79.1089 11.904C78.6929 12.0747 78.2129 12.16 77.6689 12.16C77.1142 12.16 76.5809 12.048 76.0689 11.824C75.5569 11.6 75.0929 11.232 74.6769 10.72ZM98.3149 12C98.2189 12 98.1389 11.968 98.0749 11.904C98.0215 11.84 97.9949 11.7653 97.9949 11.68V1.184H98.6349V11.68C98.6349 11.7653 98.6029 11.84 98.5389 11.904C98.4749 11.968 98.4002 12 98.3149 12ZM94.4269 1.408C94.3415 1.408 94.2669 1.38133 94.2029 1.328C94.1389 1.264 94.1069 1.18933 94.1069 1.104C94.1069 1.01867 94.1389 0.949333 94.2029 0.896C94.2669 0.831999 94.3415 0.799999 94.4269 0.799999H102.203C102.288 0.799999 102.363 0.831999 102.427 0.896C102.491 0.949333 102.523 1.01867 102.523 1.104C102.523 1.2 102.491 1.27467 102.427 1.328C102.363 1.38133 102.288 1.408 102.203 1.408H94.4269ZM111.894 3.92C112.534 3.92 113.062 4.05867 113.478 4.336C113.905 4.61333 114.219 4.98667 114.422 5.456C114.635 5.92533 114.742 6.44267 114.742 7.008V11.68C114.742 11.7653 114.71 11.84 114.646 11.904C114.582 11.968 114.507 12 114.422 12C114.326 12 114.246 11.968 114.182 11.904C114.129 11.84 114.102 11.7653 114.102 11.68V7.008C114.102 6.54933 114.027 6.13333 113.878 5.76C113.729 5.38667 113.494 5.088 113.174 4.864C112.854 4.64 112.427 4.528 111.894 4.528C111.435 4.528 110.987 4.64 110.55 4.864C110.113 5.088 109.75 5.38667 109.462 5.76C109.185 6.13333 109.046 6.54933 109.046 7.008V11.68C109.046 11.7653 109.014 11.84 108.95 11.904C108.886 11.968 108.811 12 108.726 12C108.63 12 108.55 11.968 108.486 11.904C108.433 11.84 108.406 11.7653 108.406 11.68V0.48C108.406 0.394666 108.438 0.319999 108.502 0.256C108.566 0.192 108.641 0.16 108.726 0.16C108.822 0.16 108.897 0.192 108.95 0.256C109.014 0.319999 109.046 0.394666 109.046 0.48V6.064L108.646 6.832C108.646 6.448 108.742 6.08 108.934 5.728C109.126 5.376 109.377 5.06667 109.686 4.8C110.006 4.52267 110.358 4.30933 110.742 4.16C111.126 4 111.51 3.92 111.894 3.92ZM124.991 12.16C124.191 12.16 123.481 11.9893 122.863 11.648C122.255 11.3067 121.775 10.8267 121.423 10.208C121.071 9.57867 120.895 8.84267 120.895 8C120.895 7.104 121.065 6.34133 121.407 5.712C121.759 5.08267 122.207 4.60267 122.751 4.272C123.305 3.93067 123.892 3.76 124.511 3.76C124.959 3.76 125.396 3.83467 125.823 3.984C126.249 4.12267 126.628 4.34667 126.959 4.656C127.3 4.95467 127.572 5.33333 127.775 5.792C127.988 6.24 128.105 6.77867 128.127 7.408C128.127 7.49333 128.095 7.57333 128.031 7.648C127.967 7.712 127.892 7.744 127.807 7.744H121.279L121.183 7.136H127.631L127.471 7.28V6.992C127.417 6.42667 127.236 5.952 126.927 5.568C126.628 5.184 126.265 4.896 125.839 4.704C125.412 4.50133 124.969 4.4 124.511 4.4C124.191 4.4 123.855 4.47467 123.503 4.624C123.151 4.76267 122.825 4.98133 122.527 5.28C122.228 5.568 121.983 5.936 121.791 6.384C121.609 6.832 121.519 7.35467 121.519 7.952C121.519 8.60267 121.647 9.2 121.903 9.744C122.169 10.288 122.559 10.7253 123.071 11.056C123.593 11.3867 124.233 11.552 124.991 11.552C125.353 11.552 125.695 11.4933 126.015 11.376C126.335 11.248 126.623 11.0827 126.879 10.88C127.135 10.6773 127.343 10.4587 127.503 10.224C127.588 10.128 127.679 10.08 127.775 10.08C127.849 10.08 127.913 10.112 127.967 10.176C128.02 10.2293 128.047 10.2933 128.047 10.368C128.047 10.4427 128.025 10.5067 127.983 10.56C127.652 10.9867 127.225 11.36 126.703 11.68C126.191 12 125.62 12.16 124.991 12.16ZM143.186 12C143.09 12 143.01 11.968 142.946 11.904C142.892 11.84 142.866 11.7653 142.866 11.68V1.12C142.866 1.03467 142.898 0.96 142.962 0.896C143.026 0.831999 143.1 0.799999 143.186 0.799999H149.218C149.303 0.799999 149.378 0.831999 149.442 0.896C149.506 0.96 149.538 1.03467 149.538 1.12C149.538 1.216 149.506 1.296 149.442 1.36C149.378 1.41333 149.303 1.44 149.218 1.44H143.458L143.506 1.376V5.984L143.442 5.856H148.498C148.583 5.856 148.658 5.888 148.722 5.952C148.786 6.016 148.818 6.09067 148.818 6.176C148.818 6.272 148.786 6.352 148.722 6.416C148.658 6.46933 148.583 6.496 148.498 6.496H143.41L143.506 6.368V11.68C143.506 11.7653 143.474 11.84 143.41 11.904C143.356 11.968 143.282 12 143.186 12ZM156.312 11.68C156.312 11.7653 156.28 11.84 156.216 11.904C156.152 11.968 156.077 12 155.992 12C155.896 12 155.816 11.968 155.752 11.904C155.698 11.84 155.672 11.7653 155.672 11.68V4.08C155.672 3.99467 155.704 3.92 155.768 3.856C155.832 3.792 155.906 3.76 155.992 3.76C156.088 3.76 156.162 3.792 156.216 3.856C156.28 3.92 156.312 3.99467 156.312 4.08V11.68ZM155.992 2.672C155.821 2.672 155.682 2.624 155.576 2.528C155.48 2.432 155.432 2.30933 155.432 2.16V2.032C155.432 1.88267 155.485 1.76 155.592 1.664C155.698 1.568 155.837 1.52 156.008 1.52C156.157 1.52 156.28 1.568 156.376 1.664C156.482 1.76 156.536 1.88267 156.536 2.032V2.16C156.536 2.30933 156.482 2.432 156.376 2.528C156.28 2.624 156.152 2.672 155.992 2.672ZM162.233 3.952H165.945C166.03 3.952 166.099 3.984 166.153 4.048C166.217 4.112 166.249 4.18133 166.249 4.256C166.249 4.34133 166.217 4.416 166.153 4.48C166.099 4.53333 166.03 4.56 165.945 4.56H162.233C162.158 4.56 162.089 4.528 162.025 4.464C161.961 4.4 161.929 4.33067 161.929 4.256C161.929 4.17067 161.961 4.10133 162.025 4.048C162.089 3.984 162.158 3.952 162.233 3.952ZM163.865 1.6C163.961 1.6 164.035 1.632 164.089 1.696C164.153 1.76 164.185 1.83467 164.185 1.92V10.256C164.185 10.608 164.227 10.8693 164.313 11.04C164.409 11.2 164.526 11.3067 164.665 11.36C164.803 11.4027 164.937 11.424 165.065 11.424C165.139 11.424 165.203 11.4133 165.257 11.392C165.31 11.3707 165.374 11.36 165.449 11.36C165.523 11.36 165.587 11.392 165.641 11.456C165.694 11.5093 165.721 11.5733 165.721 11.648C165.721 11.744 165.657 11.8293 165.529 11.904C165.411 11.968 165.262 12 165.081 12C165.017 12 164.899 12 164.729 12C164.569 11.9893 164.393 11.9413 164.201 11.856C164.019 11.76 163.865 11.5947 163.737 11.36C163.609 11.1147 163.545 10.7573 163.545 10.288V1.92C163.545 1.83467 163.577 1.76 163.641 1.696C163.705 1.632 163.779 1.6 163.865 1.6ZM175.663 3.76C176.335 3.76 176.879 3.89333 177.295 4.16C177.722 4.42667 178.031 4.78933 178.223 5.248C178.426 5.70667 178.527 6.21867 178.527 6.784V11.68C178.527 11.7653 178.495 11.84 178.431 11.904C178.367 11.968 178.292 12 178.207 12C178.111 12 178.031 11.968 177.967 11.904C177.914 11.84 177.887 11.7653 177.887 11.68V6.848C177.887 6.38933 177.807 5.97333 177.647 5.6C177.498 5.22667 177.252 4.928 176.911 4.704C176.58 4.48 176.143 4.368 175.599 4.368C175.13 4.368 174.671 4.48 174.223 4.704C173.775 4.928 173.402 5.22667 173.103 5.6C172.815 5.97333 172.671 6.38933 172.671 6.848V11.68C172.671 11.7653 172.639 11.84 172.575 11.904C172.511 11.968 172.436 12 172.351 12C172.255 12 172.175 11.968 172.111 11.904C172.058 11.84 172.031 11.7653 172.031 11.68V4.336C172.031 4.25067 172.063 4.176 172.127 4.112C172.191 4.048 172.266 4.016 172.351 4.016C172.447 4.016 172.522 4.048 172.575 4.112C172.639 4.176 172.671 4.25067 172.671 4.336V5.904L172.271 6.672C172.271 6.288 172.372 5.92 172.575 5.568C172.778 5.216 173.044 4.90667 173.375 4.64C173.706 4.36267 174.068 4.14933 174.463 4C174.868 3.84 175.268 3.76 175.663 3.76ZM188.787 12.16C187.987 12.16 187.278 11.9893 186.659 11.648C186.051 11.3067 185.571 10.8267 185.219 10.208C184.867 9.57867 184.691 8.84267 184.691 8C184.691 7.104 184.862 6.34133 185.203 5.712C185.555 5.08267 186.003 4.60267 186.547 4.272C187.102 3.93067 187.689 3.76 188.307 3.76C188.755 3.76 189.193 3.83467 189.619 3.984C190.046 4.12267 190.425 4.34667 190.755 4.656C191.097 4.95467 191.369 5.33333 191.571 5.792C191.785 6.24 191.902 6.77867 191.923 7.408C191.923 7.49333 191.891 7.57333 191.827 7.648C191.763 7.712 191.689 7.744 191.603 7.744H185.075L184.979 7.136H191.427L191.267 7.28V6.992C191.214 6.42667 191.033 5.952 190.723 5.568C190.425 5.184 190.062 4.896 189.635 4.704C189.209 4.50133 188.766 4.4 188.307 4.4C187.987 4.4 187.651 4.47467 187.299 4.624C186.947 4.76267 186.622 4.98133 186.323 5.28C186.025 5.568 185.779 5.936 185.587 6.384C185.406 6.832 185.315 7.35467 185.315 7.952C185.315 8.60267 185.443 9.2 185.699 9.744C185.966 10.288 186.355 10.7253 186.867 11.056C187.39 11.3867 188.03 11.552 188.787 11.552C189.15 11.552 189.491 11.4933 189.811 11.376C190.131 11.248 190.419 11.0827 190.675 10.88C190.931 10.6773 191.139 10.4587 191.299 10.224C191.385 10.128 191.475 10.08 191.571 10.08C191.646 10.08 191.71 10.112 191.763 10.176C191.817 10.2293 191.843 10.2933 191.843 10.368C191.843 10.4427 191.822 10.5067 191.779 10.56C191.449 10.9867 191.022 11.36 190.499 11.68C189.987 12 189.417 12.16 188.787 12.16ZM197.63 10.72C197.555 10.592 197.518 10.4907 197.518 10.416C197.529 10.3307 197.571 10.2613 197.646 10.208C197.699 10.1547 197.769 10.1333 197.854 10.144C197.95 10.144 198.03 10.1813 198.094 10.256C198.371 10.6507 198.723 10.9707 199.15 11.216C199.587 11.4613 200.099 11.584 200.686 11.584C201.038 11.584 201.374 11.5253 201.694 11.408C202.025 11.2907 202.291 11.1147 202.494 10.88C202.707 10.6453 202.814 10.3573 202.814 10.016C202.814 9.65333 202.713 9.36533 202.51 9.152C202.307 8.928 202.046 8.752 201.726 8.624C201.406 8.496 201.07 8.38933 200.718 8.304C200.345 8.208 199.987 8.10133 199.646 7.984C199.315 7.856 199.022 7.70133 198.766 7.52C198.51 7.328 198.307 7.104 198.158 6.848C198.009 6.592 197.934 6.288 197.934 5.936C197.934 5.52 198.046 5.14667 198.27 4.816C198.494 4.48533 198.809 4.22933 199.214 4.048C199.619 3.856 200.089 3.76 200.622 3.76C200.878 3.76 201.15 3.792 201.438 3.856C201.726 3.92 202.014 4.032 202.302 4.192C202.59 4.34133 202.857 4.55467 203.102 4.832C203.187 4.896 203.225 4.976 203.214 5.072C203.214 5.15733 203.177 5.23733 203.102 5.312C203.038 5.35467 202.969 5.376 202.894 5.376C202.819 5.376 202.755 5.344 202.702 5.28C202.425 4.97067 202.099 4.74133 201.726 4.592C201.363 4.44267 200.974 4.368 200.558 4.368C200.206 4.368 199.875 4.42667 199.566 4.544C199.267 4.66133 199.022 4.83733 198.83 5.072C198.638 5.296 198.542 5.584 198.542 5.936C198.563 6.26667 198.675 6.53867 198.878 6.752C199.091 6.96533 199.369 7.14133 199.71 7.28C200.062 7.41867 200.457 7.54667 200.894 7.664C201.246 7.74933 201.571 7.85067 201.87 7.968C202.179 8.07467 202.446 8.21333 202.67 8.384C202.905 8.55467 203.086 8.768 203.214 9.024C203.353 9.28 203.422 9.6 203.422 9.984C203.422 10.432 203.299 10.8213 203.054 11.152C202.819 11.472 202.489 11.7227 202.062 11.904C201.646 12.0747 201.166 12.16 200.622 12.16C200.067 12.16 199.534 12.048 199.022 11.824C198.51 11.6 198.046 11.232 197.63 10.72ZM209.068 10.72C208.993 10.592 208.956 10.4907 208.956 10.416C208.966 10.3307 209.009 10.2613 209.084 10.208C209.137 10.1547 209.206 10.1333 209.292 10.144C209.388 10.144 209.468 10.1813 209.532 10.256C209.809 10.6507 210.161 10.9707 210.588 11.216C211.025 11.4613 211.537 11.584 212.124 11.584C212.476 11.584 212.812 11.5253 213.132 11.408C213.462 11.2907 213.729 11.1147 213.932 10.88C214.145 10.6453 214.252 10.3573 214.252 10.016C214.252 9.65333 214.15 9.36533 213.948 9.152C213.745 8.928 213.484 8.752 213.164 8.624C212.844 8.496 212.508 8.38933 212.156 8.304C211.782 8.208 211.425 8.10133 211.084 7.984C210.753 7.856 210.46 7.70133 210.204 7.52C209.948 7.328 209.745 7.104 209.596 6.848C209.446 6.592 209.372 6.288 209.372 5.936C209.372 5.52 209.484 5.14667 209.708 4.816C209.932 4.48533 210.246 4.22933 210.652 4.048C211.057 3.856 211.526 3.76 212.06 3.76C212.316 3.76 212.588 3.792 212.876 3.856C213.164 3.92 213.452 4.032 213.74 4.192C214.028 4.34133 214.294 4.55467 214.54 4.832C214.625 4.896 214.662 4.976 214.652 5.072C214.652 5.15733 214.614 5.23733 214.54 5.312C214.476 5.35467 214.406 5.376 214.332 5.376C214.257 5.376 214.193 5.344 214.14 5.28C213.862 4.97067 213.537 4.74133 213.164 4.592C212.801 4.44267 212.412 4.368 211.996 4.368C211.644 4.368 211.313 4.42667 211.004 4.544C210.705 4.66133 210.46 4.83733 210.268 5.072C210.076 5.296 209.98 5.584 209.98 5.936C210.001 6.26667 210.113 6.53867 210.316 6.752C210.529 6.96533 210.806 7.14133 211.148 7.28C211.5 7.41867 211.894 7.54667 212.332 7.664C212.684 7.74933 213.009 7.85067 213.308 7.968C213.617 8.07467 213.884 8.21333 214.108 8.384C214.342 8.55467 214.524 8.768 214.652 9.024C214.79 9.28 214.86 9.6 214.86 9.984C214.86 10.432 214.737 10.8213 214.492 11.152C214.257 11.472 213.926 11.7227 213.5 11.904C213.084 12.0747 212.604 12.16 212.06 12.16C211.505 12.16 210.972 12.048 210.46 11.824C209.948 11.6 209.484 11.232 209.068 10.72Z" fill="white"/>
</svg>
