<svg width="23" height="16" viewBox="0 0 23 16" fill="none" xmlns="http://www.w3.org/2000/svg">
<path d="M16.142 4.49206V3.98489C16.142 1.71169 12.6751 0 8.07099 0C3.46686 0 0 1.71169 0 3.98489V7.60752C0 9.50035 2.40295 11.0037 5.86981 11.4566V11.9547C5.86981 14.2279 9.33667 15.9396 13.9408 15.9396C18.5449 15.9396 22.0118 14.2279 22.0118 11.9547V8.33205C22.0118 6.45734 19.6822 4.95395 16.142 4.49206ZM5.86981 9.98034V7.83394C6.59975 7.92656 7.33505 7.97194 8.07099 7.96978C8.80693 7.97194 9.54223 7.92656 10.2722 7.83394V9.98034C9.544 10.0924 8.80794 10.1469 8.07099 10.1434C7.33404 10.1469 6.59798 10.0924 5.86981 9.98034V9.98034ZM14.6745 6.33054V7.60752C14.6745 8.36827 13.5372 9.18336 11.7396 9.68148V7.56224C12.9228 7.28148 13.9225 6.85583 14.6745 6.33054V6.33054ZM1.46745 7.60752V6.33054C2.21952 6.85583 3.21922 7.28148 4.40236 7.56224V9.68148C2.60473 9.18336 1.46745 8.36827 1.46745 7.60752ZM7.33726 11.9547V11.5743L8.07099 11.5924C8.43174 11.5924 8.78026 11.5834 9.11655 11.5652C9.48341 11.692 9.86862 11.8007 10.2722 11.9003V14.0286C8.47454 13.5305 7.33726 12.7154 7.33726 11.9547ZM11.7396 14.3275V12.172C12.4695 12.2666 13.2047 12.315 13.9408 12.3169C14.6767 12.3191 15.412 12.2737 16.142 12.1811V14.3275C14.6828 14.5449 13.1988 14.5449 11.7396 14.3275ZM17.6094 14.0286V11.9094C18.7926 11.6286 19.7923 11.203 20.5443 10.6777V11.9547C20.5443 12.7154 19.4071 13.5305 17.6094 14.0286V14.0286Z" fill="#565656"/>
</svg>
