<svg width="20" height="20" viewBox="0 0 20 20" fill="none" xmlns="http://www.w3.org/2000/svg">
<path d="M14.4744 0C17.8303 0 19.7248 1.90341 19.7347 5.2593V14.4754C19.7347 17.8303 17.8303 19.7347 14.4744 19.7347H5.2593C1.90341 19.7347 0 17.8303 0 14.4754V5.2593C0 1.90341 1.90341 0 5.2593 0H14.4744ZM10.3607 4.07522C10.0834 3.90747 9.74796 3.90747 9.48253 4.07522C9.21512 4.24198 9.0681 4.54885 9.09671 4.85474V14.9096C9.14704 15.3339 9.50128 15.6496 9.91571 15.6496C10.341 15.6496 10.6952 15.3339 10.7347 14.9096V4.85474C10.7742 4.54885 10.6271 4.24198 10.3607 4.07522ZM5.75267 7.31171C5.48625 7.14396 5.14977 7.14396 4.88434 7.31171C4.61693 7.47945 4.46991 7.78436 4.49951 8.09123V14.9096C4.538 15.3339 4.89322 15.6496 5.31752 15.6496C5.7428 15.6496 6.09704 15.3339 6.13651 14.9096V8.09123C6.1671 7.78436 6.0181 7.47945 5.75267 7.31171ZM14.8889 10.8936C14.6234 10.7258 14.2879 10.7258 14.0116 10.8936C13.7442 11.0613 13.5972 11.3563 13.6367 11.6731V14.9096C13.6762 15.3339 14.0304 15.6496 14.4557 15.6496C14.8701 15.6496 15.2243 15.3339 15.2747 14.9096V11.6731C15.3033 11.3563 15.1563 11.0613 14.8889 10.8936Z" fill="#565656"/>
</svg>
