<svg width="20" height="20" viewBox="0 0 20 20" fill="none" xmlns="http://www.w3.org/2000/svg">
<path d="M5.84145 11.3175C7.23274 11.3175 8.34774 12.4434 8.34774 13.8445V17.2083C8.34774 18.5996 7.23274 19.7343 5.84145 19.7343H2.5063C1.12487 19.7343 0 18.5996 0 17.2083V13.8445C0 12.4434 1.12487 11.3175 2.5063 11.3175H5.84145ZM17.2284 11.3175C18.6098 11.3175 19.7347 12.4434 19.7347 13.8445V17.2083C19.7347 18.5996 18.6098 19.7343 17.2284 19.7343H13.8933C12.502 19.7343 11.387 18.5996 11.387 17.2083V13.8445C11.387 12.4434 12.502 11.3175 13.8933 11.3175H17.2284ZM5.84145 0C7.23274 0 8.34774 1.13474 8.34774 2.52702V5.89078C8.34774 7.29194 7.23274 8.41681 5.84145 8.41681H2.5063C1.12487 8.41681 0 7.29194 0 5.89078V2.52702C0 1.13474 1.12487 0 2.5063 0H5.84145ZM17.2284 0C18.6098 0 19.7347 1.13474 19.7347 2.52702V5.89078C19.7347 7.29194 18.6098 8.41681 17.2284 8.41681H13.8933C12.502 8.41681 11.387 7.29194 11.387 5.89078V2.52702C11.387 1.13474 12.502 0 13.8933 0H17.2284Z" fill="#565656"/>
</svg>
