<svg xmlns="http://www.w3.org/2000/svg" width="64.218" height="163.674" viewBox="0 0 64.218 163.674">
    <g id="Group_18" data-name="Group 18" transform="translate(-115.107 -550.364)">
        <rect id="Rectangle_3" data-name="Rectangle 3" width="64.218" height="115.794" rx="15.927" transform="translate(115.107 563.347)" fill="#8e8e8e"/>
        <g id="Group_17" data-name="Group 17">
            <path id="Path_38" data-name="Path 38" d="M133.646,634.525c-.133,11.428.664,27.374,2.923,29.5s5.05,41.724,3.322,42.256-9.966,4.85-11.029,4.917,1.063,1.993,5.183,1.129,11.76-.864,13.753-1.2,1.927-3.056.133-5.049,4.451-37.539,4.053-41.792-.4-33.353-.4-33.353l-15.9,3.179Z" fill="#f08a6c"/>
            <g id="Group_9" data-name="Group 9">
                <path id="Path_39" data-name="Path 39" d="M147.931,706.082a.8.8,0,0,0,.344.42C148.168,706.359,148.054,706.218,147.931,706.082Z" fill="#ffcaba" style="mix-blend-mode: multiply;isolation: isolate"/>
                <path id="Path_40" data-name="Path 40" d="M151.984,664.29c-.4-4.252-.4-33.353-.4-33.353l-10.135,2.027-5.014,1.827c10.563,14.475,8.073,62.222,11.3,70.841C146.671,701.039,152.365,668.357,151.984,664.29Z" fill="#ffcaba" style="mix-blend-mode: multiply;isolation: isolate"/>
            </g>
            <path id="Path_41" data-name="Path 41" d="M146,635.854c.664,12.358,1.329,28.968,3.986,31.493,1.329,17.407,6.379,36.409,5.847,39.864s-1.2,6.113.133,6.378,7.176,1.2,7.574-.8-2.259-5.714-2.524-8.5,2.79-26.709,1.727-32.556-2.525-9.833-1.993-14.218,3.056-18.338,2.392-22.59S146,635.854,146,635.854Z" fill="#ff9f82"/>
            <path id="Path_42" data-name="Path 42" d="M161.119,704.932a6.064,6.064,0,0,1-.1-.644c-.266-2.791,2.79-26.709,1.727-32.556s-2.525-9.833-1.993-14.218,3.056-18.338,2.392-22.59c-.4-2.546-6.461-1.71-11.265-.63-2.388,1.084-4.017,1.826-4.017,1.826,6.644,4.119,11.561,13.952,11.295,19.666s-1.993,14.75.266,12.358,2.126,13.421,1.2,23.121C159.875,699.041,159.814,702.547,161.119,704.932Z" fill="#ffcaba" style="mix-blend-mode: multiply;isolation: isolate"/>
            <path id="Path_43" data-name="Path 43" d="M136.071,577.386c-6.544,2.658-9.866,5.581-10.265,17.009s1.462,16.078.664,22.191-.8,8.637.133,14.218a42.5,42.5,0,0,1,.748,9.917c-.1,1.046,2.043,6.627,2.691,6.627s.8-2.292.7-3.139c1.645-1.1,1.894-6.03.847-7.475s-.249-4.933.7-10.963S136.071,577.386,136.071,577.386Z" fill="#ff9f82"/>
            <path id="Path_44" data-name="Path 44" d="M132.649,622.234a74.51,74.51,0,0,0-.265,13.686c4.252,1.728,14.484.532,14.484.532S147,621.37,146.6,621.37,132.649,622.234,132.649,622.234Z" fill="#7a4434"/>
            <path id="Path_45" data-name="Path 45" d="M146.6,621.37l-.146.006c.206,3.4.113,14.046.113,14.046s-9.912,1.158-14.279-.452a6.837,6.837,0,0,0,.094.95c4.252,1.728,14.484.532,14.484.532S147,621.37,146.6,621.37Z" fill="#f0d4af"/>
            <path id="Path_46" data-name="Path 46" d="M141.552,622.931c.9,7.873-.3,10.564,1.794,11.262s2.293,1,2.293,2.79c7.972,1.1,12.656,0,13.155-.6.8-2.192,2.491-1,2.392,0s3.388-.2,3.687-.5c.7-4.684-1.893-16.344-3.089-18.238S141.552,622.931,141.552,622.931Z" fill="#8a4d3b"/>
            <g id="Group_10" data-name="Group 10">
                <path id="Path_47" data-name="Path 47" d="M164.973,634.791c-.3.3-3.455,1.628-3.355.631s-2.592-2.06-3.389.133c-.49.588-4.907,1.432-12.643.415a7.113,7.113,0,0,1,.053,1.013c7.972,1.1,12.656,0,13.155-.6.8-2.192,2.491-1,2.392,0s3.388-.2,3.687-.5a10.767,10.767,0,0,0,.1-1.1Z" fill="#ffe2ba"/>
            </g>
            <path id="Path_48" data-name="Path 48" d="M138.712,576.19l-2.641,1.2c-3.388,7.873-5.581,16.444-5.581,21.826s1.993,11.66,1.993,15.647-.4,7.972-.1,7.972c8.271,4.585,28.7,4.685,30.994-3.787s-6.478-41.791-6.478-41.791l-2.093-.963-12.756,1.794Z" fill="#e50516"/>
            <path id="Path_49" data-name="Path 49" d="M140.954,555.062c-.548-2.392.15-5.98,6.827-4.236s8.222,4.784,6.827,5.731c-.747,5.681-1.046,9.617-4.485,9.318S140.954,555.062,140.954,555.062Z" fill="#361b18"/>
            <path id="Path_50" data-name="Path 50" d="M141.9,553.916c-.149.9-.9,1-.947,1.146a16.47,16.47,0,0,0-.7,5.481c.149,2.093-.6,5.581.149,6.927s1.495,1.445,1.495,2.441-.448,5.93-3.189,6.279c-2.292,7.275.847,11.959,5.033,12.557s7.823-1.146,9.069-5.83,1.993-6.627,1.993-6.627c-2.142-.8-2.491-1.944-2.84-4.236a60.58,60.58,0,0,1-.2-7.425c-1.246-.946-.548-3.039-.548-3.039s-1.2.3-1.047-1.694.1-5.233-.648-5.482-1.744.2-2.491-.5S142.549,551.574,141.9,553.916Z" fill="#ff9f82"/>
            <g id="Group_12" data-name="Group 12">
                <path id="Path_51" data-name="Path 51" d="M146.916,560.116c0,.282-.165.51-.37.51s-.369-.228-.369-.51.165-.509.369-.509S146.916,559.835,146.916,560.116Z" fill="#361b18"/>
                <g id="Group_11" data-name="Group 11">
                    <path id="Path_52" data-name="Path 52" d="M147.045,560c-.248-.377-.524-.581-.74-.546a.333.333,0,0,0-.253.276l-.172-.045a.505.505,0,0,1,.4-.406c.291-.048.625.179.917.623Z" fill="#361b18"/>
                </g>
            </g>
            <g id="Group_14" data-name="Group 14">
                <path id="Path_53" data-name="Path 53" d="M142.792,560.071c0,.282-.165.51-.369.51s-.37-.228-.37-.51.165-.509.37-.509S142.792,559.79,142.792,560.071Z" fill="#361b18"/>
                <g id="Group_13" data-name="Group 13">
                    <path id="Path_54" data-name="Path 54" d="M142.921,559.954c-.248-.378-.524-.581-.74-.546a.333.333,0,0,0-.253.276l-.171-.045a.5.5,0,0,1,.395-.406c.291-.048.626.179.917.623Z" fill="#361b18"/>
                </g>
            </g>
            <g id="Group_16" data-name="Group 16">
                <path id="Path_55" data-name="Path 55" d="M144.791,564.272c-.3-.167-.891-.308-.663-.116A.964.964,0,0,0,144.791,564.272Z" fill="#361b18"/>
                <g id="Group_15" data-name="Group 15">
                    <path id="Path_56" data-name="Path 56" d="M144.739,564.58l-.011-.073a.334.334,0,0,0,.268-.156c.067-.131.03-.341-.112-.624l.066-.033a.8.8,0,0,1,.11.691A.4.4,0,0,1,144.739,564.58Z" fill="#361b18"/>
                </g>
            </g>
            <path id="Path_57" data-name="Path 57" d="M144.1,567.538a2.424,2.424,0,0,1-.946-.18.088.088,0,0,1-.047-.116.089.089,0,0,1,.116-.047,2.411,2.411,0,0,0,1.6.057.089.089,0,1,1,.079.159A2.211,2.211,0,0,1,144.1,567.538Z" fill="#ffcaba" style="mix-blend-mode: multiply;isolation: isolate"/>
            <circle id="Ellipse_2" data-name="Ellipse 2" cx="1.847" cy="1.847" r="1.847" transform="translate(150.638 560.418)" fill="#ff9f82"/>
            <path id="Path_58" data-name="Path 58" d="M148.608,567.566a.082.082,0,0,1-.064-.026.081.081,0,0,1,0-.114,8.07,8.07,0,0,0,1.779-3.389.081.081,0,0,1,.154.048,8.034,8.034,0,0,1-1.825,3.46A.077.077,0,0,1,148.608,567.566Z" fill="#ffcaba" style="mix-blend-mode: multiply;isolation: isolate"/>
            <path id="Path_59" data-name="Path 59" d="M153.638,561.76a3.2,3.2,0,0,0-1.366.135.061.061,0,0,0-.027.009,2.677,2.677,0,0,0-.818.443.081.081,0,0,0-.013.114.08.08,0,0,0,.113.012,2.5,2.5,0,0,1,.766-.413.615.615,0,0,1,.354.365.559.559,0,0,1-.187.567.081.081,0,0,0,0,.114.08.08,0,0,0,.114,0,.705.705,0,0,0,.224-.728.744.744,0,0,0-.288-.38,3.124,3.124,0,0,1,1.1-.077.08.08,0,0,0,.025-.159Z" fill="#ffcaba" style="mix-blend-mode: multiply;isolation: isolate"/>
            <path id="Path_60" data-name="Path 60" d="M143.969,559.459s-.018.1-.057.261-.1.4-.176.681-.172.607-.283.953-.234.713-.357,1.079-.251.732-.358,1.075a2.756,2.756,0,0,0-.115.487c-.01.059.04.1.091.128a.9.9,0,0,0,.2.079,4.518,4.518,0,0,0,.682.126l.265.027s-.1.009-.267.011a3.433,3.433,0,0,1-.708-.055.993.993,0,0,1-.228-.075.269.269,0,0,1-.176-.24,2.261,2.261,0,0,1,.091-.536c.093-.355.216-.723.338-1.091s.255-.731.38-1.072l.343-.93.245-.658Z" fill="#361b18"/>
            <path id="Path_61" data-name="Path 61" d="M144.373,566.162a3.54,3.54,0,0,1-2.286-.741.1.1,0,1,1,.127-.154,4.293,4.293,0,0,0,4.207.283.1.1,0,0,1,.076.185A5.747,5.747,0,0,1,144.373,566.162Z" fill="#361b18"/>
            <path id="Path_62" data-name="Path 62" d="M148.412,559.314c-1.626-.565-2.93.017-3.4-.4C146.124,557.736,147.561,557.587,148.412,559.314Z" fill="#361b18"/>
            <path id="Path_63" data-name="Path 63" d="M145.869,558.135c-.766.415-.86.781-.86.781C144.9,558.21,145.51,558.093,145.869,558.135Z" fill="#361b18"/>
            <path id="Path_64" data-name="Path 64" d="M140.622,558.866c1.682-.366,2.251.441,2.77.085C142.426,557.647,141.187,557.4,140.622,558.866Z" fill="#361b18"/>
            <path id="Path_65" data-name="Path 65" d="M142.632,558.073c.71.5.76.878.76.878C143.58,558.263,142.993,558.075,142.632,558.073Z" fill="#361b18"/>
            <path id="Path_66" data-name="Path 66" d="M147.632,568.882c-.864.963-4.751,1.229-6.611-.532l0,.01c.493.582.877.837.877,1.551,0,.174-.014.468-.051.834C142.992,573.334,144.55,573.834,147.632,568.882Z" fill="#ffcaba" style="mix-blend-mode: multiply;isolation: isolate"/>
            <path id="Path_67" data-name="Path 67" d="M156.9,577.253c-2.99,14.617-.531,20.065,2.259,20.065,2.06,8.438,2.658,9.7,2.259,12.159a71.212,71.212,0,0,0,.6,16.211c.93,5.714,1.595,6.777.93,9.7s-.93,2.79-.2,5.049.864,4.186,1.6,4.252,1.262-.265,1.262-.8c.531,3.787.6,5.382,1.462,4.518a2.676,2.676,0,0,0,.863-1.727,1,1,0,0,0,.931-.731,2,2,0,0,0,1-1.462c.6-.266.266-3.255-.133-4.717s-2.857-3.92-2.591-6.312,3.721-11.76,3.056-18.471,1-18.536-1.129-26.111S161.883,579.446,156.9,577.253Z" fill="#ff9f82"/>
            <path id="Path_68" data-name="Path 68" d="M167.975,646.672a.081.081,0,0,1-.126-.086,8.05,8.05,0,0,0-.366-3.809.081.081,0,1,1,.155-.044,8.038,8.038,0,0,1,.367,3.894A.084.084,0,0,1,167.975,646.672Z" fill="#ffcaba" style="mix-blend-mode: multiply;isolation: isolate"/>
            <path id="Path_69" data-name="Path 69" d="M168.894,645.934a.077.077,0,0,1-.068.013.08.08,0,0,1-.057-.1,8.084,8.084,0,0,0-.366-3.809.081.081,0,0,1,.055-.1.082.082,0,0,1,.1.055,8.058,8.058,0,0,1,.367,3.9A.075.075,0,0,1,168.894,645.934Z" fill="#ffcaba" style="mix-blend-mode: multiply;isolation: isolate"/>
            <path id="Path_70" data-name="Path 70" d="M169.847,644.494a.078.078,0,0,1-.068.013.081.081,0,0,1-.058-.1,8.088,8.088,0,0,0-.366-3.81.08.08,0,0,1,.055-.1.081.081,0,0,1,.1.055,8.058,8.058,0,0,1,.367,3.9A.081.081,0,0,1,169.847,644.494Z" fill="#ffcaba" style="mix-blend-mode: multiply;isolation: isolate"/>
            <path id="Path_71" data-name="Path 71" d="M165.579,643.893h-.012a.1.1,0,0,1-.087-.11,5.319,5.319,0,0,0-.362-2.385,5.677,5.677,0,0,1-.369-1.789.1.1,0,1,1,.2,0,5.528,5.528,0,0,0,.36,1.728,5.486,5.486,0,0,1,.37,2.469A.1.1,0,0,1,165.579,643.893Z" fill="#ffcaba" style="mix-blend-mode: multiply;isolation: isolate"/>
            <path id="Path_72" data-name="Path 72" d="M159.126,597.2a.1.1,0,0,1-.091-.059,3.56,3.56,0,0,0-2-2.021.1.1,0,0,1,.054-.192,3.689,3.689,0,0,1,2.124,2.132.1.1,0,0,1-.05.131A.1.1,0,0,1,159.126,597.2Z" fill="#ffcaba" style="mix-blend-mode: multiply;isolation: isolate"/>
            <path id="Path_73" data-name="Path 73" d="M129.443,646.563a.081.081,0,0,0,.089-.124,8.063,8.063,0,0,1-.972-3.7.08.08,0,0,0-.16.012,8.029,8.029,0,0,0,1,3.782A.08.08,0,0,0,129.443,646.563Z" fill="#ffcaba" style="mix-blend-mode: multiply;isolation: isolate"/>
            <path id="Path_74" data-name="Path 74" d="M130.463,643.86l.012,0a.1.1,0,0,0,.081-.115,5.318,5.318,0,0,1,.228-2.4,5.675,5.675,0,0,0,.269-1.808.1.1,0,0,0-.1-.094.1.1,0,0,0-.094.106,5.521,5.521,0,0,1-.263,1.745,5.494,5.494,0,0,0-.231,2.486A.1.1,0,0,0,130.463,643.86Z" fill="#ffcaba" style="mix-blend-mode: multiply;isolation: isolate"/>
        </g>
    </g>
</svg>