<svg xmlns="http://www.w3.org/2000/svg" width="84.056" height="164.68" viewBox="0 0 84.056 164.68">
    <g id="Group_47" data-name="Group 47" transform="translate(-104.509 -789.496)">
        <path id="Path_142" data-name="Path 142" d="M165.059,814.656c0-.142,0-.284,0-.427a18.524,18.524,0,0,0-37.047.169v.1a18.709,18.709,0,0,1-7.237,14.894,42.028,42.028,0,1,0,51.429-.072A18.278,18.278,0,0,1,165.059,814.656Z" fill="#8e8e8e"/>
        <g id="Group_46" data-name="Group 46">
            <path id="Path_143" data-name="Path 143" d="M127.639,879.483c1.491,17.514,1.739,30.433,4.472,31.8s3.229,34.9,1.118,35.775S122.3,950.163,122.3,951.53s7.143,1.056,11.615.621,6.025.435,7.888-.249.31-4.223-.062-6.459,6.832-17.142,5.528-24.968-2.733-9.689-.87-16.087,4.969-20.62,4.969-20.62l-3.354-5.093Z" fill="#f08a6c"/>
            <path id="Path_144" data-name="Path 144" d="M151.365,883.768l-3.354-5.093-16.39.65L130,880.352c12.8,7.081,14.285,20,12.8,28.943s-2.112,11.925.124,9.192,2.36,11.056-.249,18.136c-2.433,6.6-2.272,6.942-.526,10.586-.16-.625-.316-1.233-.4-1.766-.373-2.236,6.832-17.142,5.528-24.968s-2.733-9.689-.87-16.087S151.365,883.768,151.365,883.768Z" fill="#ffcaba" style="mix-blend-mode: multiply;isolation: isolate"/>
            <path id="Path_145" data-name="Path 145" d="M147.39,880.725c1.366,13.291,3.851,30.558,6.459,32.545.994,12.546,3.851,34.906,2.485,36.272s-3.727,3.851-.994,4.348,9.565.5,10.062-1.242-1.615-4.348-1.615-6.708,5.838-23.478,3.975-28.446S164.9,908.8,166.4,900.6s.5-23.85.5-23.85Z" fill="#ff9f82"/>
            <path id="Path_146" data-name="Path 146" d="M163.787,945.94c0-2.36,5.838-23.478,3.975-28.446S164.9,908.8,166.4,900.6s.5-23.85.5-23.85L155.9,878.989l-3.546,2.295c10.434,1.49,12.3,6.894,11.925,13.788s-1.491,16.583-2.982,19.378.932-.559,3.541.932-5.218,30-1.864,33.166a7.677,7.677,0,0,1,2.432,4.06C165.865,950.869,163.787,948.282,163.787,945.94Z" fill="#ffcaba" style="mix-blend-mode: multiply;isolation: isolate"/>
            <path id="Path_147" data-name="Path 147" d="M127.856,859.3a66.911,66.911,0,0,0-1.584,20.931c8.82,3.354,21.118.5,21.118.5l-4.1-22.981Z" fill="#7a4434"/>
            <path id="Path_148" data-name="Path 148" d="M143.29,857.744l-.116.012,3.89,21.8s-12.085,2.807-20.887-.412c.051.7.1,1.08.1,1.08,8.82,3.354,21.118.5,21.118.5Z" fill="#ebcfaa"/>
            <path id="Path_149" data-name="Path 149" d="M140.992,860.974c-.279,5.869-.465,14.534,2.516,14.813s3.354,5.59,3.354,6.056c4.379,1.118,17.608.186,18.167-1.957s1.677-.186,2.515.28c1.118-2.423-2.422-19.1-4.565-21.8S140.992,860.974,140.992,860.974Z" fill="#8a4d3b"/>
            <path id="Path_150" data-name="Path 150" d="M164.843,878.768c-.538,2.059-13.2,2.957-18.078,2.032a9.341,9.341,0,0,1,.1,1.043c4.379,1.118,17.608.186,18.167-1.957s1.677-.186,2.515.28a2.977,2.977,0,0,0,.193-.984C166.88,878.629,165.383,876.7,164.843,878.768Z" fill="#ffe2ba"/>
            <path id="Path_151" data-name="Path 151" d="M136.427,818.3c-1.3.465-3.913,2.049-5.776,6.707S120.31,850.167,120.31,852.03s4.192-.093,4.192-.093l2.857-2.329c1.274-.87,4.814-3.044,4.814-3.044S140.992,825.758,136.427,818.3Z" fill="#ff9f82"/>
            <path id="Path_152" data-name="Path 152" d="M138.477,817.218l-2.05,1.087c-1.211,2.515-1.956,9.968-1.863,14.72s-5.869,17.98-6.708,26.272c14.534,5.776,33.074,3.167,35.775,0-2.049-8.571-4.471-15-4.844-18.447a69.437,69.437,0,0,1-.093-8.757l-3.23-13.882-2.3-1.087Z" fill="#e50516"/>
            <path id="Path_153" data-name="Path 153" d="M150.262,807.637c1.817-.233,1.491-.885,2.19-3.307s2.329-8.338-.652-10.807-4.053-1.258-7.5-3.308a4.43,4.43,0,0,0-6.848,3.867c.093,3.261.466,5.916,2.1,8.012S150.262,807.637,150.262,807.637Z" fill="#ffe2ba"/>
            <path id="Path_154" data-name="Path 154" d="M141.055,794.392c-1.864,1.336-1.957,3.323-1.833,5.311s-.465,4.1-.559,6.242,2.019,4.378,2.143,4.534c.466,1.894.621,5.341-2.329,6.739-2.05,4.409-3.015,11.591,4.13,13.633,4.348,1.242,10.435-3.727,10.559-13.727-2.733-2.732-2.236-11.055-2.236-11.055s-.311-1.739-.5-1.677c-1.118.062-.932-1.429-.683-3.105s.559-3.044-.87-3.106-2.173-.559-3.913-2.112S142.3,794.082,141.055,794.392Z" fill="#ff9f82"/>
            <g id="Group_39" data-name="Group 39">
                <path id="Path_155" data-name="Path 155" d="M146.1,802.35c0,.3-.174.536-.388.536s-.388-.24-.388-.536.173-.536.388-.536S146.1,802.054,146.1,802.35Z" fill="#361b18"/>
                <g id="Group_38" data-name="Group 38">
                    <path id="Path_156" data-name="Path 156" d="M146.237,802.227c-.261-.4-.551-.61-.778-.574a.35.35,0,0,0-.266.29l-.18-.047a.532.532,0,0,1,.416-.427c.306-.05.657.189.963.655Z" fill="#361b18"/>
                </g>
            </g>
            <g id="Group_41" data-name="Group 41">
                <path id="Path_157" data-name="Path 157" d="M141.769,801.675c0,.3-.174.535-.388.535s-.389-.239-.389-.535.174-.536.389-.536S141.769,801.379,141.769,801.675Z" fill="#361b18"/>
                <g id="Group_40" data-name="Group 40">
                    <path id="Path_158" data-name="Path 158" d="M141.9,801.551c-.26-.4-.55-.61-.777-.574a.35.35,0,0,0-.266.29l-.18-.047a.53.53,0,0,1,.416-.426c.306-.05.656.188.963.655Z" fill="#361b18"/>
                </g>
            </g>
            <g id="Group_42" data-name="Group 42">
                <path id="Path_159" data-name="Path 159" d="M147.3,801.442a4.737,4.737,0,0,0-2.771-.978C145.767,799,146.908,800.137,147.3,801.442Z" fill="#ffe2ba"/>
                <path id="Path_160" data-name="Path 160" d="M145.482,799.677a2.241,2.241,0,0,0-.949.787C144.556,799.817,144.923,799.608,145.482,799.677Z" fill="#ffe2ba"/>
            </g>
            <g id="Group_43" data-name="Group 43">
                <path id="Path_161" data-name="Path 161" d="M139.8,799.928c1.767-.329,2.339-.027,2.6.145A1.33,1.33,0,0,0,139.8,799.928Z" fill="#ffe2ba"/>
                <path id="Path_162" data-name="Path 162" d="M141.792,799a2.24,2.24,0,0,1,.61,1.07A.733.733,0,0,0,141.792,799Z" fill="#ffe2ba"/>
            </g>
            <path id="Path_163" data-name="Path 163" d="M142.856,801.232l-.011.236c0,.074-.017.165-.028.27s-.032.221-.059.348a5.761,5.761,0,0,1-.251.849,4.983,4.983,0,0,1-.458.911,1.875,1.875,0,0,1-.165.216.78.78,0,0,1-.239.151.9.9,0,0,0-.354.252.418.418,0,0,0,.008.373.918.918,0,0,0,.264.28,3.782,3.782,0,0,0,.523.318l.211.105-.225-.071a2.9,2.9,0,0,1-.569-.266,1,1,0,0,1-.32-.3.507.507,0,0,1-.077-.38.612.612,0,0,1,.038-.135.59.59,0,0,1,.194-.207,2,2,0,0,1,.224-.133.642.642,0,0,0,.189-.117,1.786,1.786,0,0,0,.143-.193c.092-.138.174-.285.252-.431s.148-.294.209-.44.121-.287.172-.423.093-.267.13-.389c.07-.245.124-.449.153-.6Z" fill="#361b18"/>
            <path id="Path_164" data-name="Path 164" d="M143.333,805.623c-.361-.245-1.094-.49-.827-.222A1.226,1.226,0,0,0,143.333,805.623Z" fill="#361b18"/>
            <g id="Group_44" data-name="Group 44">
                <path id="Path_165" data-name="Path 165" d="M143.294,805.948l-.014-.092a.425.425,0,0,0,.34-.2c.086-.166.038-.433-.142-.794l.083-.042a1.023,1.023,0,0,1,.141.879A.506.506,0,0,1,143.294,805.948Z" fill="#361b18"/>
            </g>
            <path id="Path_166" data-name="Path 166" d="M143.2,807.728a3.589,3.589,0,0,1-2.619-1.1.092.092,0,0,1,0-.131.093.093,0,0,1,.132,0c1.086,1.131,3.15,1.681,5.685-.166a.093.093,0,0,1,.11.151A5.667,5.667,0,0,1,143.2,807.728Z" fill="#361b18"/>
            <path id="Path_167" data-name="Path 167" d="M143.091,808.785a2.551,2.551,0,0,1-.994-.189.093.093,0,0,1,.073-.171,2.544,2.544,0,0,0,1.681.061.093.093,0,1,1,.083.166A2.332,2.332,0,0,1,143.091,808.785Z" fill="#ffcaba" style="mix-blend-mode: multiply;isolation: isolate"/>
            <circle id="Ellipse_7" data-name="Ellipse 7" cx="1.94" cy="1.94" r="1.94" transform="translate(149.801 803.295)" fill="#ff9f82"/>
            <path id="Path_168" data-name="Path 168" d="M147.878,810.176a.085.085,0,0,1-.067-.028.084.084,0,0,1,.006-.119,8.492,8.492,0,0,0,1.868-3.56.085.085,0,0,1,.162.05,8.442,8.442,0,0,1-1.917,3.635A.081.081,0,0,1,147.878,810.176Z" fill="#ffcaba" style="mix-blend-mode: multiply;isolation: isolate"/>
            <path id="Path_169" data-name="Path 169" d="M152.954,804.705a3.343,3.343,0,0,0-1.436.142.076.076,0,0,0-.029.009,2.829,2.829,0,0,0-.859.466.085.085,0,0,0,.053.151.082.082,0,0,0,.053-.019,2.622,2.622,0,0,1,.8-.434.649.649,0,0,1,.372.383.586.586,0,0,1-.2.6.085.085,0,0,0,0,.12.082.082,0,0,0,.058.024.083.083,0,0,0,.061-.026.74.74,0,0,0,.236-.765.8.8,0,0,0-.3-.4,3.279,3.279,0,0,1,1.156-.08.085.085,0,1,0,.027-.167Z" fill="#ffcaba" style="mix-blend-mode: multiply;isolation: isolate"/>
            <path id="Path_170" data-name="Path 170" d="M144.054,811.667a2.743,2.743,0,0,1-1.529-.458.092.092,0,0,1-.026-.129.093.093,0,0,1,.129-.027,2.731,2.731,0,0,0,3.059-.089.093.093,0,0,1,.131.017.094.094,0,0,1-.018.131A3,3,0,0,1,144.054,811.667Z" fill="#ffcaba" style="mix-blend-mode: multiply;isolation: isolate"/>
            <g id="Group_45" data-name="Group 45">
                <path id="Path_171" data-name="Path 171" d="M137.239,797.744c-1.235-3.9-.1-6.7,3.3-8.091l.071.173c-3.335,1.37-4.408,4.015-3.19,7.862Z" fill="#ffe2ba"/>
            </g>
            <path id="Path_172" data-name="Path 172" d="M155.464,818.211c-2.888,9.6-1.056,18.82,3.509,19.379,5.963,7.919,9.689,12.856,9.41,13.229-3.261,5.776-5.5,14.161-7.547,13.6s-3.26-.745-4.471.792a3.779,3.779,0,0,1-2.33,1.63c-.139.932,1.445,1.118,2.982.792s.838,1.77,4.285,1.957c5.217-1.817,17.515-13.742,17.608-16.491-.605-3.68-13.7-27.064-16.769-30.138A26.407,26.407,0,0,0,155.464,818.211Z" fill="#ff9f82"/>
            <path id="Path_173" data-name="Path 173" d="M158.927,837.124a.093.093,0,0,1-.085-.054,3.563,3.563,0,0,0-2.852-2.322.092.092,0,0,1-.091-.095.089.089,0,0,1,.1-.091,3.753,3.753,0,0,1,3.017,2.43.093.093,0,0,1-.084.132Z" fill="#ffcaba" style="mix-blend-mode: multiply;isolation: isolate"/>
            <path id="Path_174" data-name="Path 174" d="M175.568,850.924a.085.085,0,0,1-.046-.013,7.693,7.693,0,0,0-6.944-.092.093.093,0,0,1-.126-.037.1.1,0,0,1,.038-.127,7.878,7.878,0,0,1,7.124.095.093.093,0,0,1-.046.174Z" fill="#ffcaba" style="mix-blend-mode: multiply;isolation: isolate"/>
            <path id="Path_175" data-name="Path 175" d="M127.453,848.925c.807,5.527-.808,13.291.372,12.981s1.615-.591,2.64.155,2.174,2.608,3.043,2.826c-.869,1.118-2.329-.187-3.2-.342s-.249.745-.87,1.957-2.764,3.1-3.944,1.677c-2.3-6.118-6.4-12.516-5.559-16.149S124.533,847.869,127.453,848.925Z" fill="#ff9f82"/>
            <path id="Path_176" data-name="Path 176" d="M121.762,849.363a.093.093,0,0,1-.052-.171,6.607,6.607,0,0,1,5.774-.355.093.093,0,0,1-.063.175,6.422,6.422,0,0,0-5.608.335A.09.09,0,0,1,121.762,849.363Z" fill="#ffcaba" style="mix-blend-mode: multiply;isolation: isolate"/>
            <path id="Path_177" data-name="Path 177" d="M161.1,875.576c-4.378,0-5.093-3.244-5.415-6.3a.093.093,0,1,1,.185-.019c.41,3.891,1.483,6.271,5.556,6.127a.093.093,0,0,1,.1.09.094.094,0,0,1-.09.1Q161.261,875.576,161.1,875.576Z" fill="#66392c"/>
        </g>
    </g>
</svg>