<svg xmlns="http://www.w3.org/2000/svg" width="68.673" height="163.419" viewBox="0 0 68.673 163.419">
    <g id="Group_8" data-name="Group 8" transform="translate(-112.989 -304.866)">
        <path id="Path_1" data-name="Path 1" d="M161.707,374.735,178.756,326.8c.72-2.538-.554-5.331-2.432-5.331h-60.7c-1.885,0-3.16,2.811-2.427,5.351l17.282,47.913L113.2,422.648c-.733,2.54.542,5.352,2.427,5.352h60.7c1.878,0,3.152-2.794,2.432-5.332Z" fill="#8e8e8e"/>
        <g id="Group_7" data-name="Group 7">
            <path id="Path_2" data-name="Path 2" d="M147.47,391.156c4.744,14.625,13.044,25.495,11.661,29.645s-4.348,6.127-4.151,11.858,4.843,19.517,3.854,21.987-3.211,5.188-1.581,6.67,3.261,1.285,5.04,2.965,2.569,3.113,3.607,3.31,6.917-.049,7.016-.543-1.334-1.729-3.409-1.433c-2.52-3.8-6.028-7.263-6.226-9.635s5.04-24.309,5.04-29.447.4-7.214,1.383-8.5-4.249-31.621-5.138-33.6S144.9,386.61,144.9,386.61Z" fill="#7a3f2d"/>
            <path id="Path_3" data-name="Path 3" d="M144.9,386.61l2.569,4.546c4.744,14.625,13.044,25.495,11.661,29.645s-4.348,6.127-4.151,11.858,4.843,19.517,3.854,21.987c-.143.359-.313.723-.493,1.087,2.585-2.661,2.069-10.747.79-18.33-1.384-8.2.79-14.922,2.075-12.847s-1.383-8.7-3.953-16.206c-2.535-7.41.32-15.493,6.85-24.25C161.056,383.039,144.9,386.61,144.9,386.61Z" fill="#d6b7af" style="mix-blend-mode: multiply;isolation: isolate"/>
            <path id="Path_4" data-name="Path 4" d="M132.6,386.314c1.235,11.759,3.344,26.384,3.344,30.469s-3.294,14.361-2.636,18.314,8.565,21.871,6.852,26.878-2.767,5.007-.791,5.929,8.3.132,8.037-1.976-3.03-5.4-3.557-9.882,1.318-15.679,2.372-23.848-.923-12.649-.4-12.912c1.845-4.216,3.294-32.544,3.294-32.544l-15.02-5.8Z" fill="#8a4d3b"/>
            <path id="Path_5" data-name="Path 5" d="M139.73,423.14c1.614.461,3.293-.857,1.515-.56s-3.986-1.12-4.513-4.085-1.713-19.631-.527-24.309,6.127-4.743,10.145-6.851L133.4,383.458l-.8,2.856c1.235,11.759,3.344,26.384,3.344,30.469s-3.294,14.361-2.636,18.314c.637,3.821,8.046,20.693,6.991,26.335,2.654-1.57-.063-10.267-2.511-19.682-2.569-9.881-2.306-15.909-1.779-17.128A3.084,3.084,0,0,1,139.73,423.14Z" fill="#d6b7af" style="mix-blend-mode: multiply;isolation: isolate"/>
            <path id="Path_6" data-name="Path 6" d="M160.415,344.81a39.893,39.893,0,0,0,8.3,10.771c-3.656,6.127-4.249,9.684-7.51,10.673s1.878,3.952,1.878,3.952c9.98-3.162,18.676-9.881,18.577-13.636-2.174-3.558-7.51-9.882-12.846-17.788s-7.873-9.124-13.571-9.75C150.534,332.359,160.415,344.81,160.415,344.81Z" fill="#8a4d3b"/>
            <path id="Path_7" data-name="Path 7" d="M136.4,328.7c-6.522,1.186-9.981,2.47-10.771,9.882s1.383,17.293.1,23.123-.691,13.34-.2,16.7-.593,5.732-1.581,9.19-.4,7.115.1,7.313a38.028,38.028,0,0,0,1.845,3.656c.264.626,1.318-.1.922-1.844a12.134,12.134,0,0,1,.725-5.633c-.132,2.5.362,3.228,1.186,3.426s.428-1.12.494-2.24,1.449-3.755,1.021-5.2a7.189,7.189,0,0,1-.263-4.875c.658-2.207,3.755-11.891,3.557-17.227s2.273-12.945,2.273-12.945l1.482-22.333Z" fill="#8a4d3b"/>
            <path id="Path_8" data-name="Path 8" d="M160.251,367.439c4.15,8.565,5.468,17.788,5.2,18.381-1.12,1.251-14.954,1.581-17.919,1.383s3.755-20.62,3.755-20.62Z" fill="#ebcea6"/>
            <path id="Path_9" data-name="Path 9" d="M147.7,385.984c-.74-.049-.877-1.358-.665-3.3-.406,2.588-.386,4.455.5,4.514,2.965.2,16.8-.132,17.919-1.383a3.48,3.48,0,0,0-.016-1.082C163.472,385.876,150.554,386.175,147.7,385.984Z" fill="#361b18"/>
            <path id="Path_10" data-name="Path 10" d="M134.558,367.9c-3.557,8.5-3.557,14.756-2.833,19.631a8.6,8.6,0,0,0,1.516-.131c0-2.043,1.251-1.252,1.317.066,8.3,1.383,15.152.658,15.218.131.066-.922-.988-3.03.527-3.228s2.042-.922,2.042-4.809-.593-12.253-.593-12.253Z" fill="#ffe2ba"/>
            <path id="Path_11" data-name="Path 11" d="M135.266,386.413c-.066-1.318-2.668-2.142-2.668-.1a5.639,5.639,0,0,1-1.028.041q.069.6.155,1.177a8.6,8.6,0,0,0,1.516-.131c0-2.043,1.251-1.252,1.317.066,8.3,1.383,15.152.658,15.218.131a4.086,4.086,0,0,0-.124-.97C147.992,387.118,142.268,387.579,135.266,386.413Z" fill="#4f2823"/>
            <path id="Path_12" data-name="Path 12" d="M138.379,328.6l-1.976.1c-.264,14.23-1.516,17-4.744,16.931,2.372,9.025,6.457,14.822,4.875,18.05s-2.371,4.546-2.371,4.546c5.2.725,19.566,4.743,26.615-.593-1.911-4.809-3.1-7.444-2.9-9.223s3.36-11.792,2.9-14.493a35.722,35.722,0,0,1-5.534-14.889l-2.092-.428-9.239.362a26.041,26.041,0,0,1-4.019.4A8.031,8.031,0,0,0,138.379,328.6Z" fill="#e50516"/>
            <path id="Path_13" data-name="Path 13" d="M136.205,311.558s-.766-4.62-.148-4.743c.148-1.063,1.433-1.063,1.433-1.063.271-1.111,1.828-.741,1.951-.469a1.351,1.351,0,0,1,2.051.124c.494-.717,1.951-.494,2.026.074,1.26-.593,1.976-.05,2,.42,1.161-.692,1.729-.1,1.729.37,1.161-.173,1.556.247,1.63.766.346.247,1.038.642,1.087,1.384.05.79.075,9.881-1.877,10.721S136.205,311.558,136.205,311.558Z" fill="#361b18"/>
            <path id="Path_14" data-name="Path 14" d="M137.193,308.643a5.927,5.927,0,0,1-.988,2.915c.247,2.52-.1,6.077.494,8.4a6.669,6.669,0,0,0,2.915,4.051c.247,3.36-.049,4.793-1.235,4.6.494,6.374,2.718,13.489,8.153,14.23s7.757-9.338,6.62-14.23c-3.063-.889-3.607-2.421-3.952-4.5s-1.152-7.657-1.152-7.657l-.429-.792h-1.335c.2-1.384-.395-6.868-.839-6.818S137.193,308.643,137.193,308.643Z" fill="#8a4d3b"/>
            <g id="Group_2" data-name="Group 2">
                <path id="Path_15" data-name="Path 15" d="M143.476,315.208c0,.28-.164.506-.366.506s-.367-.226-.367-.506.164-.505.367-.505S143.476,314.929,143.476,315.208Z" fill="#361b18"/>
                <g id="Group_1" data-name="Group 1">
                    <path id="Path_16" data-name="Path 16" d="M143.6,315.092c-.246-.374-.519-.576-.734-.542a.33.33,0,0,0-.25.274l-.171-.045a.5.5,0,0,1,.393-.4c.288-.048.62.178.909.618Z" fill="#361b18"/>
                </g>
            </g>
            <g id="Group_4" data-name="Group 4">
                <path id="Path_17" data-name="Path 17" d="M139.112,315.225c0,.279-.164.505-.367.505s-.366-.226-.366-.505.164-.506.366-.506S139.112,314.946,139.112,315.225Z" fill="#361b18"/>
                <g id="Group_3" data-name="Group 3">
                    <path id="Path_18" data-name="Path 18" d="M139.24,315.108c-.246-.374-.52-.576-.734-.541a.329.329,0,0,0-.251.273l-.17-.044a.5.5,0,0,1,.392-.4c.289-.047.62.178.91.619Z" fill="#361b18"/>
                </g>
            </g>
            <g id="Group_6" data-name="Group 6">
                <path id="Path_19" data-name="Path 19" d="M142.061,318.563c-.3-.165-.884-.3-.657-.115A.957.957,0,0,0,142.061,318.563Z" fill="#361b18"/>
                <g id="Group_5" data-name="Group 5">
                    <path id="Path_20" data-name="Path 20" d="M142.009,318.868,142,318.8a.332.332,0,0,0,.265-.155c.067-.129.03-.338-.111-.619l.065-.032a.8.8,0,0,1,.11.685A.4.4,0,0,1,142.009,318.868Z" fill="#361b18"/>
                </g>
            </g>
            <circle id="Ellipse_1" data-name="Ellipse 1" cx="1.831" cy="1.831" r="1.831" transform="translate(147.216 314.396)" fill="#8a4d3b"/>
            <path id="Path_21" data-name="Path 21" d="M145.153,322.6a.082.082,0,0,1-.063-.026.079.079,0,0,1,.006-.113,8,8,0,0,0,1.763-3.36.081.081,0,0,1,.1-.053.08.08,0,0,1,.053.1,7.977,7.977,0,0,1-1.809,3.431A.08.08,0,0,1,145.153,322.6Z" fill="#d6b7af" style="mix-blend-mode: multiply;isolation: isolate"/>
            <path id="Path_22" data-name="Path 22" d="M124.525,393.885a.082.082,0,0,1,.066-.021.08.08,0,0,1,.068.09,8.014,8.014,0,0,0,.826,3.7.081.081,0,0,1-.043.105.079.079,0,0,1-.1-.043,7.967,7.967,0,0,1-.837-3.787A.076.076,0,0,1,124.525,393.885Z" fill="#d6b7af" style="mix-blend-mode: multiply;isolation: isolate"/>
            <path id="Path_23" data-name="Path 23" d="M124.291,390.9a.083.083,0,0,1,.069,0,.08.08,0,0,1,.041.105,7.991,7.991,0,0,0-.239,3.788.08.08,0,0,1-.07.088.079.079,0,0,1-.089-.069,7.978,7.978,0,0,1,.252-3.871A.081.081,0,0,1,124.291,390.9Z" fill="#d6b7af" style="mix-blend-mode: multiply;isolation: isolate"/>
            <path id="Path_24" data-name="Path 24" d="M150.191,315.726a3.184,3.184,0,0,0-1.354.134.092.092,0,0,0-.028.009,2.657,2.657,0,0,0-.811.44.081.081,0,0,0-.013.112.079.079,0,0,0,.063.03.081.081,0,0,0,.05-.018,2.487,2.487,0,0,1,.759-.409.608.608,0,0,1,.351.362.552.552,0,0,1-.186.562.08.08,0,0,0,0,.113.077.077,0,0,0,.055.022.082.082,0,0,0,.058-.024.7.7,0,0,0,.222-.722.747.747,0,0,0-.286-.377,3.085,3.085,0,0,1,1.092-.076.08.08,0,0,0,.025-.158Z" fill="#d6b7af" style="mix-blend-mode: multiply;isolation: isolate"/>
            <path id="Path_25" data-name="Path 25" d="M139.894,314l.085.24c.022.077.051.172.08.282s.057.235.078.374a4.667,4.667,0,0,1,.059.957,2.789,2.789,0,0,1-.26,1.084,1.677,1.677,0,0,1-.357.459c-.134.131-.307.227-.347.341a.386.386,0,0,0,0,.2c.008.034.022.08.029.1a1.07,1.07,0,0,0,.048.106,1.087,1.087,0,0,0,.28.3,3.057,3.057,0,0,0,.567.335c.147.067.233.1.233.1a2.278,2.278,0,0,1-.247-.064,2.572,2.572,0,0,1-.618-.28,1.2,1.2,0,0,1-.343-.329c-.026-.038-.038-.072-.059-.109a1.306,1.306,0,0,1-.047-.13.511.511,0,0,1-.007-.3.588.588,0,0,1,.183-.246c.068-.062.136-.117.2-.177a1.485,1.485,0,0,0,.312-.411,2.856,2.856,0,0,0,.263-1.006,5.18,5.18,0,0,0,0-.931c-.023-.273-.057-.5-.085-.659Z" fill="#361b18"/>
            <path id="Path_26" data-name="Path 26" d="M141.275,320.579a3.51,3.51,0,0,1-1.938-.514.1.1,0,0,1,.11-.165,4.229,4.229,0,0,0,4.073-.108.1.1,0,0,1,.119.158A4.347,4.347,0,0,1,141.275,320.579Z" fill="#361b18"/>
            <path id="Path_27" data-name="Path 27" d="M141.353,321.419a1.723,1.723,0,0,1-.707-.177.1.1,0,0,1-.044-.133.1.1,0,0,1,.132-.044,1.441,1.441,0,0,0,1.381-.035.1.1,0,1,1,.145.134A1.3,1.3,0,0,1,141.353,321.419Z" fill="#d6b7af" style="mix-blend-mode: multiply;isolation: isolate"/>
            <path id="Path_28" data-name="Path 28" d="M145,313.9a7.747,7.747,0,0,0-3.162.033C142.282,312.447,143.583,312.48,145,313.9Z" fill="#361b18"/>
            <path id="Path_29" data-name="Path 29" d="M142.289,312.948c-.544.549-.451.982-.451.982C141.535,313.009,141.887,312.96,142.289,312.948Z" fill="#361b18"/>
            <path id="Path_30" data-name="Path 30" d="M136.946,313.831a4.153,4.153,0,0,1,2.6.1C139.1,312.447,137.7,312.513,136.946,313.831Z" fill="#361b18"/>
            <path id="Path_31" data-name="Path 31" d="M139.1,312.948c.543.549.451.982.451.982C139.852,313.009,139.5,312.96,139.1,312.948Z" fill="#361b18"/>
            <path id="Path_32" data-name="Path 32" d="M139.614,324.009c1.532.395,3.558.2,4-.2C142.134,328.406,140.306,326.035,139.614,324.009Z" fill="#d6b7af" style="mix-blend-mode: multiply;isolation: isolate"/>
            <path id="Path_33" data-name="Path 33" d="M131.659,345.6a.1.1,0,0,1-.1-.072c-.765-2.648-2.317-3.057-2.333-3.06a.1.1,0,0,1-.072-.12.1.1,0,0,1,.119-.072c.069.016,1.679.44,2.476,3.2a.1.1,0,0,1-.067.122A.086.086,0,0,1,131.659,345.6Z" fill="#d6b7af" style="mix-blend-mode: multiply;isolation: isolate"/>
            <path id="Path_34" data-name="Path 34" d="M162.145,366.4c-.84-1.927-3.805-2.816-4-2.816a11.726,11.726,0,0,0-3.014.395,26.678,26.678,0,0,0-3.113,2.322c.494.741,2.866-.445,3.755-.692s1.927-.148,1.729.05-3.755,1.531-3.854,2.124,1.137.741,1.137.741c.2,1.186,2.421.89,2.421.89.593.988,2.026.247,3.31,1.037S164.615,371.985,162.145,366.4Z" fill="#8a4d3b"/>
            <path id="Path_35" data-name="Path 35" d="M168.9,355.631a.1.1,0,0,1-.056-.18,8.076,8.076,0,0,1,9.295-.532.1.1,0,0,1-.1.172,7.894,7.894,0,0,0-9.085.522A.1.1,0,0,1,168.9,355.631Z" fill="#d6b7af" style="mix-blend-mode: multiply;isolation: isolate"/>
            <path id="Path_36" data-name="Path 36" d="M158.723,367.2a.1.1,0,0,1-.1.067c-2.754-.118-3.636,1.222-3.644,1.236a.1.1,0,0,1-.137.03.1.1,0,0,1-.03-.136c.037-.059.952-1.451,3.82-1.328a.1.1,0,0,1,.094.1A.087.087,0,0,1,158.723,367.2Z" fill="#d6b7af" style="mix-blend-mode: multiply;isolation: isolate"/>
            <path id="Path_37" data-name="Path 37" d="M159.955,368.989a5.674,5.674,0,0,0-2.723.466,1.144,1.144,0,0,0,.132.163,5.5,5.5,0,0,1,2.583-.431.1.1,0,0,0,.1-.068.076.076,0,0,0,.005-.027A.1.1,0,0,0,159.955,368.989Z" fill="#d6b7af" style="mix-blend-mode: multiply;isolation: isolate"/>
        </g>
    </g>
</svg>