<svg xmlns="http://www.w3.org/2000/svg" width="88.329" height="164.087" viewBox="0 0 88.329 164.087">
    <g id="Group_27" data-name="Group 27" transform="translate(-344.07 -549.894)">
        <path id="Path_75" data-name="Path 75" d="M385.314,674.566,344.351,564.113c-.981-2.645.726-5.572,3.25-5.572h81.268c2.515,0,4.221,2.909,3.257,5.551L391.82,674.545A3.38,3.38,0,0,1,385.314,674.566Z" fill="#8e8e8e"/>
        <g id="Group_26" data-name="Group 26">
            <path id="Path_76" data-name="Path 76" d="M373.114,633c-.309,9.364,3.91,26.239,2.778,34.265s-.926,11.73.412,21.917,3.087,17.8,1.543,20.168a14.052,14.052,0,0,0-1.955,4.631l8.643-.206c.412-.926-1.131-4.836-1.337-6.277s.514-14.714,1.543-24.181-.926-15.537-.411-17.493,2.469-31.589,2.469-31.589Z" fill="#8a4d3b"/>
            <path id="Path_77" data-name="Path 77" d="M375.892,667.265c-1.132,8.026-.926,11.73.412,21.917,1.23,9.373,2.807,16.565,1.85,19.5,1.454-1.652.542-12.216-.719-22.55-1.371-11.25.035-17.527,1.407-17.63s2.915.1,2.812-.343-.411.24-2.572-.275-2.058-8.437-2.367-16.463.618-12.76,6.174-16.978l.074-.552L373.114,633C372.8,642.364,377.024,659.239,375.892,667.265Z" fill="#d6b7af" style="mix-blend-mode: multiply;isolation: isolate"/>
            <path id="Path_78" data-name="Path 78" d="M402.629,633c.309,9.364-3.91,26.239-2.778,34.265s.926,11.73-.412,21.917-3.086,17.8-1.543,20.168a14.052,14.052,0,0,1,1.955,4.631l-8.643-.206c-.412-.926,1.132-4.836,1.337-6.277s-.514-14.714-1.543-24.181.926-15.537.411-17.493-2.469-31.589-2.469-31.589Z" fill="#8a4d3b"/>
            <path id="Path_79" data-name="Path 79" d="M391.857,710.1c1.3-2.919,2.461-10.7,1.356-17.793-1.3-8.369.1-23.633,1.269-23.873s2.161-.411,2.161-.686-1.235.549-2.881,0c-1.613-.537-3.223-18.724,5.359-34.428l-10.177.918s1.955,29.634,2.469,31.589-1.44,8.027-.411,17.493,1.749,22.741,1.543,24.181A24.076,24.076,0,0,1,391.857,710.1Z" fill="#d6b7af" style="mix-blend-mode: multiply;isolation: isolate"/>
            <path id="Path_80" data-name="Path 80" d="M399.1,619.52l-22.416.307-.222-.307c-4.322,10.5-3.773,15.5-3.773,15.5l14.131,1.029.961-.892.96.892,14.131-1.029S403.425,630.016,399.1,619.52Z" fill="#ffe2ba"/>
            <path id="Path_81" data-name="Path 81" d="M406.057,593.9c.515,5.453-3.4,12.862-6.071,17.287a10.192,10.192,0,0,0-.926,8.643c-1.939,1.235-13.187,2.984-22.551,0a10.188,10.188,0,0,0-.926-8.643c-2.675-4.425-6.585-11.834-6.071-17.287l4.219-17.7,1.9-.617,23.718.463,2.409.154Z" fill="#e50516"/>
            <path id="Path_82" data-name="Path 82" d="M371.03,623.263a13.724,13.724,0,0,1-1.273-.759c.206-.411.784-.373.784-.373-.128-.115-.3-.257-.3-.257.425-.54,1.171-1.26,1.4-.849a6.841,6.841,0,0,1,.721,1.955C372.3,623.2,371.03,623.263,371.03,623.263Z" fill="#6b3c2e"/>
            <path id="Path_83" data-name="Path 83" d="M380.145,556.1c-.72-2.264.343-5.076,2.2-5.659s8.335-1.235,10.324,1.131.926,12.177-.72,13.583S380.145,556.1,380.145,556.1Z" fill="#361b18"/>
            <path id="Path_84" data-name="Path 84" d="M380.368,553.82a19.687,19.687,0,0,0-.1,7.82c.463,3.447,1.235,6.946,2.47,7.306-.206,5.4-7.1,6.637-7.1,6.637,1.08,5.556,2.366,15.795,12.4,16.464s11.473-13.068,11.319-16c-5.351-1.544-7.049-3.859-7.409-5.093s.412-7.409.412-7.409c-.772-.669-.36-2.933-.36-2.933-.978.463-1.441-1.286-1.441-2.418s-.154-5.042-.926-4.785-3.6,1.287-5.248.875S380.728,552.637,380.368,553.82Z" fill="#8a4d3b"/>
            <g id="Group_20" data-name="Group 20">
                <path id="Path_85" data-name="Path 85" d="M388.015,560.428c0,.291-.171.526-.381.526s-.382-.235-.382-.526.171-.527.382-.527S388.015,560.137,388.015,560.428Z" fill="#361b18"/>
                <g id="Group_19" data-name="Group 19">
                    <path id="Path_86" data-name="Path 86" d="M388.149,560.306c-.256-.389-.541-.6-.765-.564a.345.345,0,0,0-.261.285l-.177-.046a.52.52,0,0,1,.409-.419c.3-.049.645.185.947.644Z" fill="#361b18"/>
                </g>
            </g>
            <g id="Group_22" data-name="Group 22">
                <ellipse id="Ellipse_3" data-name="Ellipse 3" cx="0.382" cy="0.527" rx="0.382" ry="0.527" transform="translate(382.557 559.829)" fill="#361b18"/>
                <g id="Group_21" data-name="Group 21">
                    <path id="Path_87" data-name="Path 87" d="M383.453,560.234c-.256-.389-.54-.6-.764-.564a.345.345,0,0,0-.261.285l-.177-.046a.52.52,0,0,1,.409-.419c.3-.05.645.185.947.644Z" fill="#361b18"/>
                </g>
            </g>
            <g id="Group_23" data-name="Group 23">
                <path id="Path_88" data-name="Path 88" d="M389.966,559.354a7.582,7.582,0,0,0-3.674-.589C387.737,557.166,389.324,558.131,389.966,559.354Z" fill="#361b18"/>
                <path id="Path_89" data-name="Path 89" d="M387.141,557.9a2.2,2.2,0,0,0-.849.864C386.25,558.131,386.587,557.889,387.141,557.9Z" fill="#361b18"/>
            </g>
            <g id="Group_24" data-name="Group 24">
                <path id="Path_90" data-name="Path 90" d="M381.123,559.023c.463-.47,2.611-.365,2.88-.221C383.206,557.094,381.037,557.833,381.123,559.023Z" fill="#361b18"/>
                <path id="Path_91" data-name="Path 91" d="M383.3,557.813a2.2,2.2,0,0,1,.7.989C384.146,558.182,383.851,557.89,383.3,557.813Z" fill="#361b18"/>
            </g>
            <path id="Path_92" data-name="Path 92" d="M384.929,559.586l-.011.232c0,.073-.017.162-.027.265s-.032.218-.059.342a5.539,5.539,0,0,1-.247.835,4.931,4.931,0,0,1-.449.9,1.733,1.733,0,0,1-.162.212.787.787,0,0,1-.235.149.881.881,0,0,0-.348.248.409.409,0,0,0,.008.366.881.881,0,0,0,.26.276,3.727,3.727,0,0,0,.513.312l.207.1-.221-.07a2.89,2.89,0,0,1-.559-.261,1,1,0,0,1-.315-.291.5.5,0,0,1-.083-.241.49.49,0,0,1,.008-.133.639.639,0,0,1,.037-.132.569.569,0,0,1,.191-.2,1.864,1.864,0,0,1,.221-.131.667.667,0,0,0,.185-.115,1.742,1.742,0,0,0,.14-.19,4.6,4.6,0,0,0,.248-.424c.073-.145.145-.288.206-.432s.119-.282.168-.416.092-.262.128-.382c.069-.241.122-.442.15-.587Z" fill="#361b18"/>
            <path id="Path_93" data-name="Path 93" d="M385.4,563.9c-.355-.24-1.076-.48-.813-.217A1.2,1.2,0,0,0,385.4,563.9Z" fill="#361b18"/>
            <g id="Group_25" data-name="Group 25">
                <path id="Path_94" data-name="Path 94" d="M385.359,564.221l-.014-.09a.416.416,0,0,0,.334-.2c.085-.164.038-.426-.139-.781l.082-.041a1.009,1.009,0,0,1,.139.864A.5.5,0,0,1,385.359,564.221Z" fill="#361b18"/>
            </g>
            <path id="Path_95" data-name="Path 95" d="M385.564,567.523a2.511,2.511,0,0,1-.976-.186.091.091,0,0,1-.049-.12.092.092,0,0,1,.12-.049,2.49,2.49,0,0,0,1.652.06.092.092,0,0,1,.123.041.093.093,0,0,1-.041.123A2.3,2.3,0,0,1,385.564,567.523Z" fill="#d6b7af" style="mix-blend-mode: multiply;isolation: isolate"/>
            <circle id="Ellipse_4" data-name="Ellipse 4" cx="1.907" cy="1.907" r="1.907" transform="translate(391.652 559.247)" fill="#8a4d3b"/>
            <path id="Path_96" data-name="Path 96" d="M389.813,567.193a.083.083,0,0,1-.06-.145,8.315,8.315,0,0,0,1.837-3.5.083.083,0,1,1,.159.049,8.311,8.311,0,0,1-1.884,3.573A.085.085,0,0,1,389.813,567.193Z" fill="#d6b7af" style="mix-blend-mode: multiply;isolation: isolate"/>
            <path id="Path_97" data-name="Path 97" d="M394.75,560.633a3.288,3.288,0,0,0-1.41.139.078.078,0,0,0-.029.01,2.761,2.761,0,0,0-.844.457.083.083,0,0,0-.013.117.08.08,0,0,0,.065.031.087.087,0,0,0,.052-.018,2.571,2.571,0,0,1,.79-.426.632.632,0,0,1,.365.376.574.574,0,0,1-.193.586.083.083,0,0,0,0,.118.084.084,0,0,0,.057.023.083.083,0,0,0,.06-.026.726.726,0,0,0,.232-.751.78.78,0,0,0-.3-.393,3.211,3.211,0,0,1,1.136-.079.083.083,0,0,0,.1-.069A.082.082,0,0,0,394.75,560.633Z" fill="#d6b7af" style="mix-blend-mode: multiply;isolation: isolate"/>
            <path id="Path_98" data-name="Path 98" d="M383.575,565.362a10.1,10.1,0,0,0,5.454-.275C384.973,567.814,384.981,566.871,383.575,565.362Z" fill="#fff"/>
            <path id="Path_99" data-name="Path 99" d="M382.735,568.946a8.708,8.708,0,0,0,5.059.223C384.638,573.422,383.781,572.565,382.735,568.946Z" fill="#d6b7af" style="mix-blend-mode: multiply;isolation: isolate"/>
            <path id="Path_100" data-name="Path 100" d="M373.731,576.2c2.264,13.583-1.749,22.741-2.778,21.506a9.808,9.808,0,0,1-1.441-3.807,29.36,29.36,0,0,0-8.849,9.055c6.174,5.865,11.73,12.553,12.348,12.759s3.7,3.293,3.5,4.116-1.955,4.939-1.955,4.939a32.129,32.129,0,0,1-5.3-1.338c.412-.823,2.573.258,2.058-.823s.566-3.138-.1-3.7-4.579-1.441-9.621-2.727S352.4,611.289,350,608.339s-2.127-4.459-1.1-5.831,11.8-20.991,14.612-23.529S373.731,576.2,373.731,576.2Z" fill="#8a4d3b"/>
            <path id="Path_101" data-name="Path 101" d="M352.74,603.545a.1.1,0,0,1-.042-.2,12.178,12.178,0,0,1,7.739-.519.1.1,0,0,1-.062.2,11.957,11.957,0,0,0-7.593.51A.088.088,0,0,1,352.74,603.545Z" fill="#d6b7af" style="mix-blend-mode: multiply;isolation: isolate"/>
            <path id="Path_102" data-name="Path 102" d="M372.016,595.236H372a.1.1,0,0,1-.088-.116,1.118,1.118,0,0,0-.38-.892,1.938,1.938,0,0,0-1.631-.535.1.1,0,0,1-.115-.088.1.1,0,0,1,.088-.116,2.149,2.149,0,0,1,1.8.594,1.323,1.323,0,0,1,.438,1.066A.1.1,0,0,1,372.016,595.236Z" fill="#d6b7af" style="mix-blend-mode: multiply;isolation: isolate"/>
            <path id="Path_103" data-name="Path 103" d="M404.463,623.263a13.727,13.727,0,0,0,1.273-.759c-.206-.411-.784-.373-.784-.373.128-.115.3-.257.3-.257-.424-.54-1.17-1.26-1.4-.849a6.866,6.866,0,0,0-.72,1.955C403.189,623.2,404.463,623.263,404.463,623.263Z" fill="#6b3c2e"/>
            <path id="Path_104" data-name="Path 104" d="M401.762,576.2c-2.264,13.583,1.749,22.741,2.778,21.506a9.808,9.808,0,0,0,1.441-3.807,29.36,29.36,0,0,1,8.849,9.055c-6.174,5.865-11.731,12.553-12.348,12.759s-3.7,3.293-3.5,4.116,1.956,4.939,1.956,4.939a32.128,32.128,0,0,0,5.3-1.338c-.412-.823-2.573.258-2.058-.823s-.566-3.138.1-3.7,4.579-1.441,9.621-2.727,9.192-4.887,11.593-7.837,2.126-4.459,1.1-5.831-11.8-20.991-14.611-23.529S401.762,576.2,401.762,576.2Z" fill="#8a4d3b"/>
            <path id="Path_105" data-name="Path 105" d="M422.753,603.545a.1.1,0,0,0,.042-.2,12.178,12.178,0,0,0-7.739-.519.1.1,0,0,0,.062.2,11.959,11.959,0,0,1,7.593.51A.088.088,0,0,0,422.753,603.545Z" fill="#d6b7af" style="mix-blend-mode: multiply;isolation: isolate"/>
            <path id="Path_106" data-name="Path 106" d="M403.476,595.236h.015a.1.1,0,0,0,.088-.116,1.118,1.118,0,0,1,.38-.892,1.937,1.937,0,0,1,1.63-.535.1.1,0,0,0,.116-.088.1.1,0,0,0-.088-.116,2.149,2.149,0,0,0-1.8.594,1.319,1.319,0,0,0-.438,1.066A.1.1,0,0,0,403.476,595.236Z" fill="#d6b7af" style="mix-blend-mode: multiply;isolation: isolate"/>
            <path id="Path_107" data-name="Path 107" d="M387.987,635.251a3.013,3.013,0,0,1-2.62-1.643.1.1,0,0,1,.189-.084,2.738,2.738,0,0,0,2.832,1.482c1.145-.237,1.787-1.425,1.807-3.345a.1.1,0,0,1,.1-.1h0a.1.1,0,0,1,.1.1c-.029,2.735-1.248,3.395-1.971,3.544A2.173,2.173,0,0,1,387.987,635.251Z" fill="#e6cba7"/>
            <path id="Path_108" data-name="Path 108" d="M387.158,635.743l-14.426-2.669a11.6,11.6,0,0,0-.039,1.95l14.131,1.029Z" fill="#361b18"/>
            <path id="Path_109" data-name="Path 109" d="M388.412,635.743l14.426-2.669a11.6,11.6,0,0,1,.039,1.95l-14.131,1.029Z" fill="#361b18"/>
        </g>
    </g>
</svg>