<svg xmlns="http://www.w3.org/2000/svg" width="62.347" height="164.504" viewBox="0 0 62.347 164.504">
    <rect id="Rectangle_2" data-name="Rectangle 2" width="62.347" height="124.685" rx="10.52" transform="translate(0 23.125)" fill="#8e8e8e"/>
    <g id="Group_68" data-name="Group 68" transform="translate(-350.81 -303.781)">
        <g id="Group_66" data-name="Group 66">
            <g id="Group_58" data-name="Group 58">
                <g id="Group_49" data-name="Group 49">
                    <g id="Group_48" data-name="Group 48">
                        <path id="Path_178" data-name="Path 178" d="M395.556,390.208l-3.738,74.6,6.4,3.475h-11.9l-2.406-77.262Z" fill="#fca385"/>
                        <path id="Path_179" data-name="Path 179" d="M368.411,390.208l3.738,74.6-6.4,3.475h11.9l2.406-77.262Z" fill="#fca385"/>
                    </g>
                </g>
                <path id="Path_180" data-name="Path 180" d="M395.232,377.395h-26.5l-.721,14.744a22.824,22.824,0,0,0,12.883.7l1.087-6.417,1.086,6.417a22.828,22.828,0,0,0,12.884-.7Z" fill="#e50516"/>
                <g id="Group_57" data-name="Group 57">
                    <g id="Group_56" data-name="Group 56">
                        <g id="Group_55" data-name="Group 55">
                            <g id="Group_50" data-name="Group 50">
                                <path id="Path_181" data-name="Path 181" d="M402.372,387.092c-.486-6.3-3.151-40.707-3.735-45.67-.644-5.467-3.594-6.517-3.594-6.517l-2.922,2.447,2.4,4.541,4.272,45.225Z" fill="#fca385"/>
                            </g>
                            <g id="Group_51" data-name="Group 51">
                                <path id="Path_182" data-name="Path 182" d="M399.748,386.128l-.942.964s-1.125,2.817-.84,3.161.868-1.178.868-1.178-.335,2.2,0,2.638.914-2.467.914-2.467-.242,3.547.241,3.6.628-3.031.628-3.031.242,2.54.58,2.491.338-2.785.338-2.785.58,2.441.919,2.2-.078-4.621-.078-4.621l-.986-.964Z" fill="#fca385"/>
                            </g>
                            <g id="Group_52" data-name="Group 52">
                                <path id="Path_183" data-name="Path 183" d="M381.984,331.465l-13.249,3.425v42.5c0,2.021,26.5,2.021,26.5,0v-42.5Z" fill="#fca385"/>
                            </g>
                            <g id="Group_53" data-name="Group 53">
                                <path id="Path_184" data-name="Path 184" d="M361.6,387.092c.486-6.3,3.151-40.707,3.735-45.67.644-5.467,3.594-6.517,3.594-6.517l2.922,2.447-2.4,4.541-4.271,45.225Z" fill="#fca385"/>
                            </g>
                            <g id="Group_54" data-name="Group 54">
                                <path id="Path_185" data-name="Path 185" d="M364.22,386.128l.941.964s1.125,2.817.841,3.161-.868-1.178-.868-1.178.334,2.2,0,2.638-.914-2.467-.914-2.467.241,3.547-.242,3.6-.628-3.031-.628-3.031-.242,2.54-.58,2.491-.338-2.785-.338-2.785-.58,2.441-.918,2.2.078-4.621.078-4.621l.985-.964Z" fill="#fca385"/>
                            </g>
                        </g>
                        <rect id="Rectangle_4" data-name="Rectangle 4" width="5.613" height="7.747" transform="translate(379.178 327.59)" fill="#fca385"/>
                        <path id="Path_186" data-name="Path 186" d="M384.791,327.59v4.054a6.231,6.231,0,0,1-5.613-1.112V327.59Z" fill="#e38166"/>
                    </g>
                </g>
            </g>
            <g id="Group_65" data-name="Group 65">
                <g id="Group_64" data-name="Group 64">
                    <g id="Group_61" data-name="Group 61">
                        <path id="Path_187" data-name="Path 187" d="M389.409,310.593l-7.425,1.834-7.426-1.834c-1.366,2.08-.451,9.346-.451,9.346,1.225,6.76,7.877,6.445,7.877,6.445s6.652.315,7.876-6.445C389.86,319.939,390.776,312.673,389.409,310.593Z" fill="#36221b"/>
                        <g id="Group_60" data-name="Group 60">
                            <g id="Group_59" data-name="Group 59">
                                <path id="Path_188" data-name="Path 188" d="M390.548,320.1a1.461,1.461,0,1,1-.428-2.252A1.643,1.643,0,0,1,390.548,320.1Z" fill="#f89377"/>
                                <path id="Path_189" data-name="Path 189" d="M373.419,320.1a1.462,1.462,0,1,0,.428-2.252A1.644,1.644,0,0,0,373.419,320.1Z" fill="#f89377"/>
                            </g>
                        </g>
                        <path id="Path_190" data-name="Path 190" d="M375.111,312.427v9.01a8.919,8.919,0,0,0,2.458,6.384,6.258,6.258,0,0,0,8.829,0,8.919,8.919,0,0,0,2.458-6.384v-9.01Z" fill="#fca385"/>
                        <path id="Path_191" data-name="Path 191" d="M386.2,307.381a13.831,13.831,0,0,0-8.443,0,5.954,5.954,0,0,0-3.792,5.916c.121,2.3.438,6.533,1.141,6.636.967.142.785-7.506.785-7.506,0,1.352,12.175,1.352,12.175,0,0,0-.182,7.648.785,7.506.7-.1,1.02-4.332,1.141-6.636A5.952,5.952,0,0,0,386.2,307.381Z" fill="#36221b"/>
                    </g>
                    <path id="Path_192" data-name="Path 192" d="M382.153,318.249s-1.513,5.535-1.079,5.679a2.274,2.274,0,0,0,1.235-.233Z" fill="#e38166"/>
                    <path id="Path_193" data-name="Path 193" d="M387.776,323.284a1.725,1.725,0,1,1-1.725-1.725A1.725,1.725,0,0,1,387.776,323.284Z" fill="#df6733"/>
                    <circle id="Ellipse_8" data-name="Ellipse 8" cx="1.725" cy="1.725" r="1.725" transform="translate(376.191 321.559)" fill="#df6733"/>
                    <path id="Path_194" data-name="Path 194" d="M380.529,326.271a8.394,8.394,0,0,0,3.8-.808A2.428,2.428,0,0,1,380.529,326.271Z" fill="#fff"/>
                    <g id="Group_62" data-name="Group 62">
                        <path id="Path_195" data-name="Path 195" d="M385.005,318.753a.739.739,0,1,0,.738.739A.745.745,0,0,0,385.005,318.753Z" fill="#36221b"/>
                        <path id="Path_196" data-name="Path 196" d="M378.962,318.753a.739.739,0,1,0,.738.739A.745.745,0,0,0,378.962,318.753Z" fill="#36221b"/>
                    </g>
                    <g id="Group_63" data-name="Group 63">
                        <path id="Path_197" data-name="Path 197" d="M386.182,317.373a2.144,2.144,0,0,0-2.753.249.153.153,0,0,0,.185.24,2.337,2.337,0,0,1,2.282,0A.284.284,0,0,0,386.182,317.373Z" fill="#36221b"/>
                        <path id="Path_198" data-name="Path 198" d="M377.631,317.373a2.146,2.146,0,0,1,2.754.249.154.154,0,0,1-.185.24,2.339,2.339,0,0,0-2.283,0A.284.284,0,0,1,377.631,317.373Z" fill="#36221b"/>
                    </g>
                </g>
                <path id="Path_199" data-name="Path 199" d="M374.153,311.684a10.591,10.591,0,0,1,7.308-7.9c-.307.77-.474,1.6-.781,2.366a5.1,5.1,0,0,1,4.154-.471,1.516,1.516,0,0,0-1.056.918,1.614,1.614,0,0,0-.029,1.449C380.653,309.2,377.249,310.525,374.153,311.684Z" fill="#36221b"/>
            </g>
        </g>
        <g id="Group_67" data-name="Group 67">
            <path id="Path_200" data-name="Path 200" d="M391.545,349.949c-2.8.736-5.153.081-7.752-.963a.017.017,0,0,0-.017.028c2.073,1.8,5.334,2.042,7.9,1.427A.255.255,0,0,0,391.545,349.949Z" fill="#e38166"/>
            <path id="Path_201" data-name="Path 201" d="M372.423,349.949c2.8.736,5.153.081,7.752-.963.015-.006.028.018.016.028-2.073,1.8-5.333,2.042-7.9,1.427C371.968,350.364,372.1,349.865,372.423,349.949Z" fill="#e38166"/>
        </g>
        <path id="Path_202" data-name="Path 202" d="M382.08,374.623a.4.4,0,0,0-.385.505.507.507,0,0,0,.127.217.375.375,0,0,0,.587-.055.253.253,0,0,0,.1-.148A.443.443,0,0,0,382.08,374.623Z" fill="#e38166"/>
    </g>
</svg>