<svg xmlns="http://www.w3.org/2000/svg" width="91.422" height="165.276" viewBox="0 0 91.422 165.276">
    <g id="Group_37" data-name="Group 37" transform="translate(-340.591 -783.652)">
        <ellipse id="Ellipse_5" data-name="Ellipse 5" cx="45.711" cy="51.425" rx="45.711" ry="51.425" transform="translate(340.591 802.685)" fill="#8e8e8e"/>
        <g id="Group_36" data-name="Group 36">
            <path id="Path_110" data-name="Path 110" d="M365.994,883.273c3.6,14.965,7.205,24.8,9.907,26.189s7.9,30.97,6.375,31.662-10.462,3.534-10.67,4.435,4.226,1.8,7.967,1.177a32.974,32.974,0,0,1,8.315-.415c2.355.138,1.87-2.633,1.316-4.989s6.79-17.6,5.4-26.535-5.058-8.938-4.781-12.4a29.751,29.751,0,0,1,1.525-6.859l-1.317-18.291Z" fill="#f08a6c"/>
            <path id="Path_111" data-name="Path 111" d="M394.608,914.8c-1.386-8.938-5.058-8.938-4.781-12.4a29.751,29.751,0,0,1,1.525-6.859l-1.317-18.291-21.862,5.481c14.157,3.937,17.916,17.281,18.017,25.489.1,8.418,1.039,2.91,4.157,2.7,3.047-.2-3.435,25.3-.818,31.988-.086-.521-.2-1.057-.325-1.573C388.65,938.977,395.994,923.734,394.608,914.8Z" fill="#ffcaba" style="mix-blend-mode: multiply;isolation: isolate"/>
            <path id="Path_112" data-name="Path 112" d="M385.393,884.52c1.663,10.115,7.76,19.676,9.839,22.863s2.494,12.471,5.4,18.153,5.819,11.085,5.127,14.549-3.049,7.9-1.109,8.176,10.116,1.8,10.393-.97-3.6-8.453-3.187-10.809,5.542-19.122,1.8-26.6-4.711-8.592-4.157-16.906-3.464-16.351-3.464-16.351Z" fill="#ff9f82"/>
            <path id="Path_113" data-name="Path 113" d="M409.5,892.972c.554-8.314-3.464-16.351-3.464-16.351l-9.114,3.487-5.574,4.55c8.037,3.742,11.778,3.88,13.579,8.592s3.464,12.193,3.187,14.549-3.464,2.91-4.572,2.771.623,1.455,4.087.139,5.474,3.048,4.919,8.868c-.528,5.548-2.815,15.248-.267,19.383a5.464,5.464,0,0,1-.425-2.478c.415-2.355,5.542-19.122,1.8-26.6S408.95,901.286,409.5,892.972Z" fill="#ffcaba" style="mix-blend-mode: multiply;isolation: isolate"/>
            <path id="Path_114" data-name="Path 114" d="M372.368,812.534c-8.453,4.365-11.362,7.968-11.64,16.7s.278,10.531-1.247,19.538,0,20.507,0,22.17-.554,6.374.416,7.067,7.2.554,7.2.554Z" fill="#ff9f82"/>
            <path id="Path_115" data-name="Path 115" d="M362.945,869.139a69.267,69.267,0,0,0,2.772,15.8c13.718,2.355,20.785-1.386,20.785-1.386L377.911,863.6Z" fill="#7a4434"/>
            <path id="Path_116" data-name="Path 116" d="M377.911,863.6l-.267.1,7.923,18.4s-6.886,3.639-20.249,1.472c.241.874.4,1.369.4,1.369,13.718,2.355,20.785-1.386,20.785-1.386Z" fill="#e6cba7"/>
            <path id="Path_117" data-name="Path 117" d="M377.564,869.97c1.04,3.43,2.494,5.612,4.677,5.612,1.974,7.379,2.7,9.769,2.7,9.769,10.185,2.079,17.979-.208,18.5-1.351s1.351-1.143,2.182-.312,3.326-.415,3.637-.935c.1-8-5.3-23.8-5.3-23.8Z" fill="#8a4d3b"/>
            <g id="Group_28" data-name="Group 28">
                <path id="Path_118" data-name="Path 118" d="M405.468,882.233c-.831-.831-1.663-.831-2.182.312s-8.727,3.282-18.779,1.3c.3,1.068.436,1.5.436,1.5,10.185,2.079,17.979-.208,18.5-1.351s1.351-1.143,2.182-.312,3.326-.415,3.637-.935q.008-.573-.021-1.2C408.288,882.146,406.143,882.908,405.468,882.233Z" fill="#ffe2ba"/>
            </g>
            <path id="Path_119" data-name="Path 119" d="M375.52,810.7l-3.152,1.836c-1.247,4.919-6.582,17.737-6.443,21.409s-3.95,14.272-5.2,22.725a27.9,27.9,0,0,0,1.317,14.134c8.868,3.88,17.6.554,22.725.346s11.5-.485,11.5-.485,8.522-6.651,8.591-7.967-.693-34.157-.693-34.157l-5.889-16.351-2.633-1.143Z" fill="#e50516"/>
            <path id="Path_120" data-name="Path 120" d="M393.257,799.353a1.262,1.262,0,0,1-.494,1.351c-.519.338-.441.6-.441,1.013s-.65.286-.858.962a1.275,1.275,0,0,1-1.429,1.065c-.883-.026-10.184-3.456-10.262-3.482a11.563,11.563,0,0,1-2.417-1.325,4.216,4.216,0,0,1-.779-1.377c-.052-.311-.078-.519.13-.727s-.052-1.065-.182-1.169-.52-.312-.468-.572,0-.779-.156-.883-1.039-.416-1.039-.754.6-.337.442-.519.312-.494.468-.806.026-.312-.364-.623-.13-.546-.39-.6-.935.312-1.143.208a.523.523,0,0,1,.26-.883c.545-.182.389-.6.8-.988s.442.156,1.039.572.442-.1.442-.572.728-.753.831-1.039-.909-.442-.961-.8.182-.624.6-.754.415.026.727-.208,0,0,.988-.1.233-.026.363-.467.546,0,.7.078.675-.208.8-.52.052-.52.78-.649.727.519.909.285.26-.363.546-.753-.312-.416.155-.624.78.6.91.546a1.13,1.13,0,0,1,1.247.1c1.013-.364.572-.364,1.325-.208s1.715-.286,1.663.156-.338.571.338.831,1.792.234,1.818.676-.338.935.416.519,1.065-.389,1.247-.233.6.026.935.181.78.364.39.52-.494-.234-.649.182.155.65.259.987.65.208.806.416-.494.442.286.831,1.74.676,1.117,1.04-1.143.285-.78.649.364.468.234.7-.026.363.052.519.312.078.832.208,1.065.572,1.091.883a2.312,2.312,0,0,1-.208.858c-.078.26-.364.338-.52.026s-.363-.416-.727-.13-.65.546-.572,1.091-.416.312-.208.728.26-.078.442.6a1.017,1.017,0,0,1-.39,1.117c-.156.182-.026.13-.234.624s-.6.078-.337.727S393.257,799.353,393.257,799.353Z" fill="#ffe2ba"/>
            <path id="Path_121" data-name="Path 121" d="M388.866,795.638c-.8.7.13.831.208,1.325s.442,1.273.961,1.247.572.831.572.831-.832,2.858-.1,3.9c-.208,1.663.468,7.119,5.144,8.107-1.247,6.339-6.7,16.368-14.237,14.757s-7.483-10.635-5.89-15.1c0,0,3.707-2.84,4.331-5.265-3.326-3.083-2.01-5.959-2.252-8.488s-.277-4.919.762-6.755c.5-.4,1.438-.892,1.36-.4s-.078.312.831.468.728.623.78,1.169.753.13,1.065.441,2.286,1.17,2.312.052-.1-.13.7.026.987-.13,1.221-.467,1.3-.806,1.039-.286-.831.753-.156.857,1.3-.156,1.039.286-.779.468-.415.754.234.311,0,.649.441.182.779.546S388.45,795.17,388.866,795.638Z" fill="#ff9f82"/>
            <g id="Group_30" data-name="Group 30">
                <ellipse id="Ellipse_6" data-name="Ellipse 6" cx="0.385" cy="0.532" rx="0.385" ry="0.532" transform="translate(384.898 796.731)" fill="#361b18"/>
                <g id="Group_29" data-name="Group 29">
                    <path id="Path_122" data-name="Path 122" d="M385.682,797.14c-.258-.394-.546-.606-.772-.57a.347.347,0,0,0-.263.288l-.179-.047a.527.527,0,0,1,.413-.423c.3-.05.651.187.956.65Z" fill="#361b18"/>
                </g>
            </g>
            <g id="Group_32" data-name="Group 32">
                <path id="Path_123" data-name="Path 123" d="M380.551,797.055c0,.293-.173.531-.386.531s-.385-.238-.385-.531.172-.532.385-.532S380.551,796.761,380.551,797.055Z" fill="#361b18"/>
                <g id="Group_31" data-name="Group 31">
                    <path id="Path_124" data-name="Path 124" d="M380.564,796.932c-.259-.394-.546-.6-.772-.57a.35.35,0,0,0-.264.288l-.179-.047a.528.528,0,0,1,.413-.423c.3-.05.652.187.957.65Z" fill="#361b18"/>
                </g>
            </g>
            <g id="Group_33" data-name="Group 33">
                <path id="Path_125" data-name="Path 125" d="M387,795.841a4.71,4.71,0,0,0-2.751-.971C385.476,793.414,386.609,794.546,387,795.841Z" fill="#ffe2ba"/>
                <path id="Path_126" data-name="Path 126" d="M385.193,794.09a2.22,2.22,0,0,0-.942.78C384.274,794.229,384.638,794.02,385.193,794.09Z" fill="#ffe2ba"/>
            </g>
            <g id="Group_34" data-name="Group 34">
                <path id="Path_127" data-name="Path 127" d="M378.608,795.351c1.592-.808,2.221-.679,2.515-.587A1.32,1.32,0,0,0,378.608,795.351Z" fill="#ffe2ba"/>
                <path id="Path_128" data-name="Path 128" d="M380.243,793.914a2.222,2.222,0,0,1,.88.85C381.149,794.122,380.8,793.887,380.243,793.914Z" fill="#ffe2ba"/>
            </g>
            <path id="Path_129" data-name="Path 129" d="M381.69,796.376l.042.23c.013.074.02.164.032.268s.018.221.02.35a5.836,5.836,0,0,1-.055.877,4.98,4.98,0,0,1-.241.983,1.831,1.831,0,0,1-.112.245.793.793,0,0,1-.2.2.9.9,0,0,0-.287.323.413.413,0,0,0,.091.359.887.887,0,0,0,.317.213,3.75,3.75,0,0,0,.576.192l.227.054-.233-.019a2.863,2.863,0,0,1-.609-.131,1.008,1.008,0,0,1-.376-.216.492.492,0,0,1-.136-.219.5.5,0,0,1-.022-.132.624.624,0,0,1,.007-.138.586.586,0,0,1,.142-.244,1.946,1.946,0,0,1,.187-.178c.061-.055.14-.109.157-.155a1.761,1.761,0,0,0,.1-.218,4.9,4.9,0,0,0,.148-.473c.039-.16.078-.317.1-.472s.054-.3.073-.447.03-.28.039-.406c.014-.252.021-.462.016-.611Z" fill="#361b18"/>
            <path id="Path_130" data-name="Path 130" d="M383.279,800.506c-.4-.157-1.167-.231-.849-.031A1.214,1.214,0,0,0,383.279,800.506Z" fill="#361b18"/>
            <g id="Group_35" data-name="Group 35">
                <path id="Path_131" data-name="Path 131" d="M383.313,800.83l-.034-.086a.423.423,0,0,0,.285-.268c.047-.18-.058-.428-.313-.737l.072-.059c.274.334.385.609.33.82A.505.505,0,0,1,383.313,800.83Z" fill="#361b18"/>
            </g>
            <path id="Path_132" data-name="Path 132" d="M383.332,803.926a2.526,2.526,0,0,1-.986-.188.092.092,0,1,1,.072-.17,2.516,2.516,0,0,0,1.668.06.093.093,0,0,1,.083.166A2.336,2.336,0,0,1,383.332,803.926Z" fill="#ffcaba" style="mix-blend-mode: multiply;isolation: isolate"/>
            <path id="Path_133" data-name="Path 133" d="M393.644,798.619a1.926,1.926,0,1,1-1.926-1.925A1.926,1.926,0,0,1,393.644,798.619Z" fill="#ff9f82"/>
            <path id="Path_134" data-name="Path 134" d="M388.455,803a.088.088,0,0,1-.067-.027.085.085,0,0,1,.006-.119,8.425,8.425,0,0,0,1.855-3.534.084.084,0,1,1,.16.05,8.4,8.4,0,0,1-1.9,3.609A.086.086,0,0,1,388.455,803Z" fill="#ffcaba" style="mix-blend-mode: multiply;isolation: isolate"/>
            <path id="Path_135" data-name="Path 135" d="M392.921,798.093a3.316,3.316,0,0,0-1.424.141.075.075,0,0,0-.029.009,2.81,2.81,0,0,0-.853.462.085.085,0,0,0-.013.119.086.086,0,0,0,.066.031.084.084,0,0,0,.052-.018,2.594,2.594,0,0,1,.8-.431.64.64,0,0,1,.369.38.58.58,0,0,1-.2.592.084.084,0,0,0,0,.119.081.081,0,0,0,.058.023.083.083,0,0,0,.061-.026.736.736,0,0,0,.234-.759.8.8,0,0,0-.3-.4,3.238,3.238,0,0,1,1.148-.08.084.084,0,1,0,.026-.166Z" fill="#ffcaba" style="mix-blend-mode: multiply;isolation: isolate"/>
            <path id="Path_136" data-name="Path 136" d="M382.722,802.294a4.3,4.3,0,0,1-2.118-.461.1.1,0,0,1-.038-.142.105.105,0,0,1,.142-.038c1.523.878,4.481.219,5.27-.283a.1.1,0,0,1,.144.032.1.1,0,0,1-.032.143A7.524,7.524,0,0,1,382.722,802.294Z" fill="#361b18"/>
            <path id="Path_137" data-name="Path 137" d="M383.216,806.427a5.289,5.289,0,0,1-2.665-.7.1.1,0,0,1,.106-.179,5.044,5.044,0,0,0,5.694-.478.1.1,0,0,1,.146.148A4.71,4.71,0,0,1,383.216,806.427Z" fill="#ffcaba" style="mix-blend-mode: multiply;isolation: isolate"/>
            <path id="Path_138" data-name="Path 138" d="M398.28,812.188c-5.335,11.639-2.563,21.339,1.94,21.686,1.663,6.1,3.326,12.886,3.326,12.886-3.326,4.781-8.314,22.725-11.779,23.21-2.632-.762-3.776-.26-5.889.416-1.732.554-2.355.208-2.425.693s1.525,1.524,3.395,1.663,2.009.97,1.871,2.91.069,8.5,1.42,8.92,1.4-1.2,1.3-2.183c.624,2.65,1.663,2.131,1.871,1.351.987.936,1.351-.623,1.351-.623.987.312,1.247-.572,1.715-2.442s.675-4.729,1.611-5.976,12.419-13.406,15.225-16.992a13.171,13.171,0,0,0,2.858-9.353c-.26-1.819-4.573-27.021-8.107-30.762S398.28,812.188,398.28,812.188Z" fill="#ff9f82"/>
            <path id="Path_139" data-name="Path 139" d="M391.479,882.411a.086.086,0,0,1-.072,0,.084.084,0,0,1-.045-.11,8.4,8.4,0,0,0,.2-3.986.084.084,0,0,1,.167-.022,8.4,8.4,0,0,1-.216,4.074A.089.089,0,0,1,391.479,882.411Z" fill="#ffcaba" style="mix-blend-mode: multiply;isolation: isolate"/>
            <path id="Path_140" data-name="Path 140" d="M393.384,883.745a.086.086,0,0,1-.072,0,.084.084,0,0,1-.044-.11,8.432,8.432,0,0,0,.2-3.986.084.084,0,0,1,.167-.022,8.383,8.383,0,0,1-.216,4.073A.082.082,0,0,1,393.384,883.745Z" fill="#ffcaba" style="mix-blend-mode: multiply;isolation: isolate"/>
            <path id="Path_141" data-name="Path 141" d="M394.77,883.1a.086.086,0,0,1-.072,0,.084.084,0,0,1-.045-.11,8.4,8.4,0,0,0,.2-3.986.084.084,0,0,1,.167-.022,8.4,8.4,0,0,1-.216,4.074A.089.089,0,0,1,394.77,883.1Z" fill="#ffcaba" style="mix-blend-mode: multiply;isolation: isolate"/>
        </g>
    </g>
</svg>