<svg width="27" height="29" viewBox="0 0 27 29" fill="none" xmlns="http://www.w3.org/2000/svg">
<path d="M11.3055 0.791013C11.9141 0.280757 12.6852 0.000545275 13.4822 7.94973e-07C14.2792 -0.000543685 15.0507 0.278615 15.66 0.788038L25.8 9.26338C26.5605 9.89851 27 10.8356 27 11.8217V26.397C27 27.0874 26.7234 27.7494 26.2312 28.2376C25.7389 28.7258 25.0712 29 24.375 29H2.625C1.92907 29 1.26161 28.726 0.769375 28.2381C0.277135 27.7503 0.000397676 27.0886 0 26.3985V11.8217C0 10.8371 0.438 9.90297 1.1955 9.26635L11.3055 0.791013ZM19.176 14.5393C19.2834 14.4363 19.369 14.3132 19.4279 14.177C19.4868 14.0409 19.5178 13.8945 19.519 13.7464C19.5203 13.5983 19.4917 13.4514 19.4351 13.3143C19.3785 13.1772 19.2949 13.0527 19.1892 12.948C19.0835 12.8433 18.9579 12.7606 18.8196 12.7045C18.6813 12.6485 18.5331 12.6203 18.3838 12.6217C18.2344 12.6231 18.0868 12.6539 17.9496 12.7124C17.8123 12.771 17.6882 12.856 17.5845 12.9626L11.625 18.8706L9.42 16.6841C9.31617 16.5776 9.19199 16.4927 9.05471 16.4343C8.91743 16.3759 8.76979 16.3452 8.62042 16.344C8.47104 16.3428 8.32291 16.3711 8.18468 16.4272C8.04645 16.4834 7.92088 16.5663 7.8153 16.6711C7.70973 16.7759 7.62625 16.9004 7.56975 17.0376C7.51325 17.1747 7.48485 17.3216 7.48622 17.4697C7.48759 17.6179 7.51869 17.7642 7.57772 17.9003C7.63674 18.0364 7.7225 18.1594 7.83 18.2623L10.83 21.2371C11.0409 21.446 11.3269 21.5634 11.625 21.5634C11.9231 21.5634 12.2091 21.446 12.42 21.2371L19.176 14.5393Z" fill="#FDFDFD"/>
</svg>
