<svg width="32" height="32" viewBox="0 0 32 32" fill="none" xmlns="http://www.w3.org/2000/svg">
<g clip-path="url(#clip0_2630_1342)">
<path d="M0.126953 25.2486V27.8445C0.126953 29.9904 5.35512 31.7352 11.7991 31.7352C18.2432 31.7352 23.4713 29.9904 23.4713 27.8445V25.2486C20.9606 27.0177 16.3707 27.8445 11.7991 27.8445C7.22753 27.8445 2.63769 27.0177 0.126953 25.2486ZM19.5806 8.39083C26.0246 8.39083 31.2528 6.64608 31.2528 4.5001C31.2528 2.35412 26.0246 0.609375 19.5806 0.609375C13.1366 0.609375 7.90841 2.35412 7.90841 4.5001C7.90841 6.64608 13.1366 8.39083 19.5806 8.39083ZM0.126953 18.8715V22.0084C0.126953 24.1544 5.35512 25.8991 11.7991 25.8991C18.2432 25.8991 23.4713 24.1544 23.4713 22.0084V18.8715C20.9606 20.9384 16.3647 22.0084 11.7991 22.0084C7.23361 22.0084 2.63769 20.9384 0.126953 18.8715ZM25.4167 19.5402C28.9001 18.8654 31.2528 17.6131 31.2528 16.1723V13.5764C29.8424 14.5734 27.7694 15.2543 25.4167 15.6738V19.5402ZM11.7991 10.3362C5.35512 10.3362 0.126953 12.5126 0.126953 15.1996C0.126953 17.8866 5.35512 20.063 11.7991 20.063C18.2432 20.063 23.4713 17.8866 23.4713 15.1996C23.4713 12.5126 18.2432 10.3362 11.7991 10.3362ZM25.131 13.7588C28.7785 13.1023 31.2528 11.8135 31.2528 10.3362V7.74035C29.0946 9.26624 25.3863 10.0869 21.4834 10.2815C23.2768 11.1508 24.596 12.318 25.131 13.7588Z" fill="#FDFDFD"/>
</g>
<defs>
<clipPath id="clip0_2630_1342">
<rect width="31.1258" height="31.1258" fill="white" transform="translate(0.126953 0.609375)"/>
</clipPath>
</defs>
</svg>
