<svg width="27" height="27" viewBox="0 0 27 27" fill="none" xmlns="http://www.w3.org/2000/svg">
<path d="M24.2992 14.85V24.3C24.2992 25.0161 24.0148 25.7028 23.5084 26.2092C23.0021 26.7155 22.3153 27 21.5992 27C20.8831 27 20.1964 26.7155 19.69 26.2092C19.1837 25.7028 18.8992 25.0161 18.8992 24.3V17.55H16.1992V4.05C16.1992 2.97587 16.6259 1.94574 17.3854 1.18622C18.145 0.426695 19.1751 0 20.2492 0L24.2992 0V14.85ZM5.39922 13.5C4.68313 13.5 3.99638 13.2155 3.49003 12.7092C2.98368 12.2028 2.69922 11.5161 2.69922 10.8V1.35C2.69922 0.991958 2.84145 0.64858 3.09462 0.395406C3.3478 0.142232 3.69118 0 4.04922 0C4.40726 0 4.75064 0.142232 5.00381 0.395406C5.25699 0.64858 5.39922 0.991958 5.39922 1.35V6.75H6.74922V1.35C6.74922 0.991958 6.89145 0.64858 7.14462 0.395406C7.3978 0.142232 7.74118 0 8.09922 0C8.45726 0 8.80064 0.142232 9.05381 0.395406C9.30699 0.64858 9.44922 0.991958 9.44922 1.35V6.75H10.7992V1.35C10.7992 0.991958 10.9415 0.64858 11.1946 0.395406C11.4478 0.142232 11.7912 0 12.1492 0C12.5073 0 12.8506 0.142232 13.1038 0.395406C13.357 0.64858 13.4992 0.991958 13.4992 1.35V10.8C13.4992 11.5161 13.2148 12.2028 12.7084 12.7092C12.2021 13.2155 11.5153 13.5 10.7992 13.5V24.3C10.7992 25.0161 10.5148 25.7028 10.0084 26.2092C9.50206 26.7155 8.8153 27 8.09922 27C7.38313 27 6.69638 26.7155 6.19003 26.2092C5.68368 25.7028 5.39922 25.0161 5.39922 24.3V13.5Z" fill="#FDFDFD"/>
</svg>
