<svg width="32" height="32" viewBox="0 0 32 32" fill="none" xmlns="http://www.w3.org/2000/svg">
<path d="M12.2602 9.90082C12.3473 9.72643 12.4848 9.58224 12.6549 9.48696C12.825 9.39169 13.0197 9.34971 13.214 9.36649C13.4082 9.38326 13.5929 9.45801 13.7441 9.58104C13.8953 9.70407 14.0061 9.8697 14.062 10.0564L16.2749 17.4342L18.0987 13.7915C18.1795 13.63 18.3036 13.4941 18.4573 13.3992C18.6109 13.3043 18.788 13.254 18.9686 13.254C19.1492 13.254 19.3263 13.3043 19.4799 13.3992C19.6336 13.4941 19.7578 13.63 19.8386 13.7915L21.5128 17.1449H27.3951C28.2709 15.3393 28.7152 13.3549 28.693 11.3483C28.6547 7.57246 25.6254 4.5 21.9402 4.5C19.0166 4.5 17.0768 6.29581 16.0481 7.60042C15.022 6.29399 13.0796 4.5 10.1561 4.5C6.47087 4.5 3.44158 7.57246 3.40328 11.3483C3.38756 12.6521 3.57062 13.9508 3.94615 15.1995H9.61081L12.2602 9.90082Z" fill="#FDFDFD"/>
<path d="M20.0416 18.5529L18.9662 16.4021L16.9181 20.4983C16.8372 20.6598 16.713 20.7956 16.5594 20.8905C16.4058 20.9854 16.2287 21.0357 16.0481 21.0357C16.021 21.0357 15.993 21.0345 15.9642 21.032C15.7695 21.0159 15.5842 20.9415 15.4324 20.8185C15.2806 20.6955 15.1693 20.5297 15.1131 20.3426L12.9003 12.9648L11.0765 16.6075C10.9961 16.7682 10.8728 16.9035 10.7202 16.9983C10.5676 17.0932 10.3917 17.1439 10.212 17.1449H4.70117C5.26857 18.332 6.02382 19.5005 6.96691 20.6502C8.10799 22.0412 10.1768 24.265 14.9545 27.5083C15.2766 27.7291 15.6581 27.8473 16.0487 27.8473C16.4393 27.8473 16.8208 27.7291 17.143 27.5083C21.9207 24.265 23.9894 22.0412 25.1305 20.6502C25.5415 20.15 25.927 19.6294 26.2856 19.0903H20.9115C20.7309 19.0903 20.5539 19.0401 20.4002 18.9451C20.2466 18.8502 20.1224 18.7144 20.0416 18.5529Z" fill="#FDFDFD"/>
<path d="M28.6925 17.1445H27.3946C27.0712 17.8184 26.7005 18.4685 26.2852 19.0899H28.6925C28.9505 19.0899 29.1979 18.9874 29.3803 18.805C29.5627 18.6226 29.6652 18.3752 29.6652 18.1172C29.6652 17.8592 29.5627 17.6118 29.3803 17.4294C29.1979 17.247 28.9505 17.1445 28.6925 17.1445Z" fill="#920909"/>
<path d="M3.40237 15.1992C3.1444 15.1992 2.89699 15.3017 2.71458 15.4841C2.53217 15.6665 2.42969 15.9139 2.42969 16.1719C2.42969 16.4299 2.53217 16.6773 2.71458 16.8597C2.89699 17.0421 3.1444 17.1446 3.40237 17.1446H4.70029C4.39949 16.5163 4.14708 15.8659 3.94525 15.1992H3.40237Z" fill="#920909"/>
</svg>
