<svg width="32" height="26" viewBox="0 0 32 26" fill="none" xmlns="http://www.w3.org/2000/svg">
<g clip-path="url(#clip0_2630_1352)">
<path d="M16.4125 7.22031C13.8339 7.22031 11.7436 9.70135 11.7436 12.7623C11.7436 15.8228 13.8339 18.3044 16.4125 18.3044C18.9901 18.3044 21.0814 15.8238 21.0814 12.7623C21.0814 9.70135 18.9911 7.22031 16.4125 7.22031ZM18.3579 15.5333C18.3579 15.7521 18.1838 15.9292 17.9688 15.9292H14.8562C14.6413 15.9292 14.4672 15.7521 14.4672 15.5333V14.7416C14.4672 14.5229 14.6413 14.3458 14.8562 14.3458H15.6344V11.6025L15.6115 11.6178C15.569 11.6467 15.5214 11.6667 15.4712 11.6768C15.4211 11.6869 15.3695 11.6868 15.3195 11.6766C15.2694 11.6664 15.2217 11.6463 15.1793 11.6173C15.1369 11.5884 15.1005 11.5512 15.0722 11.508L14.6403 10.8493C14.6119 10.8061 14.5922 10.7576 14.5823 10.7066C14.5724 10.6556 14.5724 10.6032 14.5825 10.5522C14.5925 10.5012 14.6123 10.4528 14.6407 10.4096C14.6692 10.3664 14.7057 10.3294 14.7483 10.3006L15.4938 9.79487C15.6855 9.66483 15.9107 9.59545 16.1411 9.59546H16.8016C17.0166 9.59546 17.1907 9.77261 17.1907 9.99132V14.3458H17.9688C18.1838 14.3458 18.3579 14.5229 18.3579 14.7416V15.5333ZM30.4191 3.26172H2.4059C1.54654 3.26172 0.849609 3.9708 0.849609 4.84515V20.6795C0.849609 21.5539 1.54654 22.2629 2.4059 22.2629H30.4191C31.2785 22.2629 31.9754 21.5539 31.9754 20.6795V4.84515C31.9754 3.9708 31.2785 3.26172 30.4191 3.26172ZM29.641 16.7209C27.9218 16.7209 26.5284 18.1386 26.5284 19.8878H6.29663C6.29663 18.1386 4.90326 16.7209 3.18405 16.7209V8.80374C4.90326 8.80374 6.29663 7.38607 6.29663 5.63687H26.5284C26.5284 7.38607 27.9218 8.80374 29.641 8.80374V16.7209Z" fill="#FDFDFD"/>
</g>
<defs>
<clipPath id="clip0_2630_1352">
<rect width="31.1258" height="25.335" fill="white" transform="translate(0.849609 0.0957031)"/>
</clipPath>
</defs>
</svg>
