<svg width="32" height="32" viewBox="0 0 32 32" fill="none" xmlns="http://www.w3.org/2000/svg">
<path fill-rule="evenodd" clip-rule="evenodd" d="M4.98164 8.95073C4.84096 9.0915 4.76196 9.28238 4.76202 9.4814C4.76208 9.68041 4.84119 9.87125 4.98196 10.0119C5.12273 10.1526 5.31361 10.2316 5.51263 10.2315C5.71164 10.2315 5.90248 10.1524 6.04316 10.0116L6.57359 9.48052L9.22577 12.1327L7.10403 14.2557C6.96735 14.3972 6.89171 14.5868 6.89341 14.7835C6.89511 14.9802 6.97402 15.1684 7.11313 15.3075C7.25224 15.4466 7.44043 15.5255 7.63715 15.5272C7.83388 15.5289 8.0234 15.4533 8.1649 15.3166L9.22577 14.2557L11.142 16.1719H5.99063C5.58211 16.1719 5.19109 16.336 4.90188 16.6278C4.61269 16.921 4.45076 17.3164 4.4512 17.7282V20.0614C4.44634 21.8707 5.05432 23.6283 6.17609 25.048C7.29102 26.4601 8.85662 27.4471 10.6115 27.8441C12.3663 27.4475 13.9319 26.461 15.0469 25.0493C15.8326 24.0558 16.3709 22.8898 16.6175 21.6475L18.2451 23.2757C18.7614 23.7922 19.4171 24.1468 20.132 24.2961C20.8468 24.4453 21.5896 24.3828 22.2694 24.1161L23.0203 24.8677C23.2066 25.0541 23.4387 25.1882 23.6932 25.2563C23.9478 25.3245 24.2158 25.3245 24.4703 25.2561L26.2036 26.9894C26.3444 27.1302 26.5353 27.2093 26.7344 27.2093C26.9334 27.2093 27.1244 27.1302 27.2651 26.9894C27.4059 26.8487 27.485 26.6578 27.485 26.4587C27.485 26.2596 27.4059 26.0687 27.2651 25.9279L25.5312 24.1946C25.5993 23.9401 25.5992 23.6722 25.5309 23.4178C25.4626 23.1634 25.3285 22.9314 25.1421 22.7453L24.3912 21.9937C24.6214 21.4067 24.6999 20.7711 24.6194 20.1457C24.5151 19.3219 24.1394 18.5564 23.5514 17.9701L14.5314 8.95008L15.5929 7.88856C15.7336 7.7478 15.8126 7.55691 15.8126 7.3579C15.8125 7.15888 15.7334 6.96805 15.5926 6.82737C15.4519 6.68669 15.261 6.60769 15.062 6.60775C14.8629 6.60781 14.6721 6.68692 14.5314 6.82769L12.4097 8.95008L9.7575 6.2979L10.2873 5.76747C10.4281 5.62679 10.5072 5.43595 10.5072 5.23694C10.5073 5.03792 10.4283 4.84704 10.2876 4.70627C10.1469 4.5655 9.9561 4.48639 9.75709 4.48633C9.55807 4.48627 9.36719 4.56527 9.22642 4.70595L4.98164 8.95073ZM17.775 20.9705L21.2462 17.4993L13.6139 9.867L10.1427 13.3388L12.9764 16.1719H15.2324C15.6409 16.1719 16.0319 16.336 16.3205 16.6278C16.6097 16.9196 16.7718 17.3151 16.7718 17.7282V19.968L17.775 20.9705ZM11.4921 9.867L8.83994 7.21482L7.49116 8.5636L10.1433 11.2158L11.4921 9.867ZM23.6915 23.1279C23.6005 23.229 23.5042 23.3251 23.4029 23.4158L23.9373 23.9501C23.9562 23.9691 23.9786 23.9841 24.0033 23.9944C24.028 24.0047 24.0545 24.01 24.0813 24.01C24.1081 24.01 24.1346 24.0048 24.1593 23.9946C24.1841 23.9844 24.2065 23.9694 24.2255 23.9505C24.2444 23.9316 24.2595 23.9091 24.2698 23.8844C24.28 23.8597 24.2853 23.8332 24.2854 23.8064C24.2854 23.7796 24.2801 23.7531 24.2699 23.7284C24.2597 23.7037 24.2447 23.6812 24.2258 23.6622L23.6915 23.1279ZM22.307 18.5602L22.6339 18.887C22.8881 19.1401 23.0835 19.4461 23.2062 19.7832C23.3289 20.1203 23.3759 20.4802 23.3439 20.8376C23.3235 21.0719 23.2696 21.302 23.1838 21.521L21.7961 22.9081C21.3513 23.0827 20.8652 23.1238 20.3975 23.0262C19.9297 22.9287 19.5006 22.6967 19.1627 22.3588L18.8359 22.032L22.307 18.5602ZM11.5842 19.4142C11.5842 19.2422 11.5159 19.0773 11.3943 18.9557C11.2727 18.8341 11.1077 18.7657 10.9357 18.7657C10.7638 18.7657 10.5988 18.8341 10.4772 18.9557C10.3556 19.0773 10.2873 19.2422 10.2873 19.4142V20.7111H8.99038C8.8184 20.7111 8.65346 20.7794 8.53186 20.901C8.41025 21.0226 8.34193 21.1876 8.34193 21.3596C8.34193 21.5315 8.41025 21.6965 8.53186 21.8181C8.65346 21.9397 8.8184 22.008 8.99038 22.008H10.2873V23.3049C10.2873 23.4769 10.3556 23.6418 10.4772 23.7634C10.5988 23.8851 10.7638 23.9534 10.9357 23.9534C11.1077 23.9534 11.2727 23.8851 11.3943 23.7634C11.5159 23.6418 11.5842 23.4769 11.5842 23.3049V22.008H12.8811C13.0531 22.008 13.218 21.9397 13.3396 21.8181C13.4612 21.6965 13.5296 21.5315 13.5296 21.3596C13.5296 21.1876 13.4612 21.0226 13.3396 20.901C13.218 20.7794 13.0531 20.7111 12.8811 20.7111H11.5842V19.4142Z" fill="#FDFDFD"/>
</svg>
