<svg width="103" height="53" viewBox="0 0 103 53" fill="none" xmlns="http://www.w3.org/2000/svg">
<path d="M31.3566 11.816C30.7826 12.124 30.2086 12.236 29.5926 12.236C27.7166 12.236 26.4146 10.934 26.4146 9.1C26.4146 7.238 27.7166 5.964 29.6206 5.964C30.6146 5.964 31.4406 6.314 32.1546 7.07L33.6106 5.726C32.6586 4.62 31.2306 4.032 29.5086 4.032C26.3866 4.032 24.1186 6.146 24.1186 9.1C24.1186 12.054 26.3866 14.168 29.4666 14.168C30.8666 14.168 32.3506 13.734 33.4286 12.922V8.946H31.3566V11.816ZM48.1774 4.2H45.9514L43.3334 8.554L40.7154 4.2H38.3074L42.1014 10.5V14H44.3694V10.528L48.1774 4.2ZM64.2066 14L64.1786 4.2H62.3166L58.7046 10.29L55.0366 4.2H53.1606V14H55.2886V8.246L58.1586 12.964H59.1806L62.0646 8.12L62.0786 14H64.2066ZM73.8817 14.168C76.6817 14.168 78.0397 12.768 78.0397 11.13C78.0397 7.532 72.3417 8.778 72.3417 6.972C72.3417 6.356 72.8597 5.852 74.2037 5.852C75.0717 5.852 76.0097 6.104 76.9197 6.622L77.6197 4.9C76.7097 4.326 75.4497 4.032 74.2177 4.032C71.4317 4.032 70.0877 5.418 70.0877 7.084C70.0877 10.724 75.7857 9.464 75.7857 11.298C75.7857 11.9 75.2397 12.348 73.8957 12.348C72.7197 12.348 71.4877 11.928 70.6617 11.326L69.8917 13.034C70.7597 13.706 72.3277 14.168 73.8817 14.168Z" fill="white"/>
<path d="M5.91742 33.05C7.64742 33.05 8.43742 32.19 8.43742 31.2C8.43742 28.66 4.06742 29.9 4.06742 27.8C4.06742 27.03 4.67742 26.4 6.03742 26.4C6.66742 26.4 7.37742 26.59 7.95742 26.99L8.14742 26.58C7.60742 26.19 6.80742 25.95 6.03742 25.95C4.31742 25.95 3.55742 26.82 3.55742 27.81C3.55742 30.39 7.92742 29.13 7.92742 31.23C7.92742 31.99 7.30742 32.6 5.90742 32.6C4.96742 32.6 4.07742 32.22 3.59742 31.72L3.36742 32.1C3.87742 32.66 4.87742 33.05 5.91742 33.05ZM13.3912 32.32C13.1812 32.51 12.8912 32.61 12.5812 32.61C11.9412 32.61 11.6112 32.24 11.6112 31.57V28.21H13.2712V27.78H11.6112V26.64H11.1112V27.78H10.1512V28.21H11.1112V31.62C11.1112 32.5 11.6112 33.04 12.5312 33.04C12.9212 33.04 13.3412 32.92 13.6012 32.67L13.3912 32.32ZM16.4755 28.92V27.78H15.9955V33H16.4955V30.28C16.4955 28.99 17.1855 28.22 18.3455 28.22C18.3855 28.22 18.4255 28.23 18.4655 28.23V27.74C17.4855 27.74 16.7955 28.16 16.4755 28.92ZM25.2144 30.37C25.2144 28.82 24.1544 27.74 22.7244 27.74C21.2944 27.74 20.2244 28.84 20.2244 30.39C20.2244 31.94 21.3344 33.04 22.9144 33.04C23.7044 33.04 24.4244 32.75 24.8844 32.19L24.5944 31.86C24.1944 32.35 23.5844 32.59 22.9244 32.59C21.6744 32.59 20.7644 31.75 20.7144 30.51H25.2044C25.2044 30.46 25.2144 30.41 25.2144 30.37ZM22.7244 28.18C23.8344 28.18 24.6544 28.99 24.7244 30.12H20.7244C20.8044 28.98 21.6144 28.18 22.7244 28.18ZM30.3112 27.74C29.3212 27.74 28.5912 28.18 28.2412 28.91V27.78H27.7612V33H28.2612V30.22C28.2612 28.98 29.0112 28.19 30.2412 28.19C31.3012 28.19 31.9312 28.81 31.9312 29.99V33H32.4312V29.95C32.4312 28.49 31.5812 27.74 30.3112 27.74ZM39.7195 27.78V28.96C39.2995 28.18 38.4895 27.74 37.5295 27.74C36.0495 27.74 34.9295 28.78 34.9295 30.27C34.9295 31.76 36.0495 32.81 37.5295 32.81C38.4695 32.81 39.2695 32.38 39.6995 31.62V32.5C39.6995 33.89 39.0495 34.53 37.6595 34.53C36.8195 34.53 36.0695 34.25 35.5495 33.77L35.2795 34.15C35.8095 34.68 36.7195 34.98 37.6695 34.98C39.3495 34.98 40.1995 34.19 40.1995 32.44V27.78H39.7195ZM37.5695 32.36C36.3395 32.36 35.4395 31.5 35.4395 30.27C35.4395 29.04 36.3395 28.19 37.5695 28.19C38.8095 28.19 39.7095 29.04 39.7095 30.27C39.7095 31.5 38.8095 32.36 37.5695 32.36ZM45.6959 32.32C45.4859 32.51 45.1959 32.61 44.8859 32.61C44.2459 32.61 43.9159 32.24 43.9159 31.57V28.21H45.5759V27.78H43.9159V26.64H43.4159V27.78H42.4559V28.21H43.4159V31.62C43.4159 32.5 43.9159 33.04 44.8359 33.04C45.2259 33.04 45.6459 32.92 45.9059 32.67L45.6959 32.32ZM50.8502 27.74C49.8802 27.74 49.1602 28.16 48.8002 28.87V25.58H48.3002V33H48.8002V30.22C48.8002 28.98 49.5502 28.19 50.7802 28.19C51.8402 28.19 52.4702 28.81 52.4702 29.99V33H52.9702V29.95C52.9702 28.49 52.1202 27.74 50.8502 27.74ZM55.9688 32.19C55.7288 32.19 55.5488 32.37 55.5488 32.61C55.5488 32.82 55.6788 32.97 55.8788 33.02L55.5488 34.43H55.9088L56.2988 33.07C56.3588 32.86 56.3888 32.76 56.3888 32.61C56.3888 32.39 56.2188 32.19 55.9688 32.19ZM67.6894 26L65.5394 32.31L63.3594 26H62.8694L60.6794 32.3L58.5494 26H58.0094L60.3894 33H60.9294L63.1094 26.72L65.2794 33H65.8194L68.1894 26H67.6894ZM74.5191 30.37C74.5191 28.82 73.4591 27.74 72.0291 27.74C70.5991 27.74 69.5291 28.84 69.5291 30.39C69.5291 31.94 70.6391 33.04 72.2191 33.04C73.0091 33.04 73.7291 32.75 74.1891 32.19L73.8991 31.86C73.4991 32.35 72.8891 32.59 72.2291 32.59C70.9791 32.59 70.0691 31.75 70.0191 30.51H74.5091C74.5091 30.46 74.5191 30.41 74.5191 30.37ZM72.0291 28.18C73.1391 28.18 73.9591 28.99 74.0291 30.12H70.0291C70.1091 28.98 70.9191 28.18 72.0291 28.18ZM77.3159 26.51C77.5459 26.51 77.7259 26.33 77.7259 26.1C77.7259 25.88 77.5459 25.7 77.3159 25.7C77.0859 25.7 76.9059 25.89 76.9059 26.11C76.9059 26.33 77.0859 26.51 77.3159 26.51ZM77.0659 33H77.5659V27.78H77.0659V33ZM84.8933 27.78V28.96C84.4733 28.18 83.6633 27.74 82.7033 27.74C81.2233 27.74 80.1033 28.78 80.1033 30.27C80.1033 31.76 81.2233 32.81 82.7033 32.81C83.6433 32.81 84.4433 32.38 84.8733 31.62V32.5C84.8733 33.89 84.2233 34.53 82.8333 34.53C81.9933 34.53 81.2433 34.25 80.7233 33.77L80.4533 34.15C80.9833 34.68 81.8933 34.98 82.8433 34.98C84.5233 34.98 85.3733 34.19 85.3733 32.44V27.78H84.8933ZM82.7433 32.36C81.5133 32.36 80.6133 31.5 80.6133 30.27C80.6133 29.04 81.5133 28.19 82.7433 28.19C83.9833 28.19 84.8833 29.04 84.8833 30.27C84.8833 31.5 83.9833 32.36 82.7433 32.36ZM91.0397 27.74C90.0697 27.74 89.3497 28.16 88.9897 28.87V25.58H88.4897V33H88.9897V30.22C88.9897 28.98 89.7397 28.19 90.9697 28.19C92.0297 28.19 92.6597 28.81 92.6597 29.99V33H93.1597V29.95C93.1597 28.49 92.3097 27.74 91.0397 27.74ZM98.5982 32.32C98.3882 32.51 98.0982 32.61 97.7882 32.61C97.1482 32.61 96.8182 32.24 96.8182 31.57V28.21H98.4782V27.78H96.8182V26.64H96.3182V27.78H95.3582V28.21H96.3182V31.62C96.3182 32.5 96.8182 33.04 97.7382 33.04C98.1282 33.04 98.5482 32.92 98.8082 32.67L98.5982 32.32ZM30.2231 45H30.7331V38.46H33.2531V38H27.7031V38.46H30.2231V45ZM35.7011 40.92V39.78H35.2211V45H35.7211V42.28C35.7211 40.99 36.4111 40.22 37.5711 40.22C37.6111 40.22 37.6511 40.23 37.6911 40.23V39.74C36.7111 39.74 36.0211 40.16 35.7011 40.92ZM41.8288 39.74C41.0188 39.74 40.2588 40.02 39.7388 40.48L39.9888 40.84C40.4188 40.45 41.0688 40.18 41.7888 40.18C42.8088 40.18 43.3388 40.7 43.3388 41.67V42.09H41.5488C40.0988 42.09 39.5988 42.76 39.5988 43.55C39.5988 44.44 40.3088 45.04 41.4788 45.04C42.3888 45.04 43.0288 44.67 43.3588 44.07V45H43.8388V41.69C43.8388 40.4 43.1188 39.74 41.8288 39.74ZM41.5488 44.63C40.6288 44.63 40.0988 44.21 40.0988 43.53C40.0988 42.93 40.4788 42.48 41.5588 42.48H43.3388V43.46C43.0388 44.21 42.4288 44.63 41.5488 44.63ZM47.1489 38.51C47.3789 38.51 47.5589 38.33 47.5589 38.1C47.5589 37.88 47.3789 37.7 47.1489 37.7C46.9189 37.7 46.7389 37.89 46.7389 38.11C46.7389 38.33 46.9189 38.51 47.1489 38.51ZM46.8989 45H47.3989V39.78H46.8989V45ZM53.0563 39.74C52.0663 39.74 51.3363 40.18 50.9863 40.91V39.78H50.5063V45H51.0063V42.22C51.0063 40.98 51.7563 40.19 52.9863 40.19C54.0463 40.19 54.6763 40.81 54.6763 41.99V45H55.1763V41.95C55.1763 40.49 54.3263 39.74 53.0563 39.74ZM58.4848 38.51C58.7148 38.51 58.8948 38.33 58.8948 38.1C58.8948 37.88 58.7148 37.7 58.4848 37.7C58.2548 37.7 58.0748 37.89 58.0748 38.11C58.0748 38.33 58.2548 38.51 58.4848 38.51ZM58.2348 45H58.7348V39.78H58.2348V45ZM64.3922 39.74C63.4022 39.74 62.6722 40.18 62.3222 40.91V39.78H61.8422V45H62.3422V42.22C62.3422 40.98 63.0922 40.19 64.3222 40.19C65.3822 40.19 66.0122 40.81 66.0122 41.99V45H66.5122V41.95C66.5122 40.49 65.6622 39.74 64.3922 39.74ZM73.8005 39.78V40.96C73.3805 40.18 72.5705 39.74 71.6105 39.74C70.1305 39.74 69.0105 40.78 69.0105 42.27C69.0105 43.76 70.1305 44.81 71.6105 44.81C72.5505 44.81 73.3505 44.38 73.7805 43.62V44.5C73.7805 45.89 73.1305 46.53 71.7405 46.53C70.9005 46.53 70.1505 46.25 69.6305 45.77L69.3605 46.15C69.8905 46.68 70.8005 46.98 71.7505 46.98C73.4305 46.98 74.2805 46.19 74.2805 44.44V39.78H73.8005ZM71.6505 44.36C70.4205 44.36 69.5205 43.5 69.5205 42.27C69.5205 41.04 70.4205 40.19 71.6505 40.19C72.8905 40.19 73.7905 41.04 73.7905 42.27C73.7905 43.5 72.8905 44.36 71.6505 44.36Z" fill="white"/>
</svg>
