<svg width="89" height="53" viewBox="0 0 89 53" fill="none" xmlns="http://www.w3.org/2000/svg">
<path d="M9.76458 14.168C12.5646 14.168 13.9226 12.768 13.9226 11.13C13.9226 7.532 8.22458 8.778 8.22458 6.972C8.22458 6.356 8.74258 5.852 10.0866 5.852C10.9546 5.852 11.8926 6.104 12.8026 6.622L13.5026 4.9C12.5926 4.326 11.3326 4.032 10.1006 4.032C7.31458 4.032 5.97058 5.418 5.97058 7.084C5.97058 10.724 11.6686 9.464 11.6686 11.298C11.6686 11.9 11.1226 12.348 9.77858 12.348C8.60258 12.348 7.37058 11.928 6.54458 11.326L5.77458 13.034C6.64258 13.706 8.21058 14.168 9.76458 14.168ZM19.5356 14H21.8036V6.048H24.9396V4.2H16.3996V6.048H19.5356V14ZM32.5198 14.168C35.3058 14.168 36.9578 12.572 36.9578 9.688V4.2H34.7178V9.604C34.7178 11.466 33.9198 12.236 32.5338 12.236C31.1618 12.236 30.3498 11.466 30.3498 9.604V4.2H28.0818V9.688C28.0818 12.572 29.7338 14.168 32.5198 14.168ZM41.369 14H45.821C49.027 14 51.225 12.068 51.225 9.1C51.225 6.132 49.027 4.2 45.821 4.2H41.369V14ZM43.637 12.138V6.062H45.709C47.655 6.062 48.929 7.224 48.929 9.1C48.929 10.976 47.655 12.138 45.709 12.138H43.637ZM55.1054 14H57.3734V4.2H55.1054V14ZM66.6152 14.168C69.6952 14.168 71.9772 12.026 71.9772 9.1C71.9772 6.174 69.6952 4.032 66.6152 4.032C63.5212 4.032 61.2532 6.188 61.2532 9.1C61.2532 12.012 63.5212 14.168 66.6152 14.168ZM66.6152 12.236C64.8652 12.236 63.5492 10.962 63.5492 9.1C63.5492 7.238 64.8652 5.964 66.6152 5.964C68.3652 5.964 69.6812 7.238 69.6812 9.1C69.6812 10.962 68.3652 12.236 66.6152 12.236ZM79.0717 14.168C81.8717 14.168 83.2297 12.768 83.2297 11.13C83.2297 7.532 77.5317 8.778 77.5317 6.972C77.5317 6.356 78.0497 5.852 79.3937 5.852C80.2617 5.852 81.1997 6.104 82.1097 6.622L82.8097 4.9C81.8997 4.326 80.6397 4.032 79.4077 4.032C76.6217 4.032 75.2777 5.418 75.2777 7.084C75.2777 10.724 80.9757 9.464 80.9757 11.298C80.9757 11.9 80.4297 12.348 79.0857 12.348C77.9097 12.348 76.6777 11.928 75.8517 11.326L75.0817 13.034C75.9497 13.706 77.5177 14.168 79.0717 14.168Z" fill="white"/>
<path d="M4.30891 32.54L9.12891 26.36V26H3.65891V26.46H8.42891L3.59891 32.64V33H9.23891V32.54H4.30891ZM15.6359 27.78V30.56C15.6359 31.8 14.9059 32.59 13.7259 32.59C12.6359 32.59 12.0059 31.97 12.0059 30.79V27.78H11.5059V30.83C11.5059 32.29 12.3559 33.04 13.6859 33.04C14.6059 33.04 15.3159 32.61 15.6559 31.88V33H16.1359V27.78H15.6359ZM25.7553 27.74C24.7453 27.74 23.9853 28.24 23.6453 29C23.3653 28.17 22.6753 27.74 21.7353 27.74C20.7853 27.74 20.0753 28.17 19.7353 28.9V27.78H19.2553V33H19.7553V30.22C19.7553 28.98 20.4853 28.19 21.6653 28.19C22.6853 28.19 23.2953 28.81 23.2953 29.99V33H23.7953V30.22C23.7953 28.98 24.5253 28.19 25.7053 28.19C26.7253 28.19 27.3353 28.81 27.3353 29.99V33H27.8353V29.95C27.8353 28.49 27.0153 27.74 25.7553 27.74ZM33.5198 27.74C32.5998 27.74 31.8198 28.19 31.3998 28.97V25.58H30.8998V33H31.3798V31.77C31.7898 32.57 32.5798 33.04 33.5198 33.04C34.9898 33.04 36.0998 31.95 36.0998 30.39C36.0998 28.82 34.9898 27.74 33.5198 27.74ZM33.4898 32.59C32.2898 32.59 31.3898 31.7 31.3898 30.39C31.3898 29.08 32.2898 28.19 33.4898 28.19C34.6898 28.19 35.5998 29.08 35.5998 30.39C35.5998 31.7 34.6898 32.59 33.4898 32.59ZM40.3884 27.74C39.5784 27.74 38.8184 28.02 38.2984 28.48L38.5484 28.84C38.9784 28.45 39.6284 28.18 40.3484 28.18C41.3684 28.18 41.8984 28.7 41.8984 29.67V30.09H40.1084C38.6584 30.09 38.1584 30.76 38.1584 31.55C38.1584 32.44 38.8684 33.04 40.0384 33.04C40.9484 33.04 41.5884 32.67 41.9184 32.07V33H42.3984V29.69C42.3984 28.4 41.6784 27.74 40.3884 27.74ZM40.1084 32.63C39.1884 32.63 38.6584 32.21 38.6584 31.53C38.6584 30.93 39.0384 30.48 40.1184 30.48H41.8984V31.46C41.5984 32.21 40.9884 32.63 40.1084 32.63ZM45.3984 32.19C45.1584 32.19 44.9784 32.37 44.9784 32.61C44.9784 32.82 45.1084 32.97 45.3084 33.02L44.9784 34.43H45.3384L45.7284 33.07C45.7884 32.86 45.8184 32.76 45.8184 32.61C45.8184 32.39 45.6484 32.19 45.3984 32.19ZM51.1304 26H48.6204V33H49.1304V30.71H51.1304C52.8904 30.71 53.9504 29.83 53.9504 28.36C53.9504 26.88 52.8904 26 51.1304 26ZM51.1304 30.25H49.1304V26.46H51.1304C52.6304 26.46 53.4304 27.15 53.4304 28.36C53.4304 29.56 52.6304 30.25 51.1304 30.25ZM56.5952 26.51C56.8252 26.51 57.0052 26.33 57.0052 26.1C57.0052 25.88 56.8252 25.7 56.5952 25.7C56.3652 25.7 56.1852 25.89 56.1852 26.11C56.1852 26.33 56.3652 26.51 56.5952 26.51ZM56.3452 33H56.8452V27.78H56.3452V33ZM59.9526 33H60.4526V25.58H59.9526V33ZM65.32 27.74C64.51 27.74 63.75 28.02 63.23 28.48L63.48 28.84C63.91 28.45 64.56 28.18 65.28 28.18C66.3 28.18 66.83 28.7 66.83 29.67V30.09H65.04C63.59 30.09 63.09 30.76 63.09 31.55C63.09 32.44 63.8 33.04 64.97 33.04C65.88 33.04 66.52 32.67 66.85 32.07V33H67.33V29.69C67.33 28.4 66.61 27.74 65.32 27.74ZM65.04 32.63C64.12 32.63 63.59 32.21 63.59 31.53C63.59 30.93 63.97 30.48 65.05 30.48H66.83V31.46C66.53 32.21 65.92 32.63 65.04 32.63ZM72.7701 32.32C72.5601 32.51 72.2701 32.61 71.9601 32.61C71.3201 32.61 70.9901 32.24 70.9901 31.57V28.21H72.6501V27.78H70.9901V26.64H70.4901V27.78H69.5301V28.21H70.4901V31.62C70.4901 32.5 70.9901 33.04 71.9101 33.04C72.3001 33.04 72.7201 32.92 72.9801 32.67L72.7701 32.32ZM79.6089 30.37C79.6089 28.82 78.5489 27.74 77.1189 27.74C75.6889 27.74 74.6189 28.84 74.6189 30.39C74.6189 31.94 75.7289 33.04 77.3089 33.04C78.0989 33.04 78.8189 32.75 79.2789 32.19L78.9889 31.86C78.5889 32.35 77.9789 32.59 77.3189 32.59C76.0689 32.59 75.1589 31.75 75.1089 30.51H79.5989C79.5989 30.46 79.6089 30.41 79.6089 30.37ZM77.1189 28.18C78.2289 28.18 79.0489 28.99 79.1189 30.12H75.1189C75.1989 28.98 76.0089 28.18 77.1189 28.18ZM83.4757 33.04C84.8057 33.04 85.5357 32.46 85.5357 31.61C85.5357 29.62 82.0757 30.73 82.0757 29.16C82.0757 28.6 82.5257 28.18 83.5457 28.18C84.1057 28.18 84.6757 28.33 85.1157 28.65L85.3457 28.25C84.9357 27.94 84.2157 27.74 83.5557 27.74C82.2357 27.74 81.5757 28.38 81.5757 29.17C81.5757 31.22 85.0357 30.1 85.0357 31.62C85.0357 32.21 84.5957 32.6 83.4957 32.6C82.7257 32.6 82.0157 32.31 81.6157 31.97L81.3857 32.37C81.7957 32.75 82.6157 33.04 83.4757 33.04ZM27.5921 45H30.3621C32.5821 45 34.0821 43.54 34.0821 41.5C34.0821 39.46 32.5821 38 30.3621 38H27.5921V45ZM28.1021 44.54V38.46H30.3221C32.3021 38.46 33.5721 39.72 33.5721 41.5C33.5721 43.28 32.3021 44.54 30.3221 44.54H28.1021ZM38.4538 39.74C37.6438 39.74 36.8838 40.02 36.3638 40.48L36.6138 40.84C37.0438 40.45 37.6938 40.18 38.4138 40.18C39.4338 40.18 39.9638 40.7 39.9638 41.67V42.09H38.1738C36.7238 42.09 36.2238 42.76 36.2238 43.55C36.2238 44.44 36.9338 45.04 38.1038 45.04C39.0138 45.04 39.6538 44.67 39.9838 44.07V45H40.4638V41.69C40.4638 40.4 39.7438 39.74 38.4538 39.74ZM38.1738 44.63C37.2538 44.63 36.7238 44.21 36.7238 43.53C36.7238 42.93 37.1038 42.48 38.1838 42.48H39.9638V43.46C39.6638 44.21 39.0538 44.63 38.1738 44.63ZM46.0739 39.74C45.0839 39.74 44.3539 40.18 44.0039 40.91V39.78H43.5239V45H44.0239V42.22C44.0239 40.98 44.7739 40.19 46.0039 40.19C47.0639 40.19 47.6939 40.81 47.6939 41.99V45H48.1939V41.95C48.1939 40.49 47.3439 39.74 46.0739 39.74ZM53.3321 45.04C54.1621 45.04 54.8821 44.71 55.3121 44.08L54.9421 43.81C54.5621 44.34 53.9821 44.59 53.3321 44.59C52.1021 44.59 51.2021 43.71 51.2021 42.39C51.2021 41.07 52.1021 40.19 53.3321 40.19C53.9821 40.19 54.5621 40.44 54.9421 40.97L55.3121 40.7C54.8821 40.06 54.1621 39.74 53.3321 39.74C51.8021 39.74 50.6921 40.83 50.6921 42.39C50.6921 43.94 51.8021 45.04 53.3321 45.04ZM62.1411 42.37C62.1411 40.82 61.0811 39.74 59.6511 39.74C58.2211 39.74 57.1511 40.84 57.1511 42.39C57.1511 43.94 58.2611 45.04 59.8411 45.04C60.6311 45.04 61.3511 44.75 61.8111 44.19L61.5211 43.86C61.1211 44.35 60.5111 44.59 59.8511 44.59C58.6011 44.59 57.6911 43.75 57.6411 42.51H62.1311C62.1311 42.46 62.1411 42.41 62.1411 42.37ZM59.6511 40.18C60.7611 40.18 61.5811 40.99 61.6511 42.12H57.6511C57.7311 40.98 58.5411 40.18 59.6511 40.18Z" fill="white"/>
</svg>
